<svg width="30" height="30" viewBox="0 0 30 30" fill="none" xmlns="http://www.w3.org/2000/svg">
<rect x="30" y="30" width="30" height="30" rx="15" transform="rotate(-180 30 30)" fill="white"/>
<path d="M22.7072 15.7068L18.7072 19.707C18.3166 20.0977 17.6837 20.0977 17.2931 19.707C16.9025 19.3164 16.9025 18.6835 17.2931 18.2929L19.5845 16.0005L8.00001 16.0005C7.44719 16.0005 7 15.5533 7 15.0005C7 14.4476 7.44719 14.0004 8.00001 14.0004L19.5845 14.0004L17.2914 11.7071C16.9008 11.3165 16.9008 10.6836 17.2914 10.293C17.6817 9.90265 18.3145 9.90202 18.7055 10.293L22.7055 14.2932C23.0979 14.6848 23.0979 15.3161 22.7072 15.7068Z" fill="black"/>
</svg>
