<?xml version="1.0" encoding="utf-8"?>
<!-- Generator: Adobe Illustrator 26.5.0, SVG Export Plug-In . SVG Version: 6.00 Build 0)  -->
<svg version="1.1" id="Layer_1" xmlns="http://www.w3.org/2000/svg" xmlns:xlink="http://www.w3.org/1999/xlink" x="0px" y="0px"
	 viewBox="0 0 50.43 48.42" style="enable-background:new 0 0 50.43 48.42;" xml:space="preserve">
<style type="text/css">
	.st0{fill:#666666;}
	.st1{fill:#FFFFFF;}
	.st2{fill:#FF0000;}
	.st3{fill:none;stroke:#FF0000;stroke-width:0.375;stroke-miterlimit:10;}
</style>
<path class="st0" d="M24.21,48.47c13.37,0,24.21-10.84,24.21-24.21c0-13.37-10.84-24.21-24.21-24.21S0,10.89,0,24.26
	C0,37.63,10.84,48.47,24.21,48.47"/>
<path d="M15.76,25.91c0-4.03,0-8.05,0-12.08c0-1.07,0.73-1.84,1.71-1.77c0.31,0.02,0.64,0.14,0.92,0.3
	c6.67,3.86,13.32,7.74,19.99,11.61c0.26,0.15,0.53,0.31,0.79,0.46c1.22,0.72,1.23,2.27,0,2.99c-3.36,1.96-6.73,3.91-10.1,5.87
	c-3.55,2.06-7.1,4.12-10.64,6.19c-0.6,0.35-1.2,0.46-1.83,0.11c-0.63-0.35-0.85-0.93-0.85-1.63C15.76,33.94,15.76,29.92,15.76,25.91
	"/>
</svg>
