<?xml version="1.0" encoding="utf-8"?>
<!-- Generator: Adobe Illustrator 26.5.0, SVG Export Plug-In . SVG Version: 6.00 Build 0)  -->
<svg version="1.1" id="Layer_1" xmlns="http://www.w3.org/2000/svg" xmlns:xlink="http://www.w3.org/1999/xlink" x="0px" y="0px"
	 viewBox="0 0 50.43 48.42" style="enable-background:new 0 0 50.43 48.42;" xml:space="preserve">
<style type="text/css">
	.st0{fill:#666666;}
	.st1{fill:#FFFFFF;}
	.st2{fill:#FF0000;}
	.st3{fill:none;stroke:#FF0000;stroke-width:0.375;stroke-miterlimit:10;}
</style>
<path class="st0" d="M23.58,48.97c13.37,0,24.21-10.84,24.21-24.21c0-13.37-10.84-24.21-24.21-24.21S-0.63,11.4-0.63,24.77
	C-0.63,38.13,10.21,48.97,23.58,48.97"/>
<path class="st1" d="M21.38,16.86c0.61,0.63,1.34,0.94,2.2,0.94c0.86,0,1.59-0.31,2.2-0.94c0.61-0.63,0.91-1.38,0.91-2.27
	c0-0.88-0.3-1.64-0.91-2.27c-0.61-0.63-1.34-0.94-2.2-0.94c-0.86,0-1.59,0.31-2.2,0.94c-0.61,0.63-0.91,1.38-0.91,2.27
	C20.47,15.48,20.77,16.24,21.38,16.86 M20.9,38.14h5.37V20.23H20.9V38.14z"/>
</svg>
