<svg width="72" height="32" viewBox="0 0 72 32" fill="none" xmlns="http://www.w3.org/2000/svg">
<path d="M55.9693 17.7037C56.3804 16.6141 56.9691 15.4428 57.7459 14.1828C58.5192 12.9229 59.2821 11.8616 60.0276 10.9992C60.7765 10.1367 61.3165 9.70723 61.6544 9.70723C61.8494 9.70723 61.947 9.88115 61.947 10.2254C61.947 10.7862 61.5638 11.6842 60.7974 12.9193C60.0311 14.1509 59.1741 15.2618 58.2231 16.252C57.2721 17.2352 56.5197 17.7214 55.9693 17.7037ZM56.0216 22.6797C57.2129 22.6797 58.5784 21.906 60.1181 20.355C61.6578 18.8039 63.1035 16.9229 64.4551 14.7117C64.2252 14.3496 63.9047 14.2041 63.4936 14.2751C62.4451 16.0533 61.2747 17.6575 59.9823 19.0879C58.6934 20.5218 57.6449 21.2352 56.8472 21.2352C55.9415 21.2352 55.4851 20.7809 55.4851 19.8758C55.4851 19.5315 55.5374 19.1589 55.6454 18.7614H55.9136C56.767 18.7614 57.7877 18.2751 58.9686 17.3062C60.153 16.3372 61.1736 15.2015 62.0375 13.906C62.9014 12.6105 63.3334 11.5244 63.3334 10.6549C63.3334 9.94858 63.1732 9.46233 62.8527 9.19969C62.5322 8.93705 62.1037 8.80572 61.5708 8.80572C60.4142 8.80572 59.1567 9.46943 57.7947 10.7898C56.4326 12.1136 55.2796 13.6859 54.3391 15.5103C53.395 17.3346 52.9248 18.8891 52.9248 20.174C52.9248 20.9903 53.2313 21.6114 53.8444 22.0373C54.461 22.4668 55.1855 22.6797 56.0216 22.6797ZM41.2063 27.2228C41.4014 26.7685 41.9239 26.197 42.7669 25.5085C43.6134 24.8199 44.4529 24.3195 45.289 24.0107C45.0033 24.5537 44.5853 25.1358 44.0349 25.7498C43.4845 26.3674 42.9411 26.8891 42.4081 27.315C41.8752 27.7409 41.492 27.9539 41.2621 27.9539C41.1367 27.9539 41.074 27.8794 41.074 27.7374C41.074 27.5919 41.1193 27.4215 41.2063 27.2228ZM43.6099 20.504C43.1641 20.3763 42.9411 20.0497 42.9411 19.5244C42.9411 18.7081 43.394 17.5759 44.3032 16.1243C45.2089 14.6726 46.2469 13.3878 47.4139 12.2627C48.5809 11.1376 49.511 10.5768 50.2042 10.5768C50.6501 10.5768 50.9531 10.8501 51.1099 11.3931C50.5386 12.3017 49.7269 13.5014 48.668 14.9956C47.609 16.4898 46.5883 17.8066 45.6129 18.9388C44.6341 20.0746 43.9653 20.5928 43.6099 20.504ZM39.6875 27.7658C39.4576 28.2911 39.3392 28.7525 39.3392 29.1536C39.3392 29.6079 39.4716 29.9557 39.7398 30.2006C40.008 30.4455 40.3703 30.5697 40.8336 30.5697C41.5268 30.5697 42.328 30.2964 43.2372 29.7534C44.1429 29.2103 45.066 28.3621 45.9996 27.2086C46.9332 26.0586 47.7762 24.6389 48.5216 22.953C50.1589 21.9912 51.6045 20.9406 52.8586 19.7977C54.1126 18.6549 55.2204 17.3239 56.1818 15.8013C56.039 15.6025 55.9066 15.4606 55.7812 15.3789C55.6558 15.2973 55.4886 15.276 55.2726 15.3115C54.5794 16.4721 53.6528 17.5866 52.4963 18.6549C51.3398 19.7232 50.2007 20.5963 49.079 21.2671C49.4517 19.5812 50.1206 17.8137 51.082 15.9646C51.6324 14.9672 52.2559 13.9699 52.9491 12.9725C53.6424 11.9752 54.3286 11.0772 55.0044 10.2787C55.1472 10.1331 55.2169 9.96988 55.2169 9.78887C55.2169 9.57236 55.1263 9.42684 54.9487 9.35231C54.771 9.26358 54.5202 9.18549 54.1997 9.12161C53.8792 9.05772 53.5866 9.02578 53.3184 9.02578C52.9282 9.02578 52.6774 9.08966 52.5695 9.21744C52.4092 9.3807 52.134 9.76047 51.7404 10.3603C51.1691 9.52622 50.4236 9.11096 49.497 9.11096C48.445 9.11096 47.3024 9.6185 46.0658 10.6336C44.8292 11.6487 43.704 12.8909 42.6903 14.3603C41.6766 15.8297 40.9834 17.1784 40.6072 18.4135C40.339 19.2476 40.2066 19.9823 40.2066 20.6176C40.2066 21.2884 40.3808 21.7995 40.7256 22.1544C41.074 22.5094 41.6383 22.6833 42.4221 22.6833C43.0979 22.6833 43.8817 22.3284 44.7699 21.6221C45.6582 20.9158 46.3445 20.1811 46.8252 19.418C46.752 19.599 46.7102 19.7339 46.6928 19.8261C46.658 19.9539 46.5674 20.3017 46.4246 20.8732C46.2818 21.4446 46.0762 21.9912 45.8115 22.52C44.5296 22.9743 43.3278 23.6487 42.2061 24.5466C41.1018 25.441 40.2554 26.5129 39.6875 27.7658ZM27.9691 22.6797C28.2199 22.7152 28.3976 22.733 28.5021 22.733C29.0699 22.733 29.4984 22.5165 29.784 22.0799C30.317 21.2281 31.1217 20.1527 32.1981 18.8572C33.2745 17.5617 34.3334 16.3727 35.375 15.2937C36.4166 14.2148 37.1585 13.5404 37.6044 13.2671C36.6256 14.5555 35.7582 15.961 35.0023 17.4836C34.2464 19.0063 33.8667 20.2414 33.8667 21.1819C33.8667 22.1793 34.3474 22.6762 35.3088 22.6762C36.7684 22.6762 38.228 21.9024 39.6875 20.3514C41.1471 18.8004 42.5893 16.9122 44.0105 14.6797C43.8851 14.4987 43.7493 14.3709 43.596 14.3C43.4462 14.229 43.2616 14.2112 43.0491 14.2467C42.5684 15.1163 41.9239 16.0994 41.1158 17.1961C40.3041 18.2929 39.5238 19.2228 38.7679 19.9823C38.012 20.7454 37.4477 21.1252 37.0715 21.1252C36.8032 21.1252 36.6709 20.9619 36.6709 20.6354C36.6709 19.8545 37.2839 18.3922 38.5136 16.2414C39.7398 14.0941 40.959 12.1669 42.1713 10.4632C42.3315 10.2645 42.4116 10.0551 42.4116 9.83855C42.4116 9.65754 42.3315 9.50493 42.1713 9.37715C42.011 9.24938 41.7881 9.18549 41.5024 9.18549C40.7012 9.18549 39.6388 9.71433 38.3116 10.7756C36.9844 11.8368 35.7617 12.9477 34.64 14.1083C33.5183 15.2689 32.2817 16.6034 30.9301 18.1047C31.3586 17.2707 31.9229 16.3159 32.6265 15.237C33.3302 14.158 34.4205 12.5679 35.8975 10.4632C35.9846 10.3354 36.0299 10.2183 36.0299 10.1083C36.0299 9.81726 35.8557 9.55107 35.5109 9.30617C35.166 9.06127 34.7933 8.93705 34.4031 8.93705C33.9921 8.93705 33.682 9.07192 33.4695 9.34521C32.5429 10.4348 31.4108 12.2095 30.0662 14.6762C28.7216 17.1429 27.7741 19.1731 27.2237 20.7667C27.0634 21.2032 26.9833 21.5475 26.9833 21.7995C26.9833 22.0373 27.0599 22.2219 27.2097 22.3567C27.3595 22.5023 27.6103 22.6087 27.9691 22.6797ZM23.0017 22.6797C24.4787 22.6797 25.9766 21.8918 27.4989 20.3124C29.0211 18.7365 30.4215 16.859 31.7034 14.6833C31.578 14.5023 31.4422 14.3745 31.2889 14.3035C31.1391 14.2325 30.9545 14.2148 30.742 14.2503C30.2613 15.1198 29.6168 16.103 28.8052 17.1997C27.9935 18.2964 27.2132 19.2263 26.4573 19.9858C25.7014 20.7489 25.1371 21.1287 24.7608 21.1287C24.4926 21.1287 24.3602 20.9654 24.3602 20.6389C24.3602 20.0959 24.6947 19.1766 25.36 17.8776C26.0288 16.5821 26.8405 15.237 27.8019 13.8386C28.7634 12.4437 29.6273 11.3257 30.3901 10.4916C30.5852 10.2751 30.6828 10.0551 30.6828 9.83855C30.6828 9.56526 30.5364 9.34166 30.2404 9.1571C29.9477 8.97609 29.6133 8.88381 29.2406 8.88381C28.6693 8.88381 28.2443 9.06482 27.9587 9.42684C27.0321 10.5697 26.0915 11.9113 25.1301 13.4517C24.1687 14.9921 23.3779 16.4792 22.7544 17.9131C22.1308 19.347 21.8208 20.4792 21.8208 21.3133C21.8278 22.2254 22.2214 22.6797 23.0017 22.6797ZM30.7977 7.50315C31.2436 7.50315 31.686 7.36828 32.1319 7.09499C32.5778 6.8217 32.94 6.48807 33.2257 6.087C33.5113 5.68949 33.6542 5.33456 33.6542 5.02578C33.6542 4.50049 33.2814 4.23785 32.5325 4.23785C32.0692 4.23785 31.6268 4.37272 31.1983 4.64601C30.7698 4.9193 30.425 5.24583 30.1568 5.6256C29.8885 6.00537 29.7561 6.36029 29.7561 6.68683C29.7561 7.22986 30.1045 7.50315 30.7977 7.50315ZM9.336 22.8714C9.81672 22.6904 10.1651 22.3993 10.3776 22.0018C11.9277 19.1731 13.1191 16.898 13.9551 15.1766C14.2756 14.9033 14.6588 14.6904 15.1012 14.5378C15.547 14.3851 15.9999 14.3071 16.4632 14.3071C17.2121 14.3071 17.8392 14.4952 18.3443 14.8643C18.8529 15.237 19.1037 15.7764 19.1037 16.4827C19.1037 17.7143 18.7797 18.8749 18.1283 19.9646C17.4769 21.0542 16.6165 21.9202 15.5401 22.5626C14.4637 23.205 13.3211 23.528 12.1089 23.528C11.1161 23.5209 10.1895 23.3044 9.336 22.8714ZM7.78934 21.8102C6.31234 20.5431 5.12099 18.6265 4.21181 16.071C4.0864 15.709 3.82166 15.528 3.41061 15.528C3.14238 15.528 2.8846 15.6274 2.63728 15.8261C1.87091 16.4614 1.49121 17.0045 1.49121 17.4588C1.49121 17.5688 1.50863 17.6753 1.54346 17.7853C2.5049 20.6318 3.85649 22.7294 5.60171 24.0817C7.34694 25.4339 9.24195 26.1083 11.2868 26.1083C12.924 26.1083 14.4916 25.7179 15.986 24.937C17.4804 24.1562 18.6961 23.1092 19.6297 21.796C20.5633 20.4827 21.0405 19.063 21.0579 17.5404C21.0753 16.0533 20.7374 15.0063 20.0442 14.3993C19.351 13.7924 18.5846 13.4801 17.7486 13.4623C18.832 12.9193 19.7934 12.2024 20.6329 11.315C21.469 10.4277 22.1169 9.49428 22.5802 8.51469C23.0435 7.53509 23.2734 6.61939 23.2734 5.76757C23.2734 4.31593 22.831 3.20147 21.9532 2.42063C21.0718 1.64335 19.9745 1.25293 18.6578 1.25293C17.5187 1.25293 16.3831 1.54397 15.2544 2.12249C14.1258 2.70457 13.1713 3.55639 12.398 4.67795C11.6246 5.80306 11.1822 7.12693 11.0777 8.64956C11.0777 8.86606 11.1753 9.04707 11.3704 9.19259C11.5654 9.33811 11.771 9.4091 11.9834 9.4091C12.1959 9.4091 12.3039 9.32746 12.3039 9.1642C12.3945 7.78709 12.7533 6.60874 13.3838 5.62915C14.0143 4.64956 14.7842 3.92196 15.6934 3.43927C16.6025 2.96012 17.5082 2.71877 18.4174 2.71877C19.2883 2.71877 20.0233 2.93527 20.619 3.37183C21.2147 3.80839 21.5386 4.41531 21.5944 5.19614C21.664 6.03021 21.4132 6.94237 20.835 7.92906C20.2567 8.9193 19.466 9.81371 18.4592 10.6229C17.4525 11.4286 16.3831 12.0071 15.244 12.3514L18.8389 5.21744C19.142 4.63891 19.3231 4.25559 19.3858 4.07458C19.4485 3.89357 19.4625 3.7658 19.4242 3.69481C19.3545 3.5138 19.2012 3.36473 18.9713 3.24761C18.7379 3.13048 18.4906 3.07014 18.2224 3.07014C17.8322 3.07014 17.564 3.20501 17.4212 3.47831L16.5921 5.11096C12.5408 13.1252 9.63907 18.6087 7.89384 21.5653C7.85901 21.6185 7.82417 21.7001 7.78934 21.8102Z" fill="#FDFDFD"/>
<path d="M29.8947 4.71008C29.8947 4.71008 27.7141 5.19277 28.4665 7.27263C28.4665 7.27263 29.6265 9.53705 31.4031 7.51753C31.4031 7.51753 31.9604 8.94788 34.0087 7.92214C34.0087 7.92214 35.3743 7.00644 34.0993 5.18922C34.0993 5.18922 33.9007 4.98692 33.6848 5.0792C33.6848 5.0792 34.7263 3.61336 32.894 3.46429C32.894 3.46429 32.4795 3.51753 32.3924 3.74113C32.3889 3.73758 30.5775 2.52729 29.8947 4.71008Z" fill="#FDFDFD"/>
<path d="M29.8947 4.71008C29.8947 4.71008 27.7141 5.19277 28.4665 7.27263C28.4665 7.27263 29.6265 9.53705 31.4031 7.51753C31.4031 7.51753 31.9604 8.94788 34.0087 7.92214C34.0087 7.92214 35.3743 7.00644 34.0993 5.18922C34.0993 5.18922 33.9007 4.98692 33.6848 5.0792C33.6848 5.0792 34.7263 3.61336 32.894 3.46429C32.894 3.46429 32.4795 3.51753 32.3924 3.74113C32.3889 3.73758 30.5775 2.52729 29.8947 4.71008Z" stroke="#FDFDFD" stroke-width="0.375" stroke-miterlimit="10"/>
<path d="M29.8531 4.56123C29.6023 4.61802 29.355 4.72805 29.1355 4.85937C28.6966 5.11492 28.3308 5.51243 28.2089 6.02352C28.1288 6.3607 28.1532 6.71563 28.2403 7.04925C28.2821 7.20897 28.3308 7.35094 28.4179 7.48936C28.6513 7.85848 28.9753 8.20276 29.3759 8.38022C29.6511 8.50445 29.9472 8.53639 30.2433 8.47605C30.623 8.39797 30.9608 8.16727 31.243 7.90462C31.3371 7.81589 31.4276 7.72361 31.5112 7.62778C31.4276 7.60649 31.344 7.58164 31.2569 7.56035C31.3336 7.75555 31.4694 7.93302 31.6227 8.06789C31.9885 8.38732 32.4657 8.49025 32.936 8.42991C33.3192 8.38022 33.6849 8.2489 34.0298 8.07854C34.1169 8.03594 34.19 7.97206 34.2562 7.90462C34.5662 7.60294 34.7544 7.19122 34.7857 6.75467C34.8066 6.41749 34.7265 6.08031 34.5976 5.77508C34.514 5.57632 34.4095 5.38821 34.2911 5.21075C34.2005 5.07232 34.0995 4.9765 33.9392 4.92681C33.8417 4.89841 33.7372 4.89841 33.6396 4.9339C33.6954 5.00844 33.7546 5.08652 33.8103 5.16106C33.9706 4.9339 34.0855 4.65351 34.1169 4.37667C34.1447 4.16017 34.0995 3.93657 33.9636 3.7591C33.779 3.51776 33.4759 3.40418 33.1903 3.35449C33.0823 3.33319 32.9569 3.3048 32.8454 3.32255C32.8001 3.32965 32.7514 3.34029 32.7061 3.35094C32.5319 3.40063 32.3333 3.48936 32.2532 3.66682C32.3229 3.64908 32.3926 3.63133 32.4587 3.61004C32.2463 3.47162 31.9954 3.36869 31.7516 3.3119C31.2569 3.19122 30.7449 3.26931 30.3547 3.61713C30.0482 3.89043 29.8636 4.28439 29.7416 4.67481C29.6824 4.86292 29.975 4.94455 30.0342 4.75644C30.1353 4.43701 30.2816 4.12113 30.5115 3.89043C30.602 3.79815 30.6717 3.74491 30.7971 3.68102C30.8076 3.67392 30.8215 3.66682 30.832 3.66327C30.8389 3.65973 30.8703 3.64553 30.8563 3.65263C30.8424 3.65973 30.8807 3.64198 30.8877 3.64198C30.9016 3.63843 30.9156 3.63133 30.9295 3.62778C30.9817 3.61004 31.034 3.59584 31.0863 3.58519C31.1002 3.58164 31.1141 3.58164 31.1281 3.57809C31.142 3.57454 31.1629 3.57454 31.135 3.57809C31.1629 3.57454 31.1908 3.57099 31.2186 3.57099C31.2709 3.56744 31.3196 3.56744 31.3719 3.57099C31.3963 3.57099 31.4207 3.57454 31.4485 3.57454C31.459 3.57454 31.4729 3.57809 31.4834 3.57809C31.4903 3.57809 31.5356 3.58519 31.5147 3.58164C31.4938 3.57809 31.5287 3.58519 31.5321 3.58519C31.5426 3.58519 31.553 3.58874 31.567 3.59229C31.5914 3.59584 31.6192 3.60294 31.6436 3.60649C31.7342 3.62778 31.8213 3.65263 31.9084 3.68457C31.9467 3.69877 31.985 3.71296 32.0198 3.72716C32.0477 3.73781 32.0163 3.72716 32.0198 3.72716C32.0268 3.73071 32.0372 3.73426 32.0442 3.73781C32.0616 3.74491 32.079 3.75201 32.0965 3.76265C32.1731 3.79815 32.2463 3.83719 32.3159 3.88333C32.3786 3.92592 32.4901 3.90107 32.5214 3.82654C32.5389 3.7875 32.5319 3.7946 32.5563 3.76975C32.5772 3.74846 32.5911 3.74136 32.626 3.71651C32.6817 3.68457 32.72 3.67037 32.7897 3.65263C32.8315 3.64198 32.8733 3.63488 32.9186 3.62423C32.922 3.62423 32.9255 3.62423 32.929 3.62423C32.9186 3.62778 32.8733 3.62068 32.9011 3.63133C32.9116 3.63488 32.9255 3.63488 32.936 3.63488C32.9813 3.63843 33.0266 3.64553 33.0718 3.65263C33.1554 3.66682 33.2356 3.68457 33.3157 3.70587C33.3853 3.72716 33.4411 3.74846 33.4899 3.76975C33.5421 3.7946 33.5944 3.82654 33.6396 3.86203C33.6187 3.84784 33.6396 3.86203 33.6466 3.86913C33.6536 3.87623 33.664 3.88333 33.6745 3.89398C33.6919 3.91172 33.7093 3.92947 33.7267 3.94721C33.7511 3.97561 33.7198 3.93302 33.7337 3.95431C33.7407 3.96141 33.7441 3.97206 33.7511 3.98271C33.765 4.00045 33.7755 4.02175 33.7825 4.04304C33.7894 4.05724 33.7964 4.07854 33.7859 4.04659C33.7894 4.05724 33.7929 4.06434 33.7964 4.07499C33.8034 4.09628 33.8103 4.11758 33.8138 4.13887C33.8173 4.15662 33.8243 4.21696 33.8208 4.17082C33.8243 4.19211 33.8243 4.21341 33.8243 4.2347C33.8243 4.27729 33.8208 4.31988 33.8173 4.36603C33.8138 4.39797 33.8208 4.35538 33.8173 4.36603C33.8138 4.37667 33.8138 4.39087 33.8103 4.40152C33.8068 4.42281 33.8034 4.44411 33.7964 4.4654C33.7859 4.50799 33.7755 4.54704 33.7616 4.58963C33.7546 4.60737 33.7511 4.62512 33.7441 4.64287C33.7407 4.65351 33.7372 4.66416 33.7337 4.67481C33.7232 4.7032 33.7337 4.67481 33.7337 4.67481C33.7198 4.7103 33.7023 4.74224 33.6884 4.77774C33.6501 4.85937 33.6048 4.941 33.5526 5.01554C33.4759 5.12201 33.6048 5.28883 33.7232 5.24269C33.7894 5.21784 33.8452 5.22139 33.9009 5.25334C33.9253 5.26398 33.9462 5.27818 33.9671 5.29593C33.9392 5.27463 33.981 5.30658 33.988 5.31367C33.9636 5.28528 34.0193 5.35981 34.0159 5.35626C34.0298 5.37756 34.0437 5.39531 34.0542 5.4166C34.082 5.45919 34.1099 5.50178 34.1343 5.54437C34.1865 5.63311 34.2353 5.72184 34.2771 5.81412C34.406 6.08741 34.4896 6.382 34.4861 6.68013C34.4861 6.815 34.4757 6.88954 34.4408 7.02086C34.4095 7.13799 34.3886 7.19832 34.3433 7.2835C34.3015 7.36514 34.2562 7.44322 34.204 7.51776C34.2005 7.52485 34.1935 7.53195 34.19 7.53905C34.2144 7.50356 34.1935 7.5355 34.19 7.53905C34.1796 7.55325 34.1656 7.57099 34.1517 7.58519C34.1273 7.61358 34.1064 7.63843 34.0786 7.66327C34.0437 7.70232 34.0054 7.73781 33.9636 7.76975C33.9566 7.77685 33.9497 7.7804 33.9427 7.7875C33.9357 7.7946 33.981 7.76265 33.9532 7.7804C33.9462 7.78395 33.9392 7.79105 33.9323 7.79815C33.8138 7.87268 33.671 7.92237 33.5421 7.97206C33.3819 8.0324 33.2147 8.08209 33.0475 8.11403C32.922 8.13887 32.8001 8.14952 32.6678 8.14952C32.612 8.14952 32.5563 8.14597 32.5005 8.13887C32.4971 8.13887 32.4483 8.13177 32.4831 8.13887C32.4692 8.13532 32.4553 8.13532 32.4413 8.13177C32.41 8.12468 32.3786 8.12113 32.3473 8.11403C32.302 8.10338 32.2567 8.08918 32.2114 8.07499C32.1905 8.06789 32.1696 8.06079 32.1487 8.05014C32.1417 8.04659 32.1139 8.03594 32.1452 8.05014C32.1313 8.04304 32.1174 8.03595 32.1034 8.02885C32.0268 7.98981 31.9571 7.94366 31.884 7.89397C31.877 7.88688 31.8561 7.87268 31.8875 7.89752C31.877 7.89043 31.8666 7.87978 31.8561 7.87268C31.8387 7.85848 31.8213 7.84429 31.8073 7.83009C31.7795 7.80524 31.7516 7.77685 31.7272 7.74846C31.7028 7.72361 31.6819 7.69522 31.661 7.66682C31.6959 7.70941 31.661 7.66682 31.6541 7.65618C31.6436 7.64198 31.6366 7.63133 31.6262 7.61713C31.6018 7.58164 31.5774 7.5426 31.56 7.50356C31.5496 7.48226 31.5252 7.42193 31.553 7.49291C31.5147 7.39353 31.3858 7.32965 31.2987 7.42547C31.041 7.71651 30.724 8.00755 30.3687 8.13887C30.299 8.16372 30.2258 8.18501 30.1492 8.19921C30.1353 8.20276 30.1178 8.20276 30.1039 8.20631C30.0795 8.20986 30.1109 8.20631 30.076 8.20986C30.0412 8.21341 30.0064 8.21341 29.975 8.21696C29.9437 8.21696 29.9123 8.21696 29.8845 8.21341C29.867 8.21341 29.8531 8.20986 29.8357 8.20986C29.8287 8.20986 29.8217 8.20986 29.8148 8.20631C29.7869 8.20276 29.8252 8.20631 29.8078 8.20631C29.7486 8.19566 29.6894 8.18146 29.6302 8.16372C29.6023 8.15662 29.5744 8.14597 29.55 8.13532C29.5396 8.13177 29.5048 8.11758 29.5326 8.12823C29.5152 8.12113 29.5013 8.11403 29.4839 8.10693C29.4316 8.08209 29.3828 8.05369 29.3341 8.02175C29.2853 7.9898 29.2365 7.95786 29.1912 7.91882C29.1843 7.91527 29.2052 7.92947 29.1843 7.91172C29.1738 7.90107 29.1634 7.89397 29.1494 7.88333C29.1285 7.86558 29.1076 7.84783 29.0867 7.82654C29.0101 7.75555 28.9369 7.68102 28.8708 7.59939C28.8568 7.58164 28.8429 7.5639 28.829 7.54615C28.822 7.5355 28.815 7.5284 28.8081 7.51776C28.7872 7.48936 28.822 7.53905 28.8011 7.51066C28.7767 7.47871 28.7558 7.44677 28.7314 7.41483C28.6966 7.36514 28.6652 7.31545 28.6339 7.26221C28.6269 7.24801 28.6165 7.23382 28.6095 7.21962C28.6025 7.20897 28.599 7.19477 28.6095 7.21962C28.4876 6.91083 28.4353 6.58075 28.4771 6.25067C28.4736 6.27552 28.4806 6.22938 28.4806 6.22228C28.4841 6.20453 28.4876 6.18679 28.4911 6.17259C28.498 6.14065 28.505 6.10516 28.5154 6.07321C28.5224 6.04482 28.5329 6.01288 28.5433 5.98448C28.5503 5.97028 28.5538 5.95254 28.5607 5.93834C28.5642 5.93124 28.5781 5.89575 28.5747 5.9064C28.5677 5.92059 28.5851 5.88155 28.5886 5.87445C28.5956 5.86026 28.6025 5.84606 28.6095 5.83186C28.6234 5.80347 28.6374 5.77863 28.6548 5.75023C28.6827 5.70054 28.7175 5.65085 28.7488 5.60471C28.7628 5.58342 28.7384 5.61891 28.7593 5.59051C28.7697 5.57987 28.7767 5.56567 28.7872 5.55502C28.8046 5.53373 28.8255 5.51243 28.8464 5.48759C28.8847 5.445 28.9265 5.40595 28.9683 5.36691C28.9892 5.34917 29.0066 5.33142 29.0275 5.31722C29.038 5.31012 29.0449 5.30303 29.0554 5.29593C29.0728 5.28173 29.0345 5.31012 29.0519 5.29948C29.0589 5.29593 29.0658 5.28883 29.0693 5.28528C29.1111 5.25334 29.1529 5.22494 29.1947 5.19655C29.2783 5.14331 29.3654 5.09362 29.4525 5.04748C29.4908 5.02973 29.5291 5.01199 29.5709 4.99424C29.6023 4.98004 29.55 5.00489 29.5709 4.99424C29.5779 4.99069 29.5884 4.98714 29.5953 4.98359C29.6127 4.9765 29.6302 4.9694 29.6476 4.9623C29.7381 4.92681 29.8322 4.90196 29.9263 4.87357C29.9297 4.87357 29.9367 4.87002 29.9402 4.87002C30.1248 4.81678 30.0447 4.51864 29.8531 4.56123Z" fill="#FDFDFD"/>
<path d="M29.8531 4.56123C29.6023 4.61802 29.355 4.72805 29.1355 4.85937C28.6966 5.11492 28.3308 5.51243 28.2089 6.02352C28.1288 6.3607 28.1532 6.71563 28.2403 7.04925C28.2821 7.20897 28.3308 7.35094 28.4179 7.48936C28.6513 7.85848 28.9753 8.20276 29.3759 8.38022C29.6511 8.50445 29.9472 8.53639 30.2433 8.47605C30.623 8.39797 30.9608 8.16727 31.243 7.90462C31.3371 7.81589 31.4276 7.72361 31.5112 7.62778C31.4276 7.60649 31.344 7.58164 31.2569 7.56035C31.3336 7.75555 31.4694 7.93302 31.6227 8.06789C31.9885 8.38732 32.4657 8.49025 32.936 8.42991C33.3192 8.38022 33.6849 8.2489 34.0298 8.07854C34.1169 8.03594 34.19 7.97206 34.2562 7.90462C34.5662 7.60294 34.7544 7.19122 34.7857 6.75467C34.8066 6.41749 34.7265 6.08031 34.5976 5.77508C34.514 5.57632 34.4095 5.38821 34.2911 5.21075C34.2005 5.07232 34.0995 4.9765 33.9392 4.92681C33.8417 4.89841 33.7372 4.89841 33.6396 4.9339C33.6954 5.00844 33.7546 5.08652 33.8103 5.16106C33.9706 4.9339 34.0855 4.65351 34.1169 4.37667C34.1447 4.16017 34.0995 3.93657 33.9636 3.7591C33.779 3.51776 33.4759 3.40418 33.1903 3.35449C33.0823 3.33319 32.9569 3.3048 32.8454 3.32255C32.8001 3.32965 32.7514 3.34029 32.7061 3.35094C32.5319 3.40063 32.3333 3.48936 32.2532 3.66682C32.3229 3.64908 32.3926 3.63133 32.4587 3.61004C32.2463 3.47162 31.9954 3.36869 31.7516 3.3119C31.2569 3.19122 30.7449 3.26931 30.3547 3.61713C30.0482 3.89043 29.8636 4.28439 29.7416 4.67481C29.6824 4.86292 29.975 4.94455 30.0342 4.75644C30.1353 4.43701 30.2816 4.12113 30.5115 3.89043C30.602 3.79815 30.6717 3.74491 30.7971 3.68102C30.8076 3.67392 30.8215 3.66682 30.832 3.66327C30.8389 3.65973 30.8703 3.64553 30.8563 3.65263C30.8424 3.65973 30.8807 3.64198 30.8877 3.64198C30.9016 3.63843 30.9156 3.63133 30.9295 3.62778C30.9817 3.61004 31.034 3.59584 31.0863 3.58519C31.1002 3.58164 31.1141 3.58164 31.1281 3.57809C31.142 3.57454 31.1629 3.57454 31.135 3.57809C31.1629 3.57454 31.1908 3.57099 31.2186 3.57099C31.2709 3.56744 31.3196 3.56744 31.3719 3.57099C31.3963 3.57099 31.4207 3.57454 31.4485 3.57454C31.459 3.57454 31.4729 3.57809 31.4834 3.57809C31.4903 3.57809 31.5356 3.58519 31.5147 3.58164C31.4938 3.57809 31.5287 3.58519 31.5321 3.58519C31.5426 3.58519 31.553 3.58874 31.567 3.59229C31.5914 3.59584 31.6192 3.60294 31.6436 3.60649C31.7342 3.62778 31.8213 3.65263 31.9084 3.68457C31.9467 3.69877 31.985 3.71296 32.0198 3.72716C32.0477 3.73781 32.0163 3.72716 32.0198 3.72716C32.0268 3.73071 32.0372 3.73426 32.0442 3.73781C32.0616 3.74491 32.079 3.75201 32.0965 3.76265C32.1731 3.79815 32.2462 3.83719 32.3159 3.88333C32.3786 3.92592 32.4901 3.90107 32.5214 3.82654C32.5389 3.7875 32.5319 3.7946 32.5563 3.76975C32.5772 3.74846 32.5911 3.74136 32.626 3.71651C32.6817 3.68457 32.72 3.67037 32.7897 3.65263C32.8315 3.64198 32.8733 3.63488 32.9186 3.62423C32.922 3.62423 32.9255 3.62423 32.929 3.62423C32.9186 3.62778 32.8733 3.62068 32.9011 3.63133C32.9116 3.63488 32.9255 3.63488 32.936 3.63488C32.9813 3.63843 33.0266 3.64553 33.0718 3.65263C33.1554 3.66682 33.2356 3.68457 33.3157 3.70587C33.3853 3.72716 33.4411 3.74846 33.4899 3.76975C33.5421 3.7946 33.5944 3.82654 33.6396 3.86203C33.6187 3.84784 33.6396 3.86203 33.6466 3.86913C33.6536 3.87623 33.664 3.88333 33.6745 3.89398C33.6919 3.91172 33.7093 3.92947 33.7267 3.94721C33.7511 3.97561 33.7198 3.93302 33.7337 3.95431C33.7407 3.96141 33.7441 3.97206 33.7511 3.98271C33.765 4.00045 33.7755 4.02175 33.7825 4.04304C33.7894 4.05724 33.7964 4.07854 33.7859 4.04659C33.7894 4.05724 33.7929 4.06434 33.7964 4.07499C33.8034 4.09628 33.8103 4.11758 33.8138 4.13887C33.8173 4.15662 33.8243 4.21696 33.8208 4.17082C33.8243 4.19211 33.8243 4.21341 33.8243 4.2347C33.8243 4.27729 33.8208 4.31988 33.8173 4.36603C33.8138 4.39797 33.8208 4.35538 33.8173 4.36603C33.8138 4.37667 33.8138 4.39087 33.8103 4.40152C33.8068 4.42281 33.8034 4.44411 33.7964 4.4654C33.7859 4.50799 33.7755 4.54704 33.7616 4.58963C33.7546 4.60737 33.7511 4.62512 33.7441 4.64287C33.7407 4.65351 33.7372 4.66416 33.7337 4.67481C33.7232 4.7032 33.7337 4.67481 33.7337 4.67481C33.7198 4.7103 33.7023 4.74225 33.6884 4.77774C33.6501 4.85937 33.6048 4.941 33.5526 5.01554C33.4759 5.12201 33.6048 5.28883 33.7232 5.24269C33.7894 5.21784 33.8452 5.22139 33.9009 5.25334C33.9253 5.26398 33.9462 5.27818 33.9671 5.29593C33.9392 5.27463 33.981 5.30658 33.988 5.31367C33.9636 5.28528 34.0193 5.35981 34.0159 5.35626C34.0298 5.37756 34.0437 5.39531 34.0542 5.4166C34.082 5.45919 34.1099 5.50178 34.1343 5.54437C34.1865 5.63311 34.2353 5.72184 34.2771 5.81412C34.406 6.08741 34.4896 6.382 34.4861 6.68013C34.4861 6.815 34.4757 6.88954 34.4408 7.02086C34.4095 7.13799 34.3886 7.19832 34.3433 7.2835C34.3015 7.36514 34.2562 7.44322 34.204 7.51776C34.2005 7.52485 34.1935 7.53195 34.19 7.53905C34.2144 7.50356 34.1935 7.5355 34.19 7.53905C34.1796 7.55325 34.1656 7.57099 34.1517 7.58519C34.1273 7.61358 34.1064 7.63843 34.0786 7.66327C34.0437 7.70232 34.0054 7.73781 33.9636 7.76975C33.9566 7.77685 33.9497 7.7804 33.9427 7.7875C33.9357 7.7946 33.981 7.76265 33.9532 7.7804C33.9462 7.78395 33.9392 7.79105 33.9323 7.79815C33.8138 7.87268 33.671 7.92237 33.5421 7.97206C33.3819 8.0324 33.2147 8.08209 33.0475 8.11403C32.922 8.13887 32.8001 8.14952 32.6678 8.14952C32.612 8.14952 32.5563 8.14597 32.5005 8.13887C32.4971 8.13887 32.4483 8.13177 32.4831 8.13887C32.4692 8.13532 32.4553 8.13532 32.4413 8.13177C32.41 8.12468 32.3786 8.12113 32.3473 8.11403C32.302 8.10338 32.2567 8.08918 32.2114 8.07499C32.1905 8.06789 32.1696 8.06079 32.1487 8.05014C32.1417 8.04659 32.1139 8.03595 32.1452 8.05014C32.1313 8.04304 32.1174 8.03595 32.1034 8.02885C32.0268 7.98981 31.9571 7.94366 31.884 7.89397C31.877 7.88688 31.8561 7.87268 31.8875 7.89752C31.877 7.89043 31.8666 7.87978 31.8561 7.87268C31.8387 7.85848 31.8213 7.84429 31.8073 7.83009C31.7795 7.80524 31.7516 7.77685 31.7272 7.74846C31.7028 7.72361 31.6819 7.69522 31.661 7.66682C31.6959 7.70941 31.661 7.66682 31.6541 7.65618C31.6436 7.64198 31.6366 7.63133 31.6262 7.61713C31.6018 7.58164 31.5774 7.5426 31.56 7.50356C31.5496 7.48226 31.5252 7.42193 31.553 7.49291C31.5147 7.39353 31.3858 7.32965 31.2987 7.42547C31.041 7.71651 30.724 8.00755 30.3687 8.13887C30.299 8.16372 30.2258 8.18501 30.1492 8.19921C30.1353 8.20276 30.1178 8.20276 30.1039 8.20631C30.0795 8.20986 30.1109 8.20631 30.076 8.20986C30.0412 8.21341 30.0064 8.21341 29.975 8.21696C29.9437 8.21696 29.9123 8.21696 29.8845 8.21341C29.867 8.21341 29.8531 8.20986 29.8357 8.20986C29.8287 8.20986 29.8217 8.20986 29.8148 8.20631C29.7869 8.20276 29.8252 8.20631 29.8078 8.20631C29.7486 8.19566 29.6894 8.18146 29.6302 8.16372C29.6023 8.15662 29.5744 8.14597 29.55 8.13532C29.5396 8.13177 29.5048 8.11758 29.5326 8.12823C29.5152 8.12113 29.5013 8.11403 29.4839 8.10693C29.4316 8.08209 29.3828 8.05369 29.3341 8.02175C29.2853 7.9898 29.2365 7.95786 29.1912 7.91882C29.1843 7.91527 29.2052 7.92947 29.1843 7.91172C29.1738 7.90107 29.1634 7.89397 29.1494 7.88333C29.1285 7.86558 29.1076 7.84783 29.0867 7.82654C29.0101 7.75555 28.9369 7.68102 28.8708 7.59939C28.8568 7.58164 28.8429 7.5639 28.829 7.54615C28.822 7.5355 28.815 7.5284 28.8081 7.51776C28.7872 7.48936 28.822 7.53905 28.8011 7.51066C28.7767 7.47871 28.7558 7.44677 28.7314 7.41483C28.6966 7.36514 28.6652 7.31545 28.6339 7.26221C28.6269 7.24801 28.6165 7.23382 28.6095 7.21962C28.6025 7.20897 28.599 7.19477 28.6095 7.21962C28.4876 6.91083 28.4353 6.58075 28.4771 6.25067C28.4736 6.27552 28.4806 6.22938 28.4806 6.22228C28.4841 6.20453 28.4876 6.18679 28.4911 6.17259C28.498 6.14065 28.505 6.10516 28.5154 6.07321C28.5224 6.04482 28.5329 6.01288 28.5433 5.98448C28.5503 5.97028 28.5538 5.95254 28.5607 5.93834C28.5642 5.93124 28.5781 5.89575 28.5747 5.9064C28.5677 5.92059 28.5851 5.88155 28.5886 5.87445C28.5956 5.86026 28.6025 5.84606 28.6095 5.83186C28.6234 5.80347 28.6374 5.77862 28.6548 5.75023C28.6827 5.70054 28.7175 5.65085 28.7488 5.60471C28.7628 5.58342 28.7384 5.61891 28.7593 5.59051C28.7697 5.57987 28.7767 5.56567 28.7872 5.55502C28.8046 5.53373 28.8255 5.51243 28.8464 5.48759C28.8847 5.445 28.9265 5.40595 28.9683 5.36691C28.9892 5.34917 29.0066 5.33142 29.0275 5.31722C29.038 5.31012 29.0449 5.30303 29.0554 5.29593C29.0728 5.28173 29.0345 5.31012 29.0519 5.29948C29.0589 5.29593 29.0658 5.28883 29.0693 5.28528C29.1111 5.25334 29.1529 5.22494 29.1947 5.19655C29.2783 5.14331 29.3654 5.09362 29.4525 5.04748C29.4908 5.02973 29.5291 5.01199 29.5709 4.99424C29.6023 4.98004 29.55 5.00489 29.5709 4.99424C29.5779 4.99069 29.5884 4.98714 29.5953 4.98359C29.6127 4.9765 29.6302 4.9694 29.6476 4.9623C29.7381 4.92681 29.8322 4.90196 29.9263 4.87357C29.9297 4.87357 29.9367 4.87002 29.9402 4.87002C30.1248 4.81678 30.0447 4.51864 29.8531 4.56123Z" stroke="#FDFDFD" stroke-width="0.375" stroke-miterlimit="10"/>
<path d="M30.1045 5.29525C30.094 5.28105 30.087 5.26331 30.0766 5.24911C30.0731 5.24556 30.0592 5.21362 30.0696 5.23491C30.0801 5.25621 30.0661 5.22427 30.0627 5.21717C30.0522 5.19232 30.0452 5.16748 30.0383 5.13908C30.0348 5.12489 30.0313 5.11069 30.0278 5.09294C30.0278 5.08584 30.0243 5.07875 30.0243 5.07165C30.0209 5.061 30.0278 5.10004 30.0243 5.07165C30.0209 5.03616 30.0174 5.00066 30.0209 4.96517C30.0209 4.94387 30.0243 4.92613 30.0243 4.90483C30.0278 4.86934 30.0209 4.92968 30.0243 4.89419C30.0278 4.88354 30.0278 4.87289 30.0313 4.86224C30.0418 4.8161 30.0557 4.76996 30.0731 4.72737C30.0975 4.66703 30.0452 4.5925 29.9825 4.5783C29.9094 4.56411 29.8502 4.5996 29.8223 4.66348C29.7526 4.83385 29.7387 5.01841 29.784 5.19232C29.8014 5.26686 29.8328 5.34494 29.878 5.40883C29.9164 5.46206 29.993 5.49046 30.0557 5.45142C30.1149 5.42657 30.1428 5.35204 30.1045 5.29525Z" fill="#FDFDFD"/>
<path d="M30.1045 5.29525C30.094 5.28105 30.087 5.26331 30.0766 5.24911C30.0731 5.24556 30.0592 5.21362 30.0696 5.23491C30.0801 5.25621 30.0661 5.22427 30.0627 5.21717C30.0522 5.19232 30.0452 5.16748 30.0383 5.13908C30.0348 5.12489 30.0313 5.11069 30.0278 5.09294C30.0278 5.08585 30.0243 5.07875 30.0243 5.07165C30.0209 5.061 30.0278 5.10004 30.0243 5.07165C30.0209 5.03616 30.0174 5.00066 30.0209 4.96517C30.0209 4.94387 30.0243 4.92613 30.0243 4.90483C30.0278 4.86934 30.0209 4.92968 30.0243 4.89419C30.0278 4.88354 30.0278 4.87289 30.0313 4.86224C30.0418 4.8161 30.0557 4.76996 30.0731 4.72737C30.0975 4.66703 30.0452 4.5925 29.9825 4.5783C29.9094 4.56411 29.8502 4.5996 29.8223 4.66348C29.7526 4.83385 29.7387 5.01841 29.784 5.19232C29.8014 5.26686 29.8328 5.34494 29.878 5.40883C29.9164 5.46206 29.993 5.49046 30.0557 5.45142C30.1149 5.42657 30.1428 5.35204 30.1045 5.29525Z" stroke="#FDFDFD" stroke-width="0.375" stroke-miterlimit="10"/>
<path d="M31.5918 7.62045C31.5813 7.60625 31.5744 7.5885 31.5639 7.57431C31.5604 7.57076 31.5465 7.53881 31.5569 7.56011C31.5674 7.5814 31.5535 7.54946 31.55 7.54236C31.5395 7.51752 31.5325 7.49267 31.5256 7.46428C31.5221 7.45008 31.5186 7.43588 31.5151 7.41814C31.5151 7.41104 31.5116 7.40394 31.5116 7.39684C31.5082 7.3862 31.5151 7.42524 31.5116 7.39684C31.5082 7.36135 31.5047 7.32586 31.5082 7.29037C31.5082 7.26907 31.5116 7.25132 31.5116 7.23003C31.5151 7.19454 31.5082 7.25487 31.5116 7.21938C31.5151 7.20873 31.5151 7.19809 31.5186 7.18744C31.5291 7.1413 31.543 7.09516 31.5604 7.05257C31.5848 6.99223 31.5325 6.91769 31.4698 6.9035C31.3967 6.8893 31.3375 6.92479 31.3096 6.98868C31.2399 7.15904 31.226 7.3436 31.2713 7.51752C31.2887 7.59205 31.3201 7.67014 31.3653 7.73402C31.4037 7.78726 31.4803 7.81565 31.543 7.77661C31.6022 7.75532 31.6336 7.67723 31.5918 7.62045Z" fill="#FDFDFD"/>
<path d="M31.5918 7.62045C31.5813 7.60625 31.5744 7.5885 31.5639 7.57431C31.5604 7.57076 31.5465 7.53881 31.5569 7.56011C31.5674 7.5814 31.5535 7.54946 31.55 7.54236C31.5395 7.51752 31.5325 7.49267 31.5256 7.46428C31.5221 7.45008 31.5186 7.43588 31.5151 7.41814C31.5151 7.41104 31.5116 7.40394 31.5116 7.39684C31.5082 7.3862 31.5151 7.42524 31.5116 7.39684C31.5082 7.36135 31.5047 7.32586 31.5082 7.29037C31.5082 7.26907 31.5116 7.25132 31.5116 7.23003C31.5151 7.19454 31.5082 7.25487 31.5116 7.21938C31.5151 7.20873 31.5151 7.19809 31.5186 7.18744C31.5291 7.1413 31.543 7.09516 31.5604 7.05257C31.5848 6.99223 31.5325 6.91769 31.4698 6.9035C31.3967 6.8893 31.3375 6.92479 31.3096 6.98868C31.2399 7.15904 31.226 7.3436 31.2713 7.51752C31.2887 7.59205 31.3201 7.67014 31.3653 7.73402C31.4037 7.78726 31.4803 7.81565 31.543 7.77661C31.6022 7.75532 31.6336 7.67723 31.5918 7.62045Z" stroke="#FDFDFD" stroke-width="0.375" stroke-miterlimit="10"/>
<path d="M31.2403 6.42406C31.3692 6.44891 31.5016 6.456 31.6304 6.456C31.8604 6.45245 32.1112 6.40986 32.3028 6.26789C32.4282 6.17561 32.5152 6.04784 32.564 5.89522C32.6093 5.74261 32.3864 5.67872 32.3376 5.82779C32.3271 5.85973 32.3271 5.85973 32.3132 5.88812C32.2993 5.91652 32.2853 5.94136 32.2679 5.96621C32.2784 5.95201 32.2609 5.97331 32.2575 5.97686C32.247 5.9875 32.24 5.99815 32.2296 6.00525C32.2191 6.0159 32.2122 6.023 32.2017 6.03364C32.1982 6.03719 32.1948 6.04074 32.1878 6.04429C32.1739 6.05849 32.1982 6.03364 32.1843 6.04784C32.146 6.07623 32.0868 6.11173 32.0554 6.12237C32.0241 6.13657 31.9579 6.15787 31.9126 6.16851C31.8882 6.17561 31.8638 6.17916 31.8394 6.18271C31.829 6.18626 31.8185 6.18626 31.8046 6.18981C31.7802 6.19336 31.7976 6.18981 31.8011 6.18981C31.7942 6.18981 31.7872 6.19336 31.7802 6.19336C31.7315 6.20046 31.6792 6.20401 31.6304 6.20401C31.5503 6.20756 31.4667 6.20401 31.3866 6.19336C31.3692 6.19336 31.3518 6.18981 31.3343 6.18626C31.3274 6.18626 31.3204 6.18626 31.3169 6.18271C31.2995 6.17916 31.3483 6.18626 31.3274 6.18271C31.3169 6.18271 31.3065 6.17916 31.296 6.17916C31.2333 6.16851 31.1706 6.19691 31.1532 6.26434C31.1428 6.33178 31.1776 6.41341 31.2403 6.42406Z" fill="#FDFDFD"/>
<path d="M31.2403 6.42406C31.3692 6.44891 31.5016 6.456 31.6304 6.456C31.8604 6.45245 32.1112 6.40986 32.3028 6.26789C32.4282 6.17561 32.5152 6.04784 32.564 5.89522C32.6093 5.74261 32.3864 5.67872 32.3376 5.82779C32.3271 5.85973 32.3271 5.85973 32.3132 5.88812C32.2993 5.91652 32.2853 5.94136 32.2679 5.96621C32.2784 5.95201 32.2609 5.97331 32.2575 5.97686C32.247 5.9875 32.24 5.99815 32.2296 6.00525C32.2191 6.0159 32.2122 6.023 32.2017 6.03364C32.1982 6.03719 32.1948 6.04074 32.1878 6.04429C32.1739 6.05849 32.1982 6.03364 32.1843 6.04784C32.146 6.07623 32.0868 6.11173 32.0554 6.12237C32.0241 6.13657 31.9579 6.15787 31.9126 6.16851C31.8882 6.17561 31.8638 6.17916 31.8394 6.18271C31.829 6.18626 31.8185 6.18626 31.8046 6.18981C31.7802 6.19336 31.7976 6.18981 31.8011 6.18981C31.7942 6.18981 31.7872 6.19336 31.7802 6.19336C31.7315 6.20046 31.6792 6.20401 31.6304 6.20401C31.5503 6.20756 31.4667 6.20401 31.3866 6.19336C31.3692 6.19336 31.3518 6.18981 31.3343 6.18626C31.3274 6.18626 31.3204 6.18626 31.3169 6.18271C31.2995 6.17916 31.3483 6.18626 31.3274 6.18271C31.3169 6.18271 31.3065 6.17916 31.296 6.17916C31.2333 6.16851 31.1706 6.19691 31.1532 6.26434C31.1428 6.33178 31.1776 6.41341 31.2403 6.42406Z" stroke="#FDFDFD" stroke-width="0.375" stroke-miterlimit="10"/>
<path d="M63.7932 18.673C63.7932 18.673 61.6125 19.1557 62.365 21.2355C62.365 21.2355 63.525 23.4999 65.3015 21.4804C65.3015 21.4804 65.8589 22.9108 67.9072 21.885C67.9072 21.885 69.2727 20.9693 67.9977 19.1521C67.9977 19.1521 67.7992 18.9498 67.5832 19.0421C67.5832 19.0421 68.6248 17.5762 66.7925 17.4272C66.7925 17.4272 66.3779 17.4804 66.2908 17.704C66.2908 17.7005 64.4759 16.4902 63.7932 18.673Z" fill="#FDFDFD"/>
<path d="M63.7932 18.673C63.7932 18.673 61.6125 19.1557 62.365 21.2355C62.365 21.2355 63.525 23.4999 65.3015 21.4804C65.3015 21.4804 65.8589 22.9108 67.9072 21.885C67.9072 21.885 69.2727 20.9693 67.9977 19.1521C67.9977 19.1521 67.7992 18.9498 67.5832 19.0421C67.5832 19.0421 68.6248 17.5762 66.7925 17.4272C66.7925 17.4272 66.3779 17.4804 66.2908 17.704C66.2908 17.7005 64.4759 16.4902 63.7932 18.673Z" stroke="#FDFDFD" stroke-width="0.375" stroke-miterlimit="10"/>
<path d="M63.7545 18.5231C63.5037 18.5799 63.2563 18.69 63.0369 18.8213C62.598 19.0768 62.2322 19.4743 62.1103 19.9854C62.0301 20.3226 62.0545 20.6775 62.1416 21.0112C62.1834 21.1709 62.2322 21.3129 62.3193 21.4513C62.5527 21.8204 62.8766 22.1647 63.2772 22.3421C63.5524 22.4664 63.8485 22.4983 64.1446 22.438C64.5243 22.3599 64.8622 22.1292 65.1444 21.8665C65.2384 21.7778 65.329 21.6855 65.4126 21.5897C65.329 21.5684 65.2454 21.5436 65.1583 21.5223C65.2349 21.7175 65.3708 21.8949 65.5241 22.0298C65.8898 22.3492 66.3671 22.4522 66.8373 22.3918C67.2205 22.3421 67.5863 22.2108 67.9312 22.0405C68.0182 21.9979 68.0914 21.934 68.1576 21.8665C68.4676 21.5649 68.6557 21.1531 68.6871 20.7166C68.708 20.3794 68.6279 20.0422 68.499 19.737C68.4154 19.5382 68.3109 19.3501 68.1924 19.1727C68.1018 19.0342 68.0008 18.9384 67.8406 18.8887C67.7431 18.8603 67.6351 18.8603 67.541 18.8958C67.5967 18.9704 67.656 19.0484 67.7117 19.123C67.8719 18.8958 67.9869 18.6154 68.0182 18.3386C68.0461 18.1221 68.0008 17.8985 67.865 17.721C67.6804 17.4797 67.3773 17.3661 67.0916 17.3164C66.9837 17.2951 66.8582 17.2667 66.7468 17.2845C66.7015 17.2916 66.6527 17.3022 66.6074 17.3129C66.4333 17.3625 66.2347 17.4513 66.1546 17.6287C66.2243 17.611 66.2939 17.5932 66.3601 17.5719C66.1476 17.4335 65.8968 17.3306 65.653 17.2738C65.1583 17.1531 64.6462 17.2312 64.2561 17.579C63.9495 17.8523 63.7649 18.2463 63.643 18.6367C63.5838 18.8248 63.8764 18.9065 63.9356 18.7184C64.0366 18.3989 64.1829 18.083 64.4128 17.8523C64.5034 17.7601 64.5731 17.7068 64.6985 17.6429C64.7089 17.6358 64.7229 17.6287 64.7333 17.6252C64.7403 17.6216 64.7716 17.6074 64.7577 17.6145C64.7438 17.6216 64.7821 17.6039 64.7856 17.6039C64.7995 17.6003 64.8134 17.5932 64.8274 17.5897C64.8796 17.572 64.9319 17.5578 64.9841 17.5471C64.9981 17.5436 65.012 17.5436 65.0259 17.54C65.0399 17.5365 65.0608 17.5365 65.0329 17.54C65.0608 17.5365 65.0886 17.5329 65.1165 17.5329C65.1688 17.5294 65.2175 17.5294 65.2698 17.5329C65.2942 17.5329 65.3185 17.5365 65.3464 17.5365C65.3569 17.5365 65.3708 17.54 65.3813 17.54C65.3882 17.54 65.4335 17.5471 65.4126 17.5436C65.3917 17.54 65.4265 17.5471 65.43 17.5471C65.4405 17.5471 65.4509 17.5507 65.4649 17.5542C65.4892 17.5578 65.5171 17.5649 65.5415 17.5684C65.6321 17.5897 65.7192 17.6145 65.8062 17.6465C65.8446 17.6607 65.8829 17.6749 65.9177 17.6891C65.9456 17.6997 65.9142 17.6891 65.9177 17.6891C65.9247 17.6926 65.9316 17.6962 65.9421 17.6997C65.9595 17.7068 65.9769 17.7139 65.9943 17.7246C66.071 17.7601 66.1441 17.7991 66.2138 17.8452C66.2765 17.8878 66.388 17.863 66.4193 17.7885C66.4367 17.7494 66.4333 17.7565 66.4542 17.7317C66.4751 17.7104 66.489 17.7033 66.5238 17.6784C66.5796 17.6465 66.6179 17.6323 66.6876 17.6145C66.7294 17.6039 66.7712 17.5968 66.8164 17.5861C66.8199 17.5861 66.8234 17.5861 66.8269 17.5861C66.8164 17.5897 66.7712 17.5826 66.799 17.5932C66.8095 17.5968 66.8234 17.5968 66.8339 17.5968C66.8791 17.6003 66.9244 17.6074 66.9697 17.6145C67.0533 17.6287 67.1334 17.6465 67.2136 17.6678C67.2832 17.6891 67.339 17.7104 67.3877 17.7317C67.44 17.7565 67.4922 17.7885 67.5375 17.8239C67.5166 17.8098 67.5375 17.8239 67.5445 17.831C67.5515 17.8381 67.5619 17.8452 67.5724 17.8559C67.5898 17.8736 67.6072 17.8914 67.6246 17.9091C67.649 17.9375 67.6176 17.8949 67.6316 17.9162C67.6385 17.9233 67.642 17.934 67.649 17.9446C67.6629 17.9624 67.6734 17.9837 67.6803 18.005C67.6873 18.0192 67.6943 18.0405 67.6838 18.0085C67.6873 18.0192 67.6908 18.0263 67.6943 18.0369C67.7013 18.0582 67.7082 18.0795 67.7117 18.1008C67.7152 18.1185 67.7221 18.1789 67.7187 18.1327C67.7221 18.154 67.7222 18.1753 67.7222 18.1966C67.7222 18.2392 67.7187 18.2818 67.7152 18.3279C67.7117 18.3599 67.7187 18.3173 67.7152 18.3279C67.7117 18.3386 67.7117 18.3528 67.7082 18.3634C67.7047 18.3847 67.7013 18.406 67.6943 18.4273C67.6838 18.4699 67.6734 18.509 67.6594 18.5515C67.6525 18.5693 67.649 18.587 67.642 18.6048C67.6385 18.6154 67.6351 18.6261 67.6316 18.6367C67.6211 18.6651 67.6316 18.6367 67.6316 18.6367C67.6176 18.6722 67.6002 18.7042 67.5863 18.7397C67.548 18.8213 67.5027 18.9029 67.4504 18.9775C67.3738 19.0839 67.5027 19.2507 67.6211 19.2046C67.6873 19.1798 67.7431 19.1833 67.7988 19.2153C67.8232 19.2259 67.8441 19.2401 67.865 19.2578C67.8371 19.2365 67.8789 19.2685 67.8859 19.2756C67.8615 19.2472 67.9172 19.3217 67.9137 19.3182C67.9277 19.3395 67.9416 19.3572 67.9521 19.3785C67.9799 19.4211 68.0078 19.4637 68.0322 19.5063C68.0844 19.595 68.1332 19.6838 68.1785 19.776C68.3074 20.0493 68.391 20.3439 68.3875 20.642C68.3875 20.7769 68.377 20.8515 68.3422 20.9828C68.3109 21.0999 68.29 21.1602 68.2447 21.2454C68.2029 21.3271 68.1576 21.4051 68.1053 21.4797C68.0984 21.4868 68.0949 21.4939 68.0914 21.501C68.1158 21.4655 68.0949 21.4974 68.0914 21.501C68.0809 21.5152 68.067 21.5329 68.0531 21.5471C68.0287 21.5755 68.0078 21.6003 67.9799 21.6252C67.9451 21.6642 67.9068 21.6997 67.865 21.7317C67.858 21.7388 67.8476 21.7423 67.8406 21.7494C67.8336 21.7565 67.8789 21.7246 67.851 21.7423C67.8441 21.7459 67.8371 21.753 67.8301 21.7601C67.7117 21.8346 67.5689 21.8843 67.44 21.934C67.2798 21.9943 67.1125 22.044 66.9453 22.0759C66.8199 22.1008 66.698 22.1114 66.5656 22.1114C66.5099 22.1114 66.4542 22.1079 66.3984 22.1008C66.3949 22.1008 66.3462 22.0937 66.381 22.1008C66.3671 22.0972 66.3531 22.0972 66.3392 22.0937C66.3079 22.0866 66.2765 22.083 66.2452 22.0759C66.1999 22.0653 66.1546 22.0511 66.1093 22.0369C66.0884 22.0298 66.0675 22.0227 66.0466 22.0121C66.0396 22.0085 66.0118 21.9979 66.0431 22.0121C66.0292 22.005 66.0152 21.9979 66.0013 21.9908C65.9247 21.9517 65.855 21.9056 65.7819 21.8559C65.7749 21.8488 65.754 21.8346 65.7853 21.8594C65.7749 21.8523 65.7644 21.8417 65.754 21.8346C65.7366 21.8204 65.7191 21.8062 65.7052 21.792C65.6773 21.7672 65.6495 21.7388 65.6251 21.7104C65.6007 21.6855 65.5798 21.6571 65.5589 21.6287C65.5937 21.6713 65.5589 21.6287 65.5519 21.6181C65.5415 21.6039 65.5345 21.5932 65.5241 21.579C65.4997 21.5436 65.4788 21.5045 65.4579 21.4655C65.4474 21.4442 65.4231 21.3838 65.4509 21.4548C65.4126 21.3554 65.2837 21.2916 65.1966 21.3874C64.9389 21.6784 64.6219 21.9695 64.2665 22.1008C64.1969 22.1256 64.1237 22.1469 64.0471 22.1611C64.0331 22.1647 64.0157 22.1647 64.0018 22.1682C63.9774 22.1718 64.0088 22.1682 63.9739 22.1718C63.9391 22.1753 63.9043 22.1753 63.8729 22.1789C63.8416 22.1789 63.8102 22.1789 63.7823 22.1753C63.7649 22.1753 63.751 22.1718 63.7336 22.1718C63.7266 22.1718 63.7196 22.1718 63.7127 22.1682C63.6848 22.1647 63.7231 22.1682 63.7057 22.1682C63.6465 22.1576 63.5873 22.1434 63.528 22.1256C63.5002 22.1185 63.4723 22.1079 63.4479 22.0972C63.441 22.0937 63.4026 22.0795 63.4305 22.0901C63.4131 22.083 63.3992 22.0759 63.3817 22.0688C63.3295 22.044 63.2807 22.0156 63.2319 21.9837C63.1832 21.9517 63.1344 21.9198 63.0891 21.8807C63.0822 21.8772 63.1031 21.8914 63.0822 21.8736C63.0717 21.863 63.0613 21.8559 63.0473 21.8452C63.0264 21.8275 63.0055 21.8097 62.9846 21.7885C62.908 21.7175 62.8348 21.6429 62.7686 21.5613C62.7547 21.5436 62.7408 21.5258 62.7268 21.5081C62.7199 21.4974 62.7129 21.4903 62.7059 21.4797C62.685 21.4513 62.7199 21.501 62.699 21.4726C62.6746 21.4406 62.6537 21.4087 62.6293 21.3767C62.5945 21.3271 62.5631 21.2774 62.5318 21.2241C62.5248 21.2099 62.5144 21.1957 62.5074 21.1815C62.5004 21.1709 62.4969 21.1567 62.5074 21.1815C62.3855 20.8727 62.3332 20.5427 62.375 20.2126C62.3715 20.2374 62.3785 20.1913 62.3785 20.1842C62.382 20.1664 62.3855 20.1487 62.3889 20.1345C62.3959 20.1026 62.4029 20.0671 62.4133 20.0351C62.4203 20.0067 62.4307 19.9748 62.4412 19.9464C62.4447 19.9322 62.4516 19.9145 62.4586 19.9003C62.4621 19.8932 62.476 19.8577 62.4725 19.8683C62.4656 19.8825 62.483 19.8435 62.4865 19.8364C62.4935 19.8222 62.5004 19.808 62.5074 19.7938C62.5213 19.7654 62.5353 19.7405 62.5527 19.7121C62.5805 19.6625 62.6154 19.6128 62.6467 19.5666C62.6607 19.5453 62.6363 19.5808 62.6572 19.5524C62.6676 19.5418 62.6746 19.5276 62.685 19.5169C62.7025 19.4956 62.7234 19.4743 62.7443 19.4495C62.7826 19.4069 62.8244 19.3679 62.8662 19.3288C62.8871 19.3111 62.9045 19.2933 62.9254 19.2791C62.9359 19.272 62.9428 19.2649 62.9533 19.2578C62.9707 19.2436 62.9324 19.272 62.9498 19.2614C62.9568 19.2578 62.9637 19.2507 62.9672 19.2472C63.009 19.2153 63.0508 19.1869 63.0926 19.1585C63.1762 19.1052 63.2633 19.0555 63.3504 19.0094C63.3887 18.9916 63.427 18.9739 63.4688 18.9562C63.5002 18.942 63.4444 18.9668 63.4688 18.9562C63.4758 18.9526 63.4862 18.9491 63.4932 18.9455C63.5106 18.9384 63.528 18.9313 63.5455 18.9242C63.636 18.8887 63.7301 18.8639 63.8241 18.8355C63.8276 18.8355 63.8346 18.8319 63.8381 18.8319C64.0262 18.7787 63.9461 18.4806 63.7545 18.5231Z" fill="#FDFDFD"/>
<path d="M63.7545 18.5231C63.5037 18.5799 63.2563 18.69 63.0369 18.8213C62.598 19.0768 62.2322 19.4743 62.1103 19.9854C62.0301 20.3226 62.0545 20.6775 62.1416 21.0112C62.1834 21.1709 62.2322 21.3129 62.3193 21.4513C62.5527 21.8204 62.8766 22.1647 63.2772 22.3421C63.5524 22.4664 63.8485 22.4983 64.1446 22.438C64.5243 22.3599 64.8622 22.1292 65.1444 21.8665C65.2384 21.7778 65.329 21.6855 65.4126 21.5897C65.329 21.5684 65.2454 21.5436 65.1583 21.5223C65.2349 21.7175 65.3708 21.8949 65.5241 22.0298C65.8898 22.3492 66.3671 22.4522 66.8373 22.3918C67.2205 22.3421 67.5863 22.2108 67.9312 22.0404C68.0182 21.9979 68.0914 21.934 68.1576 21.8665C68.4676 21.5649 68.6557 21.1531 68.6871 20.7166C68.708 20.3794 68.6279 20.0422 68.499 19.737C68.4154 19.5382 68.3109 19.3501 68.1924 19.1727C68.1018 19.0342 68.0008 18.9384 67.8406 18.8887C67.7431 18.8603 67.6351 18.8603 67.541 18.8958C67.5967 18.9704 67.656 19.0484 67.7117 19.123C67.8719 18.8958 67.9869 18.6154 68.0182 18.3386C68.0461 18.1221 68.0008 17.8985 67.865 17.721C67.6804 17.4797 67.3773 17.3661 67.0916 17.3164C66.9837 17.2951 66.8582 17.2667 66.7468 17.2845C66.7015 17.2916 66.6527 17.3022 66.6074 17.3129C66.4333 17.3625 66.2347 17.4513 66.1546 17.6287C66.2243 17.611 66.2939 17.5932 66.3601 17.5719C66.1476 17.4335 65.8968 17.3306 65.653 17.2738C65.1583 17.1531 64.6462 17.2312 64.2561 17.579C63.9495 17.8523 63.7649 18.2463 63.643 18.6367C63.5838 18.8248 63.8764 18.9065 63.9356 18.7184C64.0366 18.3989 64.1829 18.083 64.4128 17.8523C64.5034 17.7601 64.5731 17.7068 64.6985 17.6429C64.7089 17.6358 64.7229 17.6287 64.7333 17.6252C64.7403 17.6216 64.7716 17.6074 64.7577 17.6145C64.7438 17.6216 64.7821 17.6039 64.7856 17.6039C64.7995 17.6003 64.8134 17.5932 64.8274 17.5897C64.8796 17.572 64.9319 17.5578 64.9841 17.5471C64.9981 17.5436 65.012 17.5436 65.0259 17.54C65.0399 17.5365 65.0608 17.5365 65.0329 17.54C65.0608 17.5365 65.0886 17.5329 65.1165 17.5329C65.1688 17.5294 65.2175 17.5294 65.2698 17.5329C65.2942 17.5329 65.3185 17.5365 65.3464 17.5365C65.3569 17.5365 65.3708 17.54 65.3813 17.54C65.3882 17.54 65.4335 17.5471 65.4126 17.5436C65.3917 17.54 65.4265 17.5471 65.43 17.5471C65.4405 17.5471 65.4509 17.5507 65.4649 17.5542C65.4892 17.5578 65.5171 17.5649 65.5415 17.5684C65.6321 17.5897 65.7192 17.6145 65.8062 17.6465C65.8446 17.6607 65.8829 17.6749 65.9177 17.6891C65.9456 17.6997 65.9142 17.6891 65.9177 17.6891C65.9247 17.6926 65.9316 17.6962 65.9421 17.6997C65.9595 17.7068 65.9769 17.7139 65.9943 17.7246C66.071 17.7601 66.1441 17.7991 66.2138 17.8452C66.2765 17.8878 66.388 17.863 66.4193 17.7885C66.4367 17.7494 66.4333 17.7565 66.4542 17.7317C66.4751 17.7104 66.489 17.7033 66.5238 17.6784C66.5796 17.6465 66.6179 17.6323 66.6876 17.6145C66.7294 17.6039 66.7712 17.5968 66.8164 17.5861C66.8199 17.5861 66.8234 17.5861 66.8269 17.5861C66.8164 17.5897 66.7712 17.5826 66.799 17.5932C66.8095 17.5968 66.8234 17.5968 66.8339 17.5968C66.8791 17.6003 66.9244 17.6074 66.9697 17.6145C67.0533 17.6287 67.1334 17.6465 67.2136 17.6678C67.2832 17.6891 67.339 17.7104 67.3877 17.7317C67.44 17.7565 67.4922 17.7885 67.5375 17.8239C67.5166 17.8098 67.5375 17.8239 67.5445 17.831C67.5515 17.8381 67.5619 17.8452 67.5724 17.8559C67.5898 17.8736 67.6072 17.8914 67.6246 17.9091C67.649 17.9375 67.6176 17.8949 67.6316 17.9162C67.6385 17.9233 67.642 17.934 67.649 17.9446C67.6629 17.9624 67.6734 17.9837 67.6803 18.005C67.6873 18.0192 67.6943 18.0405 67.6838 18.0085C67.6873 18.0192 67.6908 18.0263 67.6943 18.0369C67.7013 18.0582 67.7082 18.0795 67.7117 18.1008C67.7152 18.1185 67.7221 18.1789 67.7187 18.1327C67.7221 18.154 67.7222 18.1753 67.7222 18.1966C67.7222 18.2392 67.7187 18.2818 67.7152 18.3279C67.7117 18.3599 67.7187 18.3173 67.7152 18.3279C67.7117 18.3386 67.7117 18.3528 67.7082 18.3634C67.7047 18.3847 67.7013 18.406 67.6943 18.4273C67.6838 18.4699 67.6734 18.509 67.6594 18.5515C67.6525 18.5693 67.649 18.587 67.642 18.6048C67.6385 18.6154 67.6351 18.6261 67.6316 18.6367C67.6211 18.6651 67.6316 18.6367 67.6316 18.6367C67.6176 18.6722 67.6002 18.7042 67.5863 18.7397C67.548 18.8213 67.5027 18.9029 67.4504 18.9775C67.3738 19.0839 67.5027 19.2507 67.6211 19.2046C67.6873 19.1798 67.7431 19.1833 67.7988 19.2153C67.8232 19.2259 67.8441 19.2401 67.865 19.2578C67.8371 19.2365 67.8789 19.2685 67.8859 19.2756C67.8615 19.2472 67.9172 19.3217 67.9137 19.3182C67.9277 19.3395 67.9416 19.3572 67.9521 19.3785C67.9799 19.4211 68.0078 19.4637 68.0322 19.5063C68.0844 19.595 68.1332 19.6838 68.1785 19.776C68.3074 20.0493 68.391 20.3439 68.3875 20.642C68.3875 20.7769 68.377 20.8515 68.3422 20.9828C68.3109 21.0999 68.29 21.1602 68.2447 21.2454C68.2029 21.3271 68.1576 21.4051 68.1053 21.4797C68.0984 21.4868 68.0949 21.4939 68.0914 21.501C68.1158 21.4655 68.0949 21.4974 68.0914 21.501C68.0809 21.5152 68.067 21.5329 68.0531 21.5471C68.0287 21.5755 68.0078 21.6003 67.9799 21.6252C67.9451 21.6642 67.9068 21.6997 67.865 21.7317C67.858 21.7388 67.8476 21.7423 67.8406 21.7494C67.8336 21.7565 67.8789 21.7246 67.851 21.7423C67.8441 21.7459 67.8371 21.753 67.8301 21.7601C67.7117 21.8346 67.5689 21.8843 67.44 21.934C67.2798 21.9943 67.1125 22.044 66.9453 22.0759C66.8199 22.1008 66.698 22.1114 66.5656 22.1114C66.5099 22.1114 66.4542 22.1079 66.3984 22.1008C66.3949 22.1008 66.3462 22.0937 66.381 22.1008C66.3671 22.0972 66.3531 22.0972 66.3392 22.0937C66.3079 22.0866 66.2765 22.083 66.2452 22.0759C66.1999 22.0653 66.1546 22.0511 66.1093 22.0369C66.0884 22.0298 66.0675 22.0227 66.0466 22.0121C66.0396 22.0085 66.0118 21.9979 66.0431 22.0121C66.0292 22.005 66.0152 21.9979 66.0013 21.9908C65.9247 21.9517 65.855 21.9056 65.7819 21.8559C65.7749 21.8488 65.754 21.8346 65.7853 21.8594C65.7749 21.8523 65.7644 21.8417 65.754 21.8346C65.7366 21.8204 65.7191 21.8062 65.7052 21.792C65.6773 21.7672 65.6495 21.7388 65.6251 21.7104C65.6007 21.6855 65.5798 21.6571 65.5589 21.6287C65.5937 21.6713 65.5589 21.6287 65.5519 21.6181C65.5415 21.6039 65.5345 21.5932 65.5241 21.579C65.4997 21.5436 65.4788 21.5045 65.4579 21.4655C65.4474 21.4442 65.4231 21.3838 65.4509 21.4548C65.4126 21.3554 65.2837 21.2916 65.1966 21.3874C64.9389 21.6784 64.6219 21.9695 64.2665 22.1008C64.1969 22.1256 64.1237 22.1469 64.0471 22.1611C64.0331 22.1647 64.0157 22.1647 64.0018 22.1682C63.9774 22.1718 64.0088 22.1682 63.9739 22.1718C63.9391 22.1753 63.9043 22.1753 63.8729 22.1789C63.8416 22.1789 63.8102 22.1789 63.7823 22.1753C63.7649 22.1753 63.751 22.1718 63.7336 22.1718C63.7266 22.1718 63.7196 22.1718 63.7127 22.1682C63.6848 22.1647 63.7231 22.1682 63.7057 22.1682C63.6465 22.1576 63.5873 22.1434 63.528 22.1256C63.5002 22.1185 63.4723 22.1079 63.4479 22.0972C63.441 22.0937 63.4026 22.0795 63.4305 22.0901C63.4131 22.083 63.3992 22.0759 63.3817 22.0688C63.3295 22.044 63.2807 22.0156 63.2319 21.9837C63.1832 21.9517 63.1344 21.9198 63.0891 21.8807C63.0822 21.8772 63.1031 21.8914 63.0822 21.8736C63.0717 21.863 63.0613 21.8559 63.0473 21.8452C63.0264 21.8275 63.0055 21.8097 62.9846 21.7885C62.908 21.7175 62.8348 21.6429 62.7686 21.5613C62.7547 21.5436 62.7408 21.5258 62.7268 21.5081C62.7199 21.4974 62.7129 21.4903 62.7059 21.4797C62.685 21.4513 62.7199 21.501 62.699 21.4726C62.6746 21.4406 62.6537 21.4087 62.6293 21.3767C62.5945 21.3271 62.5631 21.2774 62.5318 21.2241C62.5248 21.2099 62.5144 21.1957 62.5074 21.1815C62.5004 21.1709 62.4969 21.1567 62.5074 21.1815C62.3855 20.8727 62.3332 20.5427 62.375 20.2126C62.3715 20.2374 62.3785 20.1913 62.3785 20.1842C62.382 20.1664 62.3855 20.1487 62.3889 20.1345C62.3959 20.1026 62.4029 20.0671 62.4133 20.0351C62.4203 20.0067 62.4307 19.9748 62.4412 19.9464C62.4447 19.9322 62.4516 19.9145 62.4586 19.9003C62.4621 19.8932 62.476 19.8577 62.4725 19.8683C62.4656 19.8825 62.483 19.8435 62.4865 19.8364C62.4935 19.8222 62.5004 19.808 62.5074 19.7938C62.5213 19.7654 62.5353 19.7405 62.5527 19.7121C62.5805 19.6625 62.6154 19.6128 62.6467 19.5666C62.6607 19.5453 62.6363 19.5808 62.6572 19.5524C62.6676 19.5418 62.6746 19.5276 62.685 19.5169C62.7025 19.4956 62.7234 19.4743 62.7443 19.4495C62.7826 19.4069 62.8244 19.3679 62.8662 19.3288C62.8871 19.3111 62.9045 19.2933 62.9254 19.2791C62.9359 19.272 62.9428 19.2649 62.9533 19.2578C62.9707 19.2436 62.9324 19.272 62.9498 19.2614C62.9568 19.2578 62.9637 19.2507 62.9672 19.2472C63.009 19.2153 63.0508 19.1869 63.0926 19.1585C63.1762 19.1052 63.2633 19.0555 63.3504 19.0094C63.3887 18.9916 63.427 18.9739 63.4688 18.9562C63.5002 18.942 63.4444 18.9668 63.4688 18.9562C63.4758 18.9526 63.4862 18.9491 63.4932 18.9455C63.5106 18.9384 63.528 18.9313 63.5455 18.9242C63.636 18.8887 63.7301 18.8639 63.8241 18.8355C63.8276 18.8355 63.8346 18.8319 63.8381 18.8319C64.0262 18.7787 63.9461 18.4806 63.7545 18.5231Z" stroke="#FDFDFD" stroke-width="0.375" stroke-miterlimit="10"/>
<path d="M64.0058 19.2581C63.9954 19.2439 63.9884 19.2262 63.978 19.212C63.9745 19.2085 63.9605 19.1765 63.971 19.1978C63.9814 19.2191 63.9675 19.1872 63.964 19.1801C63.9536 19.1552 63.9466 19.1304 63.9396 19.102C63.9362 19.0878 63.9327 19.0736 63.9292 19.0558C63.9292 19.0487 63.9257 19.0416 63.9257 19.0345C63.9222 19.0239 63.9292 19.0629 63.9257 19.0345C63.9222 18.999 63.9187 18.9636 63.9222 18.9281C63.9222 18.9068 63.9257 18.889 63.9257 18.8677C63.9292 18.8322 63.9187 18.8926 63.9257 18.8571C63.9292 18.8464 63.9292 18.8358 63.9327 18.8251C63.9431 18.779 63.9571 18.7329 63.9745 18.6903C63.9989 18.6299 63.9466 18.5554 63.8839 18.5412C63.8108 18.527 63.7515 18.5625 63.7237 18.6264C63.654 18.7967 63.6401 18.9813 63.6854 19.1552C63.7028 19.2297 63.7341 19.3078 63.7794 19.3717C63.8177 19.425 63.8944 19.4533 63.9571 19.4143C64.0128 19.3895 64.0441 19.3149 64.0058 19.2581Z" fill="#FDFDFD"/>
<path d="M64.0058 19.2581C63.9954 19.2439 63.9884 19.2262 63.978 19.212C63.9745 19.2085 63.9605 19.1765 63.971 19.1978C63.9814 19.2191 63.9675 19.1872 63.964 19.1801C63.9536 19.1552 63.9466 19.1304 63.9396 19.102C63.9362 19.0878 63.9327 19.0736 63.9292 19.0558C63.9292 19.0487 63.9257 19.0416 63.9257 19.0345C63.9222 19.0239 63.9292 19.0629 63.9257 19.0345C63.9222 18.999 63.9187 18.9636 63.9222 18.9281C63.9222 18.9068 63.9257 18.889 63.9257 18.8677C63.9292 18.8322 63.9187 18.8926 63.9257 18.8571C63.9292 18.8464 63.9292 18.8358 63.9327 18.8251C63.9431 18.779 63.9571 18.7329 63.9745 18.6903C63.9989 18.6299 63.9466 18.5554 63.8839 18.5412C63.8108 18.527 63.7515 18.5625 63.7237 18.6264C63.654 18.7967 63.6401 18.9813 63.6854 19.1552C63.7028 19.2297 63.7341 19.3078 63.7794 19.3717C63.8177 19.425 63.8944 19.4533 63.9571 19.4143C64.0128 19.3895 64.0441 19.3149 64.0058 19.2581Z" stroke="#FDFDFD" stroke-width="0.375" stroke-miterlimit="10"/>
<path d="M65.4931 21.5833C65.4827 21.5691 65.4757 21.5514 65.4653 21.5372C65.4618 21.5336 65.4479 21.5017 65.4583 21.523C65.4688 21.5443 65.4548 21.5124 65.4513 21.5053C65.4409 21.4804 65.4339 21.4556 65.427 21.4272C65.4235 21.413 65.42 21.3988 65.4165 21.381C65.4165 21.3739 65.413 21.3668 65.413 21.3597C65.4095 21.3491 65.4165 21.3881 65.413 21.3597C65.4095 21.3242 65.4061 21.2887 65.4095 21.2533C65.4095 21.232 65.413 21.2142 65.413 21.1929C65.4165 21.1574 65.4095 21.2178 65.413 21.1823C65.4165 21.1716 65.4165 21.161 65.42 21.1503C65.4304 21.1042 65.4444 21.058 65.4618 21.0155C65.4862 20.9551 65.4339 20.8806 65.3712 20.8664C65.2981 20.8522 65.2388 20.8877 65.211 20.9516C65.1413 21.1219 65.1274 21.3065 65.1727 21.4804C65.1901 21.5549 65.2214 21.633 65.2667 21.6969C65.305 21.7502 65.3817 21.7785 65.4444 21.7395C65.5036 21.7147 65.5349 21.6401 65.4931 21.5833Z" fill="#FDFDFD"/>
<path d="M65.4931 21.5833C65.4827 21.5691 65.4757 21.5514 65.4653 21.5372C65.4618 21.5336 65.4479 21.5017 65.4583 21.523C65.4688 21.5443 65.4548 21.5124 65.4513 21.5053C65.4409 21.4804 65.4339 21.4556 65.427 21.4272C65.4235 21.413 65.42 21.3988 65.4165 21.381C65.4165 21.3739 65.413 21.3668 65.413 21.3597C65.4095 21.3491 65.4165 21.3881 65.413 21.3597C65.4095 21.3242 65.4061 21.2887 65.4095 21.2533C65.4095 21.232 65.413 21.2142 65.413 21.1929C65.4165 21.1574 65.4095 21.2178 65.413 21.1823C65.4165 21.1716 65.4165 21.161 65.42 21.1503C65.4304 21.1042 65.4444 21.058 65.4618 21.0155C65.4862 20.9551 65.4339 20.8806 65.3712 20.8664C65.2981 20.8522 65.2388 20.8877 65.211 20.9516C65.1413 21.1219 65.1274 21.3065 65.1727 21.4804C65.1901 21.5549 65.2214 21.633 65.2667 21.6969C65.305 21.7502 65.3817 21.7785 65.4444 21.7395C65.5036 21.7147 65.5349 21.6401 65.4931 21.5833Z" stroke="#FDFDFD" stroke-width="0.375" stroke-miterlimit="10"/>
<path d="M65.1407 20.387C65.2696 20.4118 65.4019 20.4189 65.5308 20.4189C65.7607 20.4153 66.0116 20.3728 66.2031 20.2308C66.3285 20.1385 66.4156 20.0107 66.4644 19.8581C66.5097 19.7055 66.2867 19.6416 66.238 19.7907C66.2275 19.8226 66.2275 19.8226 66.2136 19.851C66.1997 19.8794 66.1857 19.9043 66.1683 19.9291C66.1788 19.9149 66.1613 19.9362 66.1579 19.9397C66.1474 19.9504 66.1404 19.961 66.13 19.9681C66.1195 19.9788 66.1126 19.9859 66.1021 19.9965C66.0986 20.0001 66.0952 20.0036 66.0882 20.0072C66.0743 20.0214 66.0986 19.9965 66.0847 20.0107C66.0464 20.0391 65.9872 20.0746 65.9558 20.0853C65.9245 20.0995 65.8583 20.1208 65.813 20.1314C65.7886 20.1385 65.7642 20.1421 65.7398 20.1456C65.7294 20.1492 65.7189 20.1492 65.705 20.1527C65.6806 20.1563 65.698 20.1527 65.7015 20.1527C65.6946 20.1527 65.6876 20.1563 65.6806 20.1563C65.6319 20.1633 65.5796 20.1669 65.5308 20.1669C65.4507 20.1704 65.3671 20.1669 65.287 20.1563C65.2696 20.1563 65.2522 20.1527 65.2347 20.1492C65.2278 20.1492 65.2208 20.1492 65.2173 20.1456C65.1999 20.1421 65.2487 20.1492 65.2278 20.1456C65.2173 20.1456 65.2069 20.1421 65.1964 20.1421C65.1337 20.1314 65.071 20.1598 65.0536 20.2272C65.0431 20.2947 65.078 20.3728 65.1407 20.387Z" fill="#FDFDFD"/>
<path d="M65.1407 20.387C65.2696 20.4118 65.4019 20.4189 65.5308 20.4189C65.7607 20.4153 66.0116 20.3728 66.2031 20.2308C66.3285 20.1385 66.4156 20.0107 66.4644 19.8581C66.5097 19.7055 66.2867 19.6416 66.238 19.7907C66.2275 19.8226 66.2275 19.8226 66.2136 19.851C66.1997 19.8794 66.1857 19.9043 66.1683 19.9291C66.1788 19.9149 66.1613 19.9362 66.1579 19.9397C66.1474 19.9504 66.1404 19.961 66.13 19.9681C66.1195 19.9788 66.1126 19.9859 66.1021 19.9965C66.0986 20.0001 66.0952 20.0036 66.0882 20.0072C66.0743 20.0214 66.0986 19.9965 66.0847 20.0107C66.0464 20.0391 65.9872 20.0746 65.9558 20.0853C65.9245 20.0995 65.8583 20.1208 65.813 20.1314C65.7886 20.1385 65.7642 20.1421 65.7398 20.1456C65.7294 20.1492 65.7189 20.1492 65.705 20.1527C65.6806 20.1563 65.698 20.1527 65.7015 20.1527C65.6946 20.1527 65.6876 20.1563 65.6806 20.1563C65.6319 20.1633 65.5796 20.1669 65.5308 20.1669C65.4507 20.1704 65.3671 20.1669 65.287 20.1563C65.2696 20.1563 65.2522 20.1527 65.2347 20.1492C65.2278 20.1492 65.2208 20.1492 65.2173 20.1456C65.1999 20.1421 65.2487 20.1492 65.2278 20.1456C65.2173 20.1456 65.2069 20.1421 65.1964 20.1421C65.1337 20.1314 65.071 20.1598 65.0536 20.2272C65.0431 20.2947 65.078 20.3728 65.1407 20.387Z" stroke="#FDFDFD" stroke-width="0.375" stroke-miterlimit="10"/>
<path d="M68.2763 26.1761H69.499V27.759H70.774V23.4573H69.499V25.0758H68.2763V23.4573H67.0013V27.759H68.2763V26.1761ZM63.2183 27.2089C63.6398 27.6206 64.1937 27.83 64.8764 27.83C65.2979 27.83 65.6707 27.7484 65.9911 27.5887C66.1131 27.5283 66.228 27.4573 66.3395 27.3793C66.4893 27.2657 66.5833 27.1876 66.6182 27.1379L66.0399 26.1619L65.9284 26.2896C65.8483 26.3713 65.7229 26.4529 65.5453 26.5345C65.3676 26.6197 65.1795 26.6623 64.9774 26.6623C64.6326 26.6623 64.3609 26.5594 64.1693 26.35C63.9812 26.1406 63.8871 25.8886 63.8871 25.5904C63.8871 25.2923 63.9812 25.0474 64.1693 24.8522C64.3574 24.6534 64.6291 24.5505 64.9774 24.5505C65.1621 24.5505 65.3397 24.5896 65.5139 24.6641C65.695 24.7457 65.8135 24.8061 65.8692 24.8451C65.9215 24.8806 65.9668 24.9196 66.0051 24.9587L66.4997 23.9613L66.4335 23.901C66.3465 23.8123 66.1758 23.7093 65.9215 23.5887C65.6393 23.4538 65.291 23.3828 64.8834 23.3828C64.2146 23.3828 63.6642 23.5922 63.2322 24.0146C62.8038 24.4369 62.5878 24.9658 62.5878 25.6082C62.5878 26.2613 62.7968 26.7936 63.2183 27.2089ZM61.2014 24.5647H62.4589V23.4573H58.6758V24.5647H59.9334V27.759H61.2014V24.5647ZM56.9968 24.5505H57.0212L57.1745 25.3207L57.3695 26.0199H56.645L56.84 25.3207C56.8888 25.1468 56.9411 24.8877 56.9968 24.5505ZM56.3837 26.964H57.6308L57.8537 27.759H59.0869L57.6935 23.4573H56.3245L54.9311 27.759H56.1642L56.3837 26.964ZM52.0955 25.6827C52.1443 25.452 52.1757 25.2497 52.1896 25.0794H52.207L52.214 25.1716C52.2488 25.4201 52.2802 25.5904 52.3011 25.6756L52.7922 27.7555H54.1369L55.2063 23.4538H53.9731L53.4959 25.8105C53.4576 25.9951 53.4367 26.1796 53.4297 26.3642H53.4053L53.3949 26.2861C53.3879 26.137 53.36 25.9809 53.3182 25.8105L52.7679 23.4538H51.6531L51.0749 25.8105C51.0331 25.988 51.0052 26.1725 50.9913 26.3642H50.9669L50.8972 25.8105L50.4792 23.4538H49.2217L50.2493 27.7555H51.6079L52.0955 25.6827Z" fill="#FDFDFD"/>
</svg>
