<?xml version="1.0" encoding="utf-8"?>
<!-- Generator: Adobe Illustrator 26.5.0, SVG Export Plug-In . SVG Version: 6.00 Build 0)  -->
<svg version="1.1" id="Layer_1" xmlns="http://www.w3.org/2000/svg" xmlns:xlink="http://www.w3.org/1999/xlink" x="0px" y="0px"
	 viewBox="0 0 50.43 48.42" style="enable-background:new 0 0 50.43 48.42;" xml:space="preserve">
<style type="text/css">
	.st0{fill:#666666;}
	.st1{fill:#FFFFFF;}
	.st2{fill:#FF0000;}
	.st3{fill:none;stroke:#FF0000;stroke-width:0.375;stroke-miterlimit:10;}
</style>
<path class="st0" d="M49.51,24.33c0,13.3-10.78,24.08-24.08,24.08S1.35,37.63,1.35,24.33S12.13,0.25,25.43,0.25
	S49.51,11.03,49.51,24.33"/>
<path class="st1" d="M38.45,16.12c-0.83,0.38-1.76,0.61-2.66,0.76c0.43-0.07,1.05-0.85,1.31-1.16c0.38-0.48,0.7-1.02,0.88-1.61
	c0.02-0.05,0.04-0.1-0.01-0.14c-0.06-0.02-0.1-0.01-0.14,0.01c-1.01,0.54-2.04,0.93-3.15,1.21c-0.09,0.02-0.16,0-0.22-0.06
	c-0.09-0.1-0.18-0.2-0.27-0.28c-0.47-0.4-0.96-0.71-1.53-0.93c-0.74-0.3-1.55-0.43-2.34-0.38c-0.77,0.05-1.53,0.27-2.22,0.63
	c-0.69,0.36-1.3,0.86-1.79,1.46c-0.51,0.62-0.88,1.36-1.07,2.14c-0.18,0.75-0.17,1.5-0.06,2.26c0.02,0.13,0.01,0.14-0.11,0.13
	c-4.32-0.64-7.91-2.19-10.82-5.51c-0.13-0.14-0.2-0.14-0.3,0.01c-1.27,1.91-0.65,4.98,0.94,6.48c0.21,0.2,0.43,0.4,0.67,0.58
	c-0.09,0.02-1.15-0.1-2.09-0.58c-0.13-0.08-0.19-0.03-0.2,0.11c-0.01,0.21,0.01,0.4,0.03,0.62c0.24,1.93,1.58,3.72,3.42,4.42
	c0.22,0.09,0.46,0.17,0.69,0.21c-0.42,0.09-0.85,0.16-2.05,0.06c-0.15-0.03-0.21,0.05-0.15,0.19c0.9,2.46,2.85,3.19,4.3,3.6
	c0.2,0.03,0.39,0.03,0.58,0.08c-0.01,0.02-0.02,0.02-0.03,0.03c-0.48,0.74-2.16,1.29-2.94,1.56c-1.42,0.5-2.96,0.72-4.46,0.57
	c-0.24-0.04-0.29-0.03-0.36,0c-0.07,0.04-0.01,0.1,0.07,0.16c0.3,0.2,0.61,0.38,0.93,0.55c0.95,0.5,1.95,0.91,2.98,1.19
	c5.36,1.48,11.4,0.39,15.43-3.61C34.89,27.76,36,23.43,36,19.09c0-0.17,0.2-0.26,0.32-0.35c0.82-0.62,1.49-1.36,2.1-2.18
	c0.14-0.18,0.14-0.35,0.14-0.42v-0.02C38.56,16.05,38.56,16.07,38.45,16.12"/>
</svg>
