<svg width="113" height="50" viewBox="0 0 113 50" fill="none" xmlns="http://www.w3.org/2000/svg">
<path d="M87.4511 27.6618C88.0934 25.9593 89.0133 24.1292 90.227 22.1605C91.4354 20.1918 92.6274 18.5336 93.7922 17.186C94.9624 15.8384 95.8061 15.1674 96.334 15.1674C96.6388 15.1674 96.7912 15.4391 96.7912 15.977C96.7912 16.8533 96.1925 18.2563 94.995 20.1862C93.7976 22.1106 92.4586 23.8464 90.9727 25.3936C89.4868 26.9298 88.3111 27.6896 87.4511 27.6618ZM87.5328 35.4369C89.3943 35.4369 91.5279 34.2279 93.9337 31.8045C96.3395 29.381 98.5983 26.4418 100.71 22.9868C100.351 22.4211 99.8502 22.1938 99.2079 22.3047C97.5696 25.0831 95.7407 27.5897 93.7214 29.8246C91.7075 32.0651 90.0692 33.1798 88.8228 33.1798C87.4076 33.1798 86.6946 32.4699 86.6946 31.0558C86.6946 30.5179 86.7762 29.9356 86.945 29.3144H87.3641C88.6976 29.3144 90.2924 28.5547 92.1375 27.0407C93.9881 25.5267 95.5829 23.7521 96.9327 21.7279C98.2826 19.7037 98.9575 18.0068 98.9575 16.6481C98.9575 15.5445 98.7071 14.7847 98.2064 14.3743C97.7056 13.964 97.0362 13.7588 96.2034 13.7588C94.3963 13.7588 92.4314 14.7958 90.3032 16.8588C88.1751 18.9273 86.3735 21.3841 84.9039 24.2346C83.4288 27.0851 82.694 29.5141 82.694 31.5216C82.694 32.7971 83.173 33.7676 84.131 34.4331C85.0944 35.1041 86.2265 35.4369 87.5328 35.4369ZM64.384 42.5354C64.6888 41.8255 65.5052 40.9327 66.8224 39.8568C68.1451 38.7809 69.4568 37.999 70.7631 37.5165C70.3168 38.365 69.6636 39.2745 68.8037 40.2339C67.9437 41.1989 67.0946 42.0141 66.2618 42.6796C65.429 43.3451 64.8303 43.6778 64.4711 43.6778C64.2751 43.6778 64.1772 43.5613 64.1772 43.3395C64.1772 43.1121 64.2479 42.8459 64.384 42.5354ZM68.1396 32.0374C67.4429 31.8377 67.0946 31.3275 67.0946 30.5068C67.0946 29.2313 67.8022 27.4622 69.2228 25.194C70.6379 22.9258 72.2599 20.9183 74.0833 19.1603C75.9067 17.4023 77.3599 16.5261 78.4431 16.5261C79.1398 16.5261 79.6133 16.9531 79.8583 17.8016C78.9656 19.2213 77.6974 21.0957 76.0428 23.4305C74.3881 25.7652 72.7933 27.8226 71.2693 29.5917C69.7398 31.3663 68.6948 32.176 68.1396 32.0374ZM62.0109 43.3839C61.6516 44.2046 61.4666 44.9256 61.4666 45.5522C61.4666 46.2621 61.6734 46.8056 62.0925 47.1882C62.5116 47.5709 63.0777 47.765 63.8016 47.765C64.8847 47.765 66.1366 47.338 67.5572 46.4895C68.9724 45.641 70.4148 44.3155 71.8735 42.5132C73.3322 40.7164 74.6494 38.4981 75.8141 35.8639C78.3723 34.361 80.6311 32.7195 82.5906 30.9338C84.5501 29.1481 86.2809 27.0684 87.7832 24.6893C87.56 24.3788 87.3532 24.1569 87.1572 24.0294C86.9613 23.9018 86.7 23.8686 86.3626 23.924C85.2794 25.7375 83.8316 27.4788 82.0245 29.1481C80.2175 30.8173 78.4376 32.1816 76.685 33.2297C77.2674 30.5955 78.3125 27.8337 79.8147 24.9444C80.6747 23.3861 81.649 21.8277 82.7321 20.2694C83.8153 18.7111 84.8875 17.308 85.9435 16.0602C86.1666 15.8329 86.2755 15.5777 86.2755 15.2949C86.2755 14.9566 86.134 14.7293 85.8564 14.6128C85.5788 14.4742 85.1869 14.3521 84.6861 14.2523C84.1854 14.1525 83.7282 14.1026 83.3091 14.1026C82.6995 14.1026 82.3076 14.2024 82.1388 14.4021C81.8885 14.6572 81.4585 15.2506 80.8434 16.1878C79.9508 14.8845 78.786 14.2357 77.3382 14.2357C75.6944 14.2357 73.9091 15.0287 71.9769 16.6148C70.0446 18.2009 68.2866 20.1419 66.7027 22.4378C65.1188 24.7337 64.0356 26.8411 63.4478 28.771C63.0287 30.0742 62.8219 31.2222 62.8219 32.2148C62.8219 33.263 63.094 34.0616 63.6329 34.6161C64.1772 35.1707 65.0589 35.4424 66.2836 35.4424C67.3395 35.4424 68.5642 34.8879 69.9521 33.7843C71.3401 32.6807 72.4123 31.5327 73.1634 30.3404C73.0491 30.6232 72.9838 30.834 72.9566 30.9781C72.9022 31.1778 72.7607 31.7213 72.5375 32.6141C72.3143 33.507 71.9932 34.361 71.5795 35.1873C69.5765 35.8972 67.6987 36.9509 65.9461 38.3539C64.2207 39.7514 62.8981 41.4262 62.0109 43.3839ZM43.7008 35.4369C44.0927 35.4923 44.3703 35.5201 44.5336 35.5201C45.4208 35.5201 46.0903 35.1818 46.5366 34.4997C47.3694 33.1687 48.6267 31.4884 50.3086 29.4642C51.9904 27.44 53.6451 25.5822 55.2725 23.8963C56.9 22.2104 58.0593 21.1567 58.756 20.7297C57.2265 22.7428 55.8712 24.9389 54.6901 27.318C53.509 29.6971 52.9157 31.627 52.9157 33.0966C52.9157 34.6549 53.6669 35.4313 55.1691 35.4313C57.4497 35.4313 59.7303 34.2224 62.0109 31.7989C64.2915 29.3754 66.5448 26.4251 68.7655 22.9369C68.5696 22.6541 68.3573 22.4544 68.1178 22.3435C67.8838 22.2326 67.5953 22.2049 67.2633 22.2603C66.5122 23.619 65.5052 25.1552 64.2425 26.8688C62.9743 28.5824 61.7551 30.0354 60.5739 31.2222C59.3928 32.4145 58.5111 33.0079 57.9232 33.0079C57.5041 33.0079 57.2973 32.7528 57.2973 32.2426C57.2973 31.0225 58.2552 28.7377 60.1766 25.377C62.0925 22.0218 63.9975 19.0105 65.8917 16.3486C66.1421 16.038 66.2672 15.7108 66.2672 15.3726C66.2672 15.0897 66.1421 14.8513 65.8917 14.6516C65.6413 14.452 65.293 14.3521 64.8466 14.3521C63.5948 14.3521 61.9347 15.1785 59.8609 16.8366C57.7872 18.4948 55.8767 20.2306 54.1241 22.044C52.3714 23.8575 50.4392 25.9427 48.3273 28.2885C48.9968 26.9852 49.8786 25.4935 50.978 23.8076C52.0775 22.1217 53.7812 19.6372 56.089 16.3486C56.225 16.149 56.2958 15.9659 56.2958 15.794C56.2958 15.3393 56.0236 14.9234 55.4848 14.5407C54.9459 14.1581 54.3635 13.964 53.7539 13.964C53.1117 13.964 52.6273 14.1747 52.2952 14.6017C50.8474 16.3042 49.0785 19.0771 46.9775 22.9313C44.8765 26.7856 43.396 29.9577 42.5361 32.4478C42.2857 33.1299 42.1605 33.6678 42.1605 34.0616C42.1605 34.4331 42.2802 34.7215 42.5143 34.9322C42.7483 35.1596 43.1402 35.326 43.7008 35.4369ZM35.9392 35.4369C38.247 35.4369 40.5875 34.2057 42.966 31.7379C45.3446 29.2756 47.5327 26.3419 49.5357 22.9424C49.3397 22.6596 49.1274 22.46 48.888 22.349C48.6539 22.2381 48.3654 22.2104 48.0334 22.2659C47.2823 23.6246 46.2754 25.1607 45.0071 26.8743C43.7389 28.588 42.5197 30.0409 41.3386 31.2277C40.1575 32.42 39.2757 33.0134 38.6879 33.0134C38.2688 33.0134 38.062 32.7583 38.062 32.2481C38.062 31.3996 38.5845 29.9633 39.6241 27.9336C40.6691 25.9094 41.9373 23.8076 43.4396 21.6226C44.9418 19.4431 46.2917 17.6962 47.4837 16.393C47.7885 16.0547 47.9409 15.7108 47.9409 15.3726C47.9409 14.9455 47.7123 14.5962 47.2496 14.3078C46.7924 14.025 46.2699 13.8808 45.6875 13.8808C44.7949 13.8808 44.1308 14.1636 43.6845 14.7293C42.2367 16.515 40.7671 18.6112 39.2649 21.0181C37.7626 23.4249 36.5271 25.7486 35.5528 27.989C34.5785 30.2295 34.0941 31.9986 34.0941 33.3018C34.1049 34.727 34.72 35.4369 35.9392 35.4369ZM48.1205 11.7235C48.8172 11.7235 49.5084 11.5128 50.2051 11.0857C50.9018 10.6587 51.4679 10.1374 51.9142 9.51076C52.3605 8.88964 52.5837 8.33507 52.5837 7.85259C52.5837 7.03183 52.0013 6.62145 50.8311 6.62145C50.1072 6.62145 49.4159 6.83219 48.7464 7.25921C48.077 7.68622 47.5381 8.19643 47.119 8.78982C46.6999 9.38321 46.4931 9.93778 46.4931 10.448C46.4931 11.2965 47.0374 11.7235 48.1205 11.7235ZM14.5866 35.7364C15.3377 35.4535 15.882 34.9988 16.214 34.3777C18.6361 29.9577 20.4976 26.4029 21.8039 23.7133C22.3047 23.2863 22.9034 22.9535 23.5946 22.7151C24.2913 22.4766 24.9989 22.3546 25.7228 22.3546C26.8931 22.3546 27.8728 22.6485 28.662 23.2253C29.4567 23.8076 29.8486 24.6505 29.8486 25.7541C29.8486 27.6785 29.3424 29.4919 28.3246 31.1944C27.3067 32.897 25.9623 34.2501 24.2805 35.2539C22.5986 36.2577 20.8133 36.7623 18.9192 36.7623C17.3679 36.7512 15.9201 36.4129 14.5866 35.7364ZM12.1699 34.0782C9.86212 32.0984 8.00064 29.1037 6.58003 25.1108C6.38409 24.5451 5.97042 24.2623 5.32816 24.2623C4.90905 24.2623 4.50628 24.4176 4.11983 24.7281C2.92238 25.7208 2.3291 26.5693 2.3291 27.2792C2.3291 27.4511 2.35632 27.6175 2.41075 27.7894C3.913 32.237 6.02485 35.5145 8.75176 37.6274C11.4787 39.7403 14.4396 40.794 17.6346 40.794C20.1928 40.794 22.6421 40.184 24.9771 38.964C27.3122 37.7439 29.2118 36.1079 30.6705 34.056C32.1292 32.0041 32.8748 29.7858 32.9021 27.4067C32.9293 25.0831 32.4013 23.4471 31.3182 22.4988C30.235 21.5505 29.0376 21.0624 27.7313 21.0347C29.424 20.1862 30.9263 19.066 32.238 17.6796C33.5443 16.2931 34.5567 14.8346 35.2806 13.304C36.0045 11.7734 36.3638 10.3426 36.3638 9.01165C36.3638 6.74346 35.6725 5.00211 34.3009 3.78205C32.9238 2.56755 31.2093 1.95752 29.1519 1.95752C27.372 1.95752 25.5976 2.41227 23.8341 3.31622C22.0706 4.22571 20.5793 5.55668 19.3709 7.30912C18.1626 9.0671 17.4713 11.1356 17.3081 13.5148C17.3081 13.853 17.4605 14.1359 17.7653 14.3632C18.0701 14.5906 18.3912 14.7015 18.7232 14.7015C19.0552 14.7015 19.224 14.574 19.224 14.3189C19.3655 12.1671 19.9261 10.326 20.9113 8.79536C21.8964 7.26475 23.0993 6.12788 24.5199 5.37367C25.9405 4.625 27.3557 4.24789 28.7763 4.24789C30.1371 4.24789 31.2855 4.58618 32.2163 5.2683C33.147 5.95042 33.6532 6.89874 33.7403 8.11879C33.8491 9.42203 33.4572 10.8473 32.5537 12.389C31.6502 13.9362 30.4146 15.3337 28.8416 16.5982C27.2686 17.857 25.5976 18.761 23.8178 19.2989L29.4349 8.15206C29.9084 7.24811 30.1915 6.64918 30.2895 6.36635C30.3874 6.08352 30.4092 5.88387 30.3493 5.77296C30.2405 5.49013 30.001 5.25721 29.6417 5.0742C29.2771 4.89119 28.8906 4.79692 28.4715 4.79692C27.8619 4.79692 27.4428 5.00765 27.2196 5.43467L25.9242 7.98569C19.5941 20.5079 15.0601 29.076 12.3332 33.6955C12.2788 33.7787 12.2244 33.9063 12.1699 34.0782Z" fill="#F40B0B"/>
<path d="M46.7108 7.35919C46.7108 7.35919 43.3035 8.1134 44.4792 11.3632C44.4792 11.3632 46.2917 14.9013 49.0676 11.7458C49.0676 11.7458 49.9384 13.9808 53.1389 12.378C53.1389 12.378 55.2725 10.9473 53.2804 8.10786C53.2804 8.10786 52.9701 7.79175 52.6327 7.93594C52.6327 7.93594 54.2601 5.64557 51.3971 5.41265C51.3971 5.41265 50.7494 5.49584 50.6134 5.84521C50.6079 5.83967 47.7776 3.94859 46.7108 7.35919Z" fill="#FDFDFD"/>
<path d="M46.7108 7.35919C46.7108 7.35919 43.3035 8.1134 44.4792 11.3632C44.4792 11.3632 46.2917 14.9013 49.0676 11.7458C49.0676 11.7458 49.9384 13.9808 53.1389 12.378C53.1389 12.378 55.2725 10.9473 53.2804 8.10786C53.2804 8.10786 52.9702 7.79175 52.6327 7.93594C52.6327 7.93594 54.2601 5.64557 51.3971 5.41265C51.3971 5.41265 50.7494 5.49584 50.6134 5.84521C50.6079 5.83967 47.7776 3.94859 46.7108 7.35919Z" stroke="#F40B0B" stroke-width="0.375" stroke-miterlimit="10"/>
<path d="M46.6462 7.12638C46.2543 7.21511 45.8679 7.38703 45.525 7.59222C44.8392 7.99151 44.2676 8.61262 44.0771 9.4112C43.952 9.93805 43.9901 10.4926 44.1261 11.0139C44.1914 11.2635 44.2676 11.4853 44.4037 11.7016C44.7684 12.2783 45.2746 12.8163 45.9005 13.0935C46.3305 13.2876 46.7932 13.3376 47.2558 13.2433C47.8491 13.1213 48.3771 12.7608 48.8179 12.3504C48.9649 12.2118 49.1064 12.0676 49.237 11.9179C49.1064 11.8846 48.9758 11.8458 48.8397 11.8125C48.9595 12.1175 49.1717 12.3948 49.4112 12.6055C49.9827 13.1046 50.7284 13.2655 51.4632 13.1712C52.0619 13.0935 52.6334 12.8884 53.1723 12.6222C53.3084 12.5556 53.4227 12.4558 53.5261 12.3504C54.0105 11.879 54.3044 11.2357 54.3534 10.5536C54.3861 10.0268 54.2609 9.49994 54.0595 9.02301C53.9288 8.71245 53.7656 8.41853 53.5805 8.14124C53.439 7.92496 53.2811 7.77522 53.0308 7.69758C52.8784 7.65322 52.7151 7.65322 52.5627 7.70868C52.6498 7.82514 52.7423 7.94714 52.8294 8.0636C53.0798 7.70868 53.2594 7.27057 53.3084 6.838C53.3519 6.49971 53.2811 6.15034 53.0689 5.87305C52.7804 5.49594 52.3069 5.31848 51.8605 5.24084C51.6918 5.20757 51.4959 5.1632 51.3217 5.19093C51.2509 5.20202 51.1747 5.21866 51.104 5.2353C50.8318 5.31294 50.5216 5.45158 50.3964 5.72886C50.5052 5.70113 50.6141 5.67341 50.7175 5.64013C50.3855 5.42385 49.9936 5.26302 49.6126 5.17429C48.8397 4.98574 48.0396 5.10774 47.43 5.65122C46.951 6.07824 46.6625 6.69381 46.472 7.30384C46.3795 7.59776 46.8367 7.72531 46.9292 7.43139C47.0871 6.93228 47.3157 6.43871 47.6749 6.07824C47.8164 5.93405 47.9253 5.85087 48.1212 5.75105C48.1376 5.73995 48.1593 5.72886 48.1757 5.72332C48.1866 5.71777 48.2355 5.69559 48.2138 5.70668C48.192 5.71777 48.2519 5.69004 48.2628 5.69004C48.2845 5.6845 48.3063 5.67341 48.3281 5.66786C48.4097 5.64013 48.4914 5.61795 48.573 5.60131C48.5948 5.59577 48.6165 5.59577 48.6383 5.59022C48.6601 5.58467 48.6927 5.58467 48.6492 5.59022C48.6927 5.58467 48.7363 5.57913 48.7798 5.57913C48.8615 5.57358 48.9377 5.57358 49.0193 5.57913C49.0574 5.57913 49.0955 5.58467 49.1391 5.58467C49.1554 5.58467 49.1772 5.59022 49.1935 5.59022C49.2044 5.59022 49.2751 5.60131 49.2425 5.59577C49.2098 5.59022 49.2643 5.60131 49.2697 5.60131C49.286 5.60131 49.3024 5.60686 49.3241 5.6124C49.3622 5.61795 49.4058 5.62904 49.4439 5.63459C49.5854 5.66786 49.7215 5.70668 49.8575 5.75659C49.9174 5.77877 49.9773 5.80096 50.0317 5.82314C50.0753 5.83978 50.0263 5.82314 50.0317 5.82314C50.0426 5.82869 50.0589 5.83423 50.0698 5.83978C50.097 5.85087 50.1242 5.86196 50.1515 5.8786C50.2712 5.93405 50.3855 5.99506 50.4944 6.06715C50.5923 6.1337 50.7665 6.09488 50.8155 5.97842C50.8427 5.91742 50.8318 5.92851 50.8699 5.88969C50.9026 5.85641 50.9244 5.84532 50.9788 5.8065C51.0659 5.75659 51.1257 5.73441 51.2346 5.70668C51.2999 5.69004 51.3652 5.67895 51.436 5.66231C51.4414 5.66231 51.4469 5.66231 51.4523 5.66231C51.436 5.66786 51.3652 5.65677 51.4088 5.67341C51.4251 5.67895 51.4469 5.67895 51.4632 5.67895C51.534 5.6845 51.6047 5.69559 51.6755 5.70668C51.8061 5.72886 51.9313 5.75659 52.0565 5.78987C52.1653 5.82314 52.2524 5.85641 52.3286 5.88969C52.4103 5.92851 52.4919 5.97842 52.5627 6.03388C52.53 6.01169 52.5627 6.03388 52.5736 6.04497C52.5844 6.05606 52.6008 6.06715 52.6171 6.08379C52.6443 6.11152 52.6715 6.13924 52.6987 6.16697C52.7368 6.21134 52.6879 6.14479 52.7096 6.17806C52.7205 6.18916 52.726 6.20579 52.7368 6.22243C52.7586 6.25016 52.775 6.28343 52.7858 6.31671C52.7967 6.33889 52.8076 6.37216 52.7913 6.32225C52.7967 6.33889 52.8022 6.34998 52.8076 6.36662C52.8185 6.39989 52.8294 6.43317 52.8348 6.46644C52.8403 6.49417 52.8511 6.58845 52.8457 6.51635C52.8511 6.54963 52.8511 6.5829 52.8511 6.61617C52.8511 6.68272 52.8457 6.74927 52.8403 6.82136C52.8348 6.87128 52.8457 6.80473 52.8403 6.82136C52.8348 6.838 52.8348 6.86018 52.8294 6.87682C52.8239 6.9101 52.8185 6.94337 52.8076 6.97664C52.7913 7.04319 52.7749 7.1042 52.7532 7.17074C52.7423 7.19847 52.7368 7.2262 52.726 7.25393C52.7205 7.27057 52.7151 7.2872 52.7096 7.30384C52.6933 7.34821 52.7096 7.30384 52.7096 7.30384C52.6879 7.3593 52.6606 7.40921 52.6389 7.46467C52.579 7.59222 52.5082 7.71977 52.4266 7.83623C52.3069 8.0026 52.5082 8.26325 52.6933 8.19115C52.7967 8.15233 52.8838 8.15788 52.9709 8.20779C53.009 8.22443 53.0417 8.24661 53.0743 8.27434C53.0308 8.24106 53.0961 8.29097 53.107 8.30207C53.0689 8.2577 53.156 8.37416 53.1505 8.36861C53.1723 8.40189 53.1941 8.42962 53.2104 8.46289C53.2539 8.52944 53.2975 8.59599 53.3356 8.66254C53.4172 8.80118 53.4934 8.93982 53.5587 9.08401C53.7601 9.51103 53.8907 9.97132 53.8853 10.4372C53.8853 10.6479 53.869 10.7644 53.8145 10.9695C53.7656 11.1526 53.7329 11.2468 53.6621 11.3799C53.5968 11.5075 53.5261 11.6295 53.4444 11.7459C53.439 11.757 53.4281 11.7681 53.4227 11.7792C53.4608 11.7238 53.4281 11.7737 53.4227 11.7792C53.4063 11.8014 53.3846 11.8291 53.3628 11.8513C53.3247 11.8957 53.292 11.9345 53.2485 11.9733C53.1941 12.0343 53.1342 12.0898 53.0689 12.1397C53.058 12.1508 53.0471 12.1563 53.0362 12.1674C53.0253 12.1785 53.0961 12.1286 53.0525 12.1563C53.0417 12.1619 53.0308 12.173 53.0199 12.1841C52.8348 12.3005 52.6117 12.3782 52.4103 12.4558C52.1599 12.5501 51.8986 12.6277 51.6374 12.6776C51.4414 12.7164 51.2509 12.7331 51.0441 12.7331C50.957 12.7331 50.8699 12.7275 50.7828 12.7164C50.7774 12.7164 50.7012 12.7053 50.7556 12.7164C50.7338 12.7109 50.7121 12.7109 50.6903 12.7053C50.6413 12.6943 50.5923 12.6887 50.5433 12.6776C50.4726 12.661 50.4018 12.6388 50.3311 12.6166C50.2984 12.6055 50.2658 12.5944 50.2331 12.5778C50.2222 12.5723 50.1787 12.5556 50.2277 12.5778C50.2059 12.5667 50.1841 12.5556 50.1623 12.5445C50.0426 12.4835 49.9337 12.4114 49.8194 12.3338C49.8085 12.3227 49.7759 12.3005 49.8249 12.3393C49.8085 12.3282 49.7922 12.3116 49.7759 12.3005C49.7487 12.2783 49.7215 12.2561 49.6997 12.234C49.6561 12.1951 49.6126 12.1508 49.5745 12.1064C49.5364 12.0676 49.5037 12.0232 49.4711 11.9789C49.5255 12.0454 49.4711 11.9789 49.4602 11.9622C49.4439 11.94 49.433 11.9234 49.4167 11.9012C49.3786 11.8458 49.3405 11.7848 49.3132 11.7238C49.2969 11.6905 49.2588 11.5962 49.3024 11.7071C49.2425 11.5518 49.0411 11.452 48.905 11.6018C48.5022 12.0565 48.0069 12.5112 47.4518 12.7164C47.3429 12.7553 47.2286 12.7885 47.1089 12.8107C47.0871 12.8163 47.0599 12.8163 47.0381 12.8218C47 12.8274 47.049 12.8218 46.9946 12.8274C46.9401 12.8329 46.8857 12.8329 46.8367 12.8384C46.7877 12.8384 46.7387 12.8384 46.6952 12.8329C46.668 12.8329 46.6462 12.8274 46.619 12.8274C46.6081 12.8274 46.5972 12.8274 46.5863 12.8218C46.5428 12.8163 46.6027 12.8218 46.5754 12.8218C46.4829 12.8052 46.3904 12.783 46.2979 12.7553C46.2543 12.7442 46.2108 12.7275 46.1727 12.7109C46.1563 12.7053 46.1019 12.6832 46.1455 12.6998C46.1182 12.6887 46.0965 12.6776 46.0693 12.6665C45.9876 12.6277 45.9114 12.5833 45.8352 12.5334C45.759 12.4835 45.6828 12.4336 45.612 12.3726C45.6012 12.3671 45.6338 12.3892 45.6012 12.3615C45.5848 12.3449 45.5685 12.3338 45.5467 12.3171C45.5141 12.2894 45.4814 12.2617 45.4488 12.2284C45.329 12.1175 45.2147 12.001 45.1113 11.8735C45.0895 11.8458 45.0678 11.818 45.046 11.7903C45.0351 11.7737 45.0242 11.7626 45.0133 11.7459C44.9807 11.7016 45.0351 11.7792 45.0024 11.7349C44.9643 11.6849 44.9317 11.635 44.8936 11.5851C44.8392 11.5075 44.7902 11.4298 44.7412 11.3467C44.7303 11.3245 44.714 11.3023 44.7031 11.2801C44.6922 11.2635 44.6867 11.2413 44.7031 11.2801C44.5126 10.7976 44.4309 10.2819 44.4962 9.76613C44.4908 9.80495 44.5017 9.73286 44.5017 9.72176C44.5071 9.69404 44.5126 9.66631 44.518 9.64412C44.5289 9.59421 44.5398 9.53876 44.5561 9.48884C44.567 9.44448 44.5833 9.39457 44.5997 9.3502C44.6105 9.32802 44.616 9.30029 44.6269 9.27811C44.6323 9.26702 44.6541 9.21156 44.6486 9.2282C44.6378 9.25038 44.665 9.18938 44.6704 9.17829C44.6813 9.1561 44.6922 9.13392 44.7031 9.11174C44.7248 9.06737 44.7466 9.02855 44.7738 8.98419C44.8174 8.90655 44.8718 8.82891 44.9208 8.75681C44.9426 8.72354 44.9045 8.779 44.9371 8.73463C44.9535 8.71799 44.9643 8.69581 44.9807 8.67917C45.0079 8.6459 45.0405 8.61262 45.0732 8.5738C45.1331 8.50726 45.1984 8.44625 45.2637 8.38525C45.2964 8.35752 45.3236 8.32979 45.3562 8.30761C45.3726 8.29652 45.3834 8.28543 45.3998 8.27434C45.427 8.25215 45.3671 8.29652 45.3943 8.27988C45.4052 8.27434 45.4161 8.26325 45.4215 8.2577C45.4869 8.20779 45.5522 8.16342 45.6175 8.11906C45.7481 8.03587 45.8842 7.95823 46.0203 7.88614C46.0801 7.85841 46.14 7.83068 46.2053 7.80295C46.2543 7.78077 46.1727 7.81959 46.2053 7.80295C46.2162 7.79741 46.2325 7.79186 46.2434 7.78632C46.2706 7.77522 46.2979 7.76413 46.3251 7.75304C46.4666 7.69758 46.6135 7.65876 46.7605 7.6144C46.766 7.6144 46.7768 7.60885 46.7823 7.60885C47.0708 7.52567 46.9456 7.05983 46.6462 7.12638Z" fill="#F40B0B"/>
<path d="M46.6462 7.12638C46.2543 7.21511 45.8679 7.38703 45.525 7.59222C44.8392 7.99151 44.2676 8.61262 44.0771 9.4112C43.952 9.93805 43.9901 10.4926 44.1261 11.0139C44.1914 11.2635 44.2676 11.4853 44.4037 11.7016C44.7684 12.2783 45.2746 12.8163 45.9005 13.0935C46.3305 13.2876 46.7932 13.3376 47.2558 13.2433C47.8491 13.1213 48.3771 12.7608 48.8179 12.3504C48.9649 12.2118 49.1064 12.0676 49.237 11.9179C49.1064 11.8846 48.9758 11.8458 48.8397 11.8125C48.9595 12.1175 49.1717 12.3948 49.4112 12.6055C49.9827 13.1046 50.7284 13.2655 51.4632 13.1712C52.0619 13.0935 52.6334 12.8884 53.1723 12.6222C53.3084 12.5556 53.4227 12.4558 53.5261 12.3504C54.0105 11.879 54.3044 11.2357 54.3534 10.5536C54.3861 10.0268 54.2609 9.49994 54.0595 9.02301C53.9288 8.71245 53.7656 8.41853 53.5805 8.14124C53.439 7.92496 53.2811 7.77522 53.0308 7.69758C52.8784 7.65322 52.7151 7.65322 52.5627 7.70868C52.6498 7.82514 52.7423 7.94714 52.8294 8.0636C53.0798 7.70868 53.2594 7.27057 53.3084 6.838C53.3519 6.49971 53.2811 6.15034 53.0689 5.87305C52.7804 5.49594 52.3069 5.31848 51.8605 5.24084C51.6918 5.20757 51.4959 5.1632 51.3217 5.19093C51.2509 5.20202 51.1747 5.21866 51.104 5.2353C50.8318 5.31294 50.5216 5.45158 50.3964 5.72886C50.5052 5.70113 50.6141 5.67341 50.7175 5.64013C50.3855 5.42385 49.9936 5.26302 49.6126 5.17429C48.8397 4.98574 48.0396 5.10774 47.43 5.65122C46.951 6.07824 46.6625 6.69381 46.472 7.30384C46.3795 7.59776 46.8367 7.72531 46.9292 7.43139C47.0871 6.93228 47.3157 6.43871 47.6749 6.07824C47.8164 5.93405 47.9253 5.85087 48.1212 5.75105C48.1376 5.73995 48.1593 5.72886 48.1757 5.72332C48.1866 5.71777 48.2355 5.69559 48.2138 5.70668C48.192 5.71777 48.2519 5.69004 48.2628 5.69004C48.2845 5.6845 48.3063 5.67341 48.3281 5.66786C48.4097 5.64013 48.4914 5.61795 48.573 5.60131C48.5948 5.59577 48.6165 5.59577 48.6383 5.59022C48.6601 5.58467 48.6927 5.58467 48.6492 5.59022C48.6927 5.58467 48.7363 5.57913 48.7798 5.57913C48.8615 5.57358 48.9377 5.57358 49.0193 5.57913C49.0574 5.57913 49.0955 5.58467 49.1391 5.58467C49.1554 5.58467 49.1772 5.59022 49.1935 5.59022C49.2044 5.59022 49.2751 5.60131 49.2425 5.59577C49.2098 5.59022 49.2643 5.60131 49.2697 5.60131C49.286 5.60131 49.3024 5.60686 49.3241 5.6124C49.3622 5.61795 49.4058 5.62904 49.4439 5.63459C49.5854 5.66786 49.7215 5.70668 49.8575 5.75659C49.9174 5.77877 49.9773 5.80096 50.0317 5.82314C50.0753 5.83978 50.0263 5.82314 50.0317 5.82314C50.0426 5.82869 50.0589 5.83423 50.0698 5.83978C50.097 5.85087 50.1242 5.86196 50.1515 5.8786C50.2712 5.93405 50.3855 5.99506 50.4944 6.06715C50.5923 6.1337 50.7665 6.09488 50.8155 5.97842C50.8427 5.91742 50.8318 5.92851 50.8699 5.88969C50.9026 5.85641 50.9244 5.84532 50.9788 5.8065C51.0659 5.75659 51.1257 5.73441 51.2346 5.70668C51.2999 5.69004 51.3652 5.67895 51.436 5.66231C51.4414 5.66231 51.4469 5.66231 51.4523 5.66231C51.436 5.66786 51.3652 5.65677 51.4088 5.67341C51.4251 5.67895 51.4469 5.67895 51.4632 5.67895C51.534 5.6845 51.6047 5.69559 51.6755 5.70668C51.8061 5.72886 51.9313 5.75659 52.0565 5.78987C52.1653 5.82314 52.2524 5.85641 52.3286 5.88969C52.4103 5.92851 52.4919 5.97842 52.5627 6.03388C52.53 6.01169 52.5627 6.03388 52.5736 6.04497C52.5844 6.05606 52.6008 6.06715 52.6171 6.08379C52.6443 6.11152 52.6715 6.13924 52.6987 6.16697C52.7368 6.21134 52.6879 6.14479 52.7096 6.17806C52.7205 6.18916 52.726 6.20579 52.7368 6.22243C52.7586 6.25016 52.7749 6.28343 52.7858 6.31671C52.7967 6.33889 52.8076 6.37216 52.7913 6.32225C52.7967 6.33889 52.8022 6.34998 52.8076 6.36662C52.8185 6.39989 52.8294 6.43317 52.8348 6.46644C52.8403 6.49417 52.8511 6.58845 52.8457 6.51635C52.8511 6.54963 52.8511 6.5829 52.8511 6.61617C52.8511 6.68272 52.8457 6.74927 52.8403 6.82136C52.8348 6.87128 52.8457 6.80473 52.8403 6.82136C52.8348 6.838 52.8348 6.86018 52.8294 6.87682C52.8239 6.9101 52.8185 6.94337 52.8076 6.97664C52.7913 7.04319 52.7749 7.1042 52.7532 7.17074C52.7423 7.19847 52.7368 7.2262 52.726 7.25393C52.7205 7.27057 52.7151 7.2872 52.7096 7.30384C52.6933 7.34821 52.7096 7.30384 52.7096 7.30384C52.6879 7.3593 52.6606 7.40921 52.6389 7.46467C52.579 7.59222 52.5082 7.71977 52.4266 7.83623C52.3069 8.0026 52.5082 8.26325 52.6933 8.19115C52.7967 8.15233 52.8838 8.15788 52.9709 8.20779C53.009 8.22443 53.0417 8.24661 53.0743 8.27434C53.0308 8.24106 53.0961 8.29097 53.107 8.30207C53.0689 8.2577 53.156 8.37416 53.1505 8.36861C53.1723 8.40189 53.1941 8.42962 53.2104 8.46289C53.2539 8.52944 53.2975 8.59599 53.3356 8.66254C53.4172 8.80118 53.4934 8.93982 53.5587 9.08401C53.7601 9.51103 53.8907 9.97132 53.8853 10.4372C53.8853 10.6479 53.869 10.7644 53.8145 10.9695C53.7656 11.1526 53.7329 11.2468 53.6621 11.3799C53.5968 11.5075 53.5261 11.6295 53.4444 11.7459C53.439 11.757 53.4281 11.7681 53.4227 11.7792C53.4608 11.7238 53.4281 11.7737 53.4227 11.7792C53.4063 11.8014 53.3846 11.8291 53.3628 11.8513C53.3247 11.8957 53.292 11.9345 53.2485 11.9733C53.1941 12.0343 53.1342 12.0898 53.0689 12.1397C53.058 12.1508 53.0471 12.1563 53.0362 12.1674C53.0253 12.1785 53.0961 12.1286 53.0525 12.1563C53.0417 12.1619 53.0308 12.173 53.0199 12.1841C52.8348 12.3005 52.6117 12.3782 52.4103 12.4558C52.1599 12.5501 51.8986 12.6277 51.6374 12.6776C51.4414 12.7164 51.2509 12.7331 51.0441 12.7331C50.957 12.7331 50.8699 12.7275 50.7828 12.7164C50.7774 12.7164 50.7012 12.7053 50.7556 12.7164C50.7338 12.7109 50.7121 12.7109 50.6903 12.7053C50.6413 12.6943 50.5923 12.6887 50.5433 12.6776C50.4726 12.661 50.4018 12.6388 50.3311 12.6166C50.2984 12.6055 50.2658 12.5944 50.2331 12.5778C50.2222 12.5723 50.1787 12.5556 50.2277 12.5778C50.2059 12.5667 50.1841 12.5556 50.1623 12.5445C50.0426 12.4835 49.9337 12.4114 49.8194 12.3338C49.8085 12.3227 49.7759 12.3005 49.8249 12.3393C49.8085 12.3282 49.7922 12.3116 49.7759 12.3005C49.7487 12.2783 49.7215 12.2561 49.6997 12.234C49.6561 12.1951 49.6126 12.1508 49.5745 12.1064C49.5364 12.0676 49.5037 12.0232 49.4711 11.9789C49.5255 12.0454 49.4711 11.9789 49.4602 11.9622C49.4439 11.94 49.433 11.9234 49.4167 11.9012C49.3786 11.8458 49.3405 11.7848 49.3132 11.7238C49.2969 11.6905 49.2588 11.5962 49.3024 11.7071C49.2425 11.5518 49.0411 11.452 48.905 11.6018C48.5022 12.0565 48.0069 12.5112 47.4518 12.7164C47.3429 12.7553 47.2286 12.7885 47.1089 12.8107C47.0871 12.8163 47.0599 12.8163 47.0381 12.8218C47 12.8274 47.049 12.8218 46.9946 12.8274C46.9401 12.8329 46.8857 12.8329 46.8367 12.8384C46.7877 12.8384 46.7387 12.8384 46.6952 12.8329C46.668 12.8329 46.6462 12.8274 46.619 12.8274C46.6081 12.8274 46.5972 12.8274 46.5863 12.8218C46.5428 12.8163 46.6027 12.8218 46.5754 12.8218C46.4829 12.8052 46.3904 12.783 46.2979 12.7553C46.2543 12.7442 46.2108 12.7275 46.1727 12.7109C46.1563 12.7053 46.1019 12.6832 46.1455 12.6998C46.1182 12.6887 46.0965 12.6776 46.0693 12.6665C45.9876 12.6277 45.9114 12.5833 45.8352 12.5334C45.759 12.4835 45.6828 12.4336 45.612 12.3726C45.6012 12.3671 45.6338 12.3892 45.6012 12.3615C45.5848 12.3449 45.5685 12.3338 45.5467 12.3171C45.5141 12.2894 45.4814 12.2617 45.4488 12.2284C45.329 12.1175 45.2147 12.001 45.1113 11.8735C45.0895 11.8458 45.0678 11.818 45.046 11.7903C45.0351 11.7737 45.0242 11.7626 45.0133 11.7459C44.9807 11.7016 45.0351 11.7792 45.0024 11.7349C44.9643 11.6849 44.9317 11.635 44.8936 11.5851C44.8392 11.5075 44.7902 11.4298 44.7412 11.3467C44.7303 11.3245 44.714 11.3023 44.7031 11.2801C44.6922 11.2635 44.6867 11.2413 44.7031 11.2801C44.5126 10.7976 44.4309 10.2819 44.4962 9.76613C44.4908 9.80495 44.5017 9.73286 44.5017 9.72176C44.5071 9.69404 44.5126 9.66631 44.518 9.64412C44.5289 9.59421 44.5398 9.53876 44.5561 9.48884C44.567 9.44448 44.5833 9.39457 44.5997 9.3502C44.6105 9.32802 44.616 9.30029 44.6269 9.27811C44.6323 9.26702 44.6541 9.21156 44.6486 9.2282C44.6378 9.25038 44.665 9.18938 44.6704 9.17828C44.6813 9.1561 44.6922 9.13392 44.7031 9.11174C44.7248 9.06737 44.7466 9.02855 44.7738 8.98419C44.8174 8.90655 44.8718 8.82891 44.9208 8.75681C44.9426 8.72354 44.9045 8.779 44.9371 8.73463C44.9535 8.71799 44.9643 8.69581 44.9807 8.67917C45.0079 8.6459 45.0405 8.61262 45.0732 8.5738C45.1331 8.50726 45.1984 8.44625 45.2637 8.38525C45.2964 8.35752 45.3236 8.32979 45.3562 8.30761C45.3726 8.29652 45.3834 8.28543 45.3998 8.27434C45.427 8.25215 45.3671 8.29652 45.3943 8.27988C45.4052 8.27434 45.4161 8.26325 45.4215 8.2577C45.4869 8.20779 45.5522 8.16342 45.6175 8.11906C45.7481 8.03587 45.8842 7.95823 46.0203 7.88614C46.0801 7.85841 46.14 7.83068 46.2053 7.80295C46.2543 7.78077 46.1727 7.81959 46.2053 7.80295C46.2162 7.79741 46.2325 7.79186 46.2434 7.78632C46.2706 7.77522 46.2979 7.76413 46.3251 7.75304C46.4666 7.69758 46.6135 7.65876 46.7605 7.6144C46.766 7.6144 46.7768 7.60885 46.7823 7.60885C47.0708 7.52567 46.9456 7.05983 46.6462 7.12638Z" stroke="#F40B0B" stroke-width="0.375" stroke-miterlimit="10"/>
<path d="M47.0377 8.27401C47.0214 8.25183 47.0105 8.2241 46.9942 8.20192C46.9887 8.19637 46.967 8.14646 46.9833 8.17973C46.9996 8.21301 46.9779 8.1631 46.9724 8.15201C46.9561 8.11319 46.9452 8.07437 46.9343 8.03C46.9289 8.00782 46.9234 7.98564 46.918 7.95791C46.918 7.94682 46.9125 7.93572 46.9125 7.92463C46.9071 7.908 46.918 7.969 46.9125 7.92463C46.9071 7.86918 46.9017 7.81372 46.9071 7.75826C46.9071 7.72499 46.9125 7.69726 46.9125 7.66399C46.918 7.60853 46.9071 7.70281 46.9125 7.64735C46.918 7.63071 46.918 7.61407 46.9234 7.59744C46.9398 7.52534 46.9615 7.45325 46.9887 7.3867C47.0269 7.29242 46.9452 7.17596 46.8472 7.15378C46.7329 7.1316 46.6404 7.18706 46.5969 7.28688C46.488 7.55307 46.4662 7.84145 46.537 8.11319C46.5642 8.22965 46.6132 8.35165 46.6839 8.45147C46.7438 8.53466 46.8636 8.57902 46.9615 8.51802C47.0541 8.4792 47.0976 8.36274 47.0377 8.27401Z" fill="#F40B0B"/>
<path d="M47.0377 8.27401C47.0214 8.25183 47.0105 8.2241 46.9942 8.20192C46.9887 8.19637 46.967 8.14646 46.9833 8.17973C46.9996 8.21301 46.9779 8.1631 46.9724 8.15201C46.9561 8.11319 46.9452 8.07437 46.9343 8.03C46.9289 8.00782 46.9234 7.98564 46.918 7.95791C46.918 7.94682 46.9125 7.93572 46.9125 7.92463C46.9071 7.908 46.918 7.969 46.9125 7.92463C46.9071 7.86918 46.9017 7.81372 46.9071 7.75826C46.9071 7.72499 46.9125 7.69726 46.9125 7.66399C46.918 7.60853 46.9071 7.70281 46.9125 7.64735C46.918 7.63071 46.918 7.61407 46.9234 7.59744C46.9398 7.52534 46.9615 7.45325 46.9887 7.3867C47.0269 7.29242 46.9452 7.17596 46.8472 7.15378C46.7329 7.1316 46.6404 7.18706 46.5969 7.28688C46.488 7.55307 46.4662 7.84145 46.537 8.11319C46.5642 8.22965 46.6132 8.35165 46.6839 8.45147C46.7438 8.53466 46.8636 8.57902 46.9615 8.51802C47.0541 8.4792 47.0976 8.36274 47.0377 8.27401Z" stroke="#F40B0B" stroke-width="0.375" stroke-miterlimit="10"/>
<path d="M49.362 11.9068C49.3456 11.8846 49.3347 11.8569 49.3184 11.8347C49.313 11.8292 49.2912 11.7793 49.3075 11.8125C49.3239 11.8458 49.3021 11.7959 49.2966 11.7848C49.2803 11.746 49.2694 11.7072 49.2585 11.6628C49.2531 11.6406 49.2477 11.6184 49.2422 11.5907C49.2422 11.5796 49.2368 11.5685 49.2368 11.5574C49.2313 11.5408 49.2422 11.6018 49.2368 11.5574C49.2313 11.502 49.2259 11.4465 49.2313 11.3911C49.2313 11.3578 49.2368 11.3301 49.2368 11.2968C49.2422 11.2413 49.2313 11.3356 49.2368 11.2802C49.2422 11.2635 49.2422 11.2469 49.2477 11.2302C49.264 11.1582 49.2858 11.0861 49.313 11.0195C49.3511 10.9252 49.2694 10.8088 49.1715 10.7866C49.0571 10.7644 48.9646 10.8199 48.9211 10.9197C48.8122 11.1859 48.7904 11.4743 48.8612 11.746C48.8884 11.8625 48.9374 11.9845 49.0082 12.0843C49.068 12.1675 49.1878 12.2118 49.2858 12.1508C49.3783 12.1176 49.4273 11.9956 49.362 11.9068Z" fill="#F40B0B"/>
<path d="M49.362 11.9068C49.3456 11.8846 49.3347 11.8569 49.3184 11.8347C49.313 11.8292 49.2912 11.7793 49.3075 11.8125C49.3239 11.8458 49.3021 11.7959 49.2966 11.7848C49.2803 11.746 49.2694 11.7072 49.2585 11.6628C49.2531 11.6406 49.2477 11.6184 49.2422 11.5907C49.2422 11.5796 49.2368 11.5685 49.2368 11.5574C49.2313 11.5408 49.2422 11.6018 49.2368 11.5574C49.2313 11.502 49.2259 11.4465 49.2313 11.3911C49.2313 11.3578 49.2368 11.3301 49.2368 11.2968C49.2422 11.2413 49.2313 11.3356 49.2368 11.2802C49.2422 11.2635 49.2422 11.2469 49.2477 11.2302C49.264 11.1582 49.2858 11.0861 49.313 11.0195C49.3511 10.9252 49.2694 10.8088 49.1715 10.7866C49.0571 10.7644 48.9646 10.8199 48.9211 10.9197C48.8122 11.1859 48.7904 11.4743 48.8612 11.746C48.8884 11.8625 48.9374 11.9845 49.0082 12.0843C49.068 12.1675 49.1878 12.2118 49.2858 12.1508C49.3783 12.1176 49.4273 11.9956 49.362 11.9068Z" stroke="#F40B0B" stroke-width="0.375" stroke-miterlimit="10"/>
<path d="M48.8118 10.0375C49.0132 10.0764 49.22 10.0874 49.4214 10.0874C49.7806 10.0819 50.1725 10.0154 50.4719 9.79352C50.6678 9.64933 50.8039 9.44969 50.8801 9.21123C50.9509 8.97276 50.6025 8.87294 50.5263 9.10586C50.51 9.15577 50.51 9.15577 50.4882 9.20013C50.4664 9.2445 50.4447 9.28332 50.4175 9.32214C50.4338 9.29996 50.4066 9.33323 50.4011 9.33878C50.3848 9.35541 50.3739 9.37205 50.3576 9.38314C50.3413 9.39978 50.3304 9.41087 50.314 9.42751C50.3086 9.43305 50.3032 9.4386 50.2923 9.44414C50.2705 9.46633 50.3086 9.42751 50.2868 9.44969C50.227 9.49406 50.1344 9.54951 50.0854 9.56615C50.0365 9.58833 49.933 9.62161 49.8623 9.63824C49.8242 9.64933 49.7861 9.65488 49.748 9.66043C49.7317 9.66597 49.7153 9.66597 49.6936 9.67152C49.6555 9.67706 49.6827 9.67152 49.6881 9.67152C49.6772 9.67152 49.6663 9.67706 49.6555 9.67706C49.5792 9.68816 49.4976 9.6937 49.4214 9.6937C49.2962 9.69925 49.1656 9.6937 49.0404 9.67706C49.0132 9.67706 48.986 9.67152 48.9588 9.66597C48.9479 9.66597 48.937 9.66597 48.9315 9.66043C48.9043 9.65488 48.9805 9.66597 48.9479 9.66043C48.9315 9.66043 48.9152 9.65488 48.8989 9.65488C48.8009 9.63824 48.7029 9.68261 48.6757 9.78798C48.6594 9.89335 48.7138 10.0209 48.8118 10.0375Z" fill="#F40B0B"/>
<path d="M48.8118 10.0375C49.0132 10.0764 49.22 10.0874 49.4214 10.0874C49.7806 10.0819 50.1725 10.0154 50.4719 9.79352C50.6678 9.64933 50.8039 9.44969 50.8801 9.21123C50.9509 8.97276 50.6025 8.87294 50.5263 9.10586C50.51 9.15577 50.51 9.15577 50.4882 9.20013C50.4664 9.2445 50.4447 9.28332 50.4175 9.32214C50.4338 9.29996 50.4066 9.33323 50.4011 9.33878C50.3848 9.35541 50.3739 9.37205 50.3576 9.38314C50.3413 9.39978 50.3304 9.41087 50.314 9.42751C50.3086 9.43305 50.3032 9.4386 50.2923 9.44414C50.2705 9.46633 50.3086 9.42751 50.2868 9.44969C50.227 9.49406 50.1344 9.54951 50.0854 9.56615C50.0365 9.58833 49.933 9.62161 49.8623 9.63824C49.8242 9.64933 49.7861 9.65488 49.748 9.66043C49.7317 9.66597 49.7153 9.66597 49.6936 9.67152C49.6555 9.67706 49.6827 9.67152 49.6881 9.67152C49.6772 9.67152 49.6663 9.67706 49.6555 9.67706C49.5792 9.68816 49.4976 9.6937 49.4214 9.6937C49.2962 9.69925 49.1656 9.6937 49.0404 9.67706C49.0132 9.67706 48.986 9.67152 48.9588 9.66597C48.9479 9.66597 48.937 9.66597 48.9315 9.66043C48.9043 9.65488 48.9805 9.66597 48.9479 9.66043C48.9315 9.66043 48.9152 9.65488 48.8989 9.65488C48.8009 9.63824 48.7029 9.68261 48.6757 9.78798C48.6594 9.89335 48.7138 10.0209 48.8118 10.0375Z" stroke="#F40B0B" stroke-width="0.375" stroke-miterlimit="10"/>
<path d="M99.6766 29.1761C99.6766 29.1761 96.2693 29.9303 97.445 33.1801C97.445 33.1801 99.2575 36.7182 102.033 33.5627C102.033 33.5627 102.904 35.7976 106.105 34.1949C106.105 34.1949 108.238 32.7641 106.246 29.9248C106.246 29.9248 105.936 29.6086 105.599 29.7528C105.599 29.7528 107.226 27.4625 104.363 27.2295C104.363 27.2295 103.715 27.3127 103.579 27.6621C103.579 27.6566 100.743 25.7655 99.6766 29.1761Z" fill="#FDFDFD"/>
<path d="M99.6766 29.1761C99.6766 29.1761 96.2693 29.9303 97.445 33.1801C97.445 33.1801 99.2575 36.7182 102.033 33.5627C102.033 33.5627 102.904 35.7976 106.105 34.1949C106.105 34.1949 108.238 32.7641 106.246 29.9248C106.246 29.9248 105.936 29.6086 105.599 29.7528C105.599 29.7528 107.226 27.4625 104.363 27.2295C104.363 27.2295 103.715 27.3127 103.579 27.6621C103.579 27.6566 100.743 25.7655 99.6766 29.1761Z" stroke="#F40B0B" stroke-width="0.375" stroke-miterlimit="10"/>
<path d="M99.6169 28.9428C99.225 29.0315 98.8386 29.2034 98.4957 29.4086C97.8099 29.8079 97.2383 30.429 97.0478 31.2276C96.9227 31.7545 96.9608 32.309 97.0968 32.8303C97.1621 33.0799 97.2383 33.3017 97.3744 33.518C97.7391 34.0947 98.2453 34.6327 98.8712 34.91C99.3012 35.1041 99.7639 35.154 100.227 35.0597C100.82 34.9377 101.348 34.5772 101.789 34.1668C101.936 34.0282 102.077 33.884 102.208 33.7343C102.077 33.701 101.946 33.6622 101.81 33.6289C101.93 33.9339 102.142 34.2112 102.382 34.4219C102.953 34.921 103.699 35.0819 104.434 34.9876C105.033 34.91 105.604 34.7048 106.143 34.4386C106.279 34.372 106.393 34.2722 106.497 34.1668C106.981 33.6954 107.275 33.0521 107.324 32.37C107.357 31.8432 107.232 31.3163 107.03 30.8394C106.9 30.5289 106.736 30.2349 106.551 29.9576C106.41 29.7414 106.252 29.5916 106.001 29.514C105.849 29.4696 105.68 29.4696 105.533 29.5251C105.62 29.6415 105.713 29.7635 105.8 29.88C106.05 29.5251 106.23 29.087 106.279 28.6544C106.323 28.3161 106.252 27.9667 106.04 27.6895C105.751 27.3124 105.278 27.1349 104.831 27.0572C104.663 27.024 104.467 26.9796 104.292 27.0073C104.222 27.0184 104.145 27.0351 104.075 27.0517C103.803 27.1293 103.492 27.268 103.367 27.5453C103.476 27.5175 103.585 27.4898 103.688 27.4565C103.356 27.2403 102.964 27.0794 102.583 26.9907C101.81 26.8021 101.01 26.9242 100.401 27.4676C99.9217 27.8946 99.6332 28.5102 99.4427 29.1202C99.3502 29.4142 99.8074 29.5417 99.8999 29.2478C100.058 28.7487 100.286 28.2551 100.646 27.8946C100.787 27.7505 100.896 27.6673 101.092 27.5675C101.108 27.5564 101.13 27.5453 101.146 27.5397C101.157 27.5342 101.206 27.512 101.184 27.5231C101.163 27.5342 101.223 27.5064 101.228 27.5064C101.25 27.5009 101.272 27.4898 101.293 27.4843C101.375 27.4565 101.457 27.4344 101.538 27.4177C101.56 27.4122 101.582 27.4122 101.604 27.4066C101.625 27.4011 101.658 27.4011 101.614 27.4066C101.658 27.4011 101.702 27.3955 101.745 27.3955C101.827 27.39 101.903 27.39 101.985 27.3955C102.023 27.3955 102.061 27.4011 102.104 27.4011C102.121 27.4011 102.142 27.4066 102.159 27.4066C102.17 27.4066 102.24 27.4177 102.208 27.4122C102.175 27.4066 102.23 27.4177 102.235 27.4177C102.251 27.4177 102.268 27.4233 102.289 27.4288C102.327 27.4344 102.371 27.4454 102.409 27.451C102.551 27.4843 102.687 27.5231 102.823 27.573C102.883 27.5952 102.943 27.6174 102.997 27.6395C103.041 27.6562 102.992 27.6395 102.997 27.6395C103.008 27.6451 103.019 27.6506 103.035 27.6562C103.062 27.6673 103.089 27.6784 103.117 27.695C103.236 27.7505 103.351 27.8115 103.46 27.8836C103.558 27.9501 103.732 27.9113 103.781 27.7948C103.808 27.7338 103.803 27.7449 103.835 27.7061C103.868 27.6728 103.89 27.6617 103.944 27.6229C104.031 27.573 104.091 27.5508 104.2 27.5231C104.265 27.5065 104.33 27.4954 104.401 27.4787C104.407 27.4787 104.412 27.4787 104.418 27.4787C104.401 27.4843 104.33 27.4732 104.374 27.4898C104.39 27.4954 104.412 27.4954 104.428 27.4954C104.499 27.5009 104.57 27.512 104.641 27.5231C104.771 27.5453 104.897 27.573 105.022 27.6063C105.131 27.6395 105.218 27.6728 105.294 27.7061C105.376 27.7449 105.457 27.7948 105.528 27.8503C105.495 27.8281 105.528 27.8503 105.539 27.8614C105.55 27.8725 105.566 27.8836 105.582 27.9002C105.61 27.9279 105.637 27.9557 105.664 27.9834C105.702 28.0277 105.653 27.9612 105.675 27.9945C105.686 28.0056 105.691 28.0222 105.702 28.0388C105.724 28.0666 105.74 28.0998 105.751 28.1331C105.762 28.1553 105.773 28.1886 105.757 28.1387C105.762 28.1553 105.767 28.1664 105.773 28.183C105.784 28.2163 105.795 28.2496 105.8 28.2828C105.806 28.3106 105.816 28.4049 105.811 28.3328C105.816 28.366 105.816 28.3993 105.816 28.4326C105.816 28.4991 105.811 28.5657 105.806 28.6378C105.8 28.6877 105.811 28.6211 105.806 28.6378C105.8 28.6544 105.8 28.6766 105.795 28.6932C105.789 28.7265 105.784 28.7598 105.773 28.7931C105.757 28.8596 105.74 28.9206 105.718 28.9872C105.708 29.0149 105.702 29.0426 105.691 29.0703C105.686 29.087 105.68 29.1036 105.675 29.1202C105.659 29.1646 105.675 29.1202 105.675 29.1202C105.653 29.1757 105.626 29.2256 105.604 29.2811C105.544 29.4086 105.474 29.5362 105.392 29.6526C105.272 29.819 105.474 30.0797 105.659 30.0076C105.762 29.9687 105.849 29.9743 105.936 30.0242C105.974 30.0408 106.007 30.063 106.04 30.0907C105.996 30.0575 106.061 30.1074 106.072 30.1185C106.034 30.0741 106.121 30.1906 106.116 30.185C106.138 30.2183 106.159 30.246 106.176 30.2793C106.219 30.3458 106.263 30.4124 106.301 30.4789C106.382 30.6176 106.459 30.7562 106.529 30.9004C106.731 31.3274 106.861 31.7877 106.856 32.2536C106.856 32.4643 106.84 32.5808 106.785 32.786C106.736 32.969 106.704 33.0632 106.633 33.1963C106.568 33.3239 106.497 33.4459 106.415 33.5624C106.404 33.5734 106.399 33.5845 106.393 33.5956C106.431 33.5402 106.399 33.5901 106.393 33.5956C106.377 33.6178 106.355 33.6455 106.333 33.6677C106.295 33.7121 106.263 33.7509 106.219 33.7897C106.165 33.8507 106.105 33.9062 106.04 33.9561C106.029 33.9672 106.012 33.9727 106.001 33.9838C105.991 33.9949 106.061 33.945 106.018 33.9727C106.007 33.9783 105.996 33.9894 105.985 34.0005C105.8 34.1169 105.577 34.1946 105.376 34.2722C105.125 34.3665 104.864 34.4441 104.603 34.494C104.407 34.5328 104.216 34.5495 104.009 34.5495C103.922 34.5495 103.835 34.5439 103.748 34.5328C103.743 34.5328 103.666 34.5218 103.721 34.5328C103.699 34.5273 103.677 34.5273 103.656 34.5218C103.607 34.5107 103.558 34.5051 103.509 34.494C103.438 34.4774 103.367 34.4552 103.296 34.433C103.264 34.4219 103.231 34.4108 103.198 34.3942C103.187 34.3887 103.144 34.372 103.193 34.3942C103.171 34.3831 103.149 34.372 103.128 34.3609C103.008 34.2999 102.899 34.2278 102.785 34.1502C102.774 34.1391 102.741 34.1169 102.79 34.1557C102.774 34.1446 102.757 34.128 102.741 34.1169C102.714 34.0947 102.687 34.0726 102.665 34.0504C102.621 34.0116 102.578 33.9672 102.54 33.9228C102.502 33.884 102.469 33.8396 102.436 33.7953C102.491 33.8618 102.436 33.7953 102.425 33.7786C102.409 33.7564 102.398 33.7398 102.382 33.7176C102.344 33.6622 102.311 33.6012 102.279 33.5402C102.262 33.5069 102.224 33.4126 102.268 33.5235C102.208 33.3683 102.006 33.2684 101.87 33.4182C101.468 33.8729 100.972 34.3277 100.417 34.5328C100.308 34.5717 100.194 34.6049 100.074 34.6271C100.052 34.6327 100.025 34.6327 100.003 34.6382C99.9653 34.6438 100.014 34.6382 99.9598 34.6438C99.9054 34.6493 99.851 34.6493 99.802 34.6549C99.753 34.6549 99.704 34.6549 99.6605 34.6493C99.6332 34.6493 99.6115 34.6438 99.5843 34.6438C99.5734 34.6438 99.5625 34.6438 99.5516 34.6382C99.508 34.6327 99.5679 34.6382 99.5407 34.6382C99.4482 34.6216 99.3556 34.5994 99.2631 34.5717C99.2196 34.5606 99.176 34.5439 99.1379 34.5273C99.127 34.5218 99.0672 34.4996 99.1107 34.5162C99.0835 34.5051 99.0617 34.494 99.0345 34.4829C98.9529 34.4441 98.8767 34.3997 98.8005 34.3498C98.7243 34.2999 98.6481 34.25 98.5773 34.189C98.5664 34.1835 98.5991 34.2057 98.5664 34.1779C98.5501 34.1613 98.5338 34.1502 98.512 34.1336C98.4793 34.1058 98.4467 34.0781 98.414 34.0448C98.2943 33.9339 98.18 33.8175 98.0766 33.6899C98.0548 33.6622 98.033 33.6344 98.0112 33.6067C98.0004 33.5901 97.9895 33.579 97.9786 33.5624C97.9459 33.518 98.0004 33.5956 97.9677 33.5513C97.9296 33.5013 97.8969 33.4514 97.8588 33.4015C97.8044 33.3239 97.7554 33.2462 97.7064 33.1631C97.6955 33.1409 97.6792 33.1187 97.6683 33.0965C97.6575 33.0799 97.652 33.0577 97.6683 33.0965C97.4778 32.614 97.3962 32.0983 97.4615 31.5825C97.4561 31.6214 97.467 31.5493 97.467 31.5382C97.4724 31.5104 97.4778 31.4827 97.4833 31.4605C97.4942 31.4106 97.505 31.3552 97.5214 31.3053C97.5323 31.2609 97.5486 31.211 97.5649 31.1666C97.5704 31.1444 97.5813 31.1167 97.5921 31.0945C97.5976 31.0834 97.6193 31.028 97.6139 31.0446C97.603 31.0668 97.6302 31.0058 97.6357 30.9947C97.6466 30.9725 97.6575 30.9503 97.6683 30.9281C97.6901 30.8838 97.7119 30.845 97.7391 30.8006C97.7826 30.723 97.8371 30.6453 97.8861 30.5732C97.9078 30.5399 97.8697 30.5954 97.9024 30.551C97.9187 30.5344 97.9296 30.5122 97.9459 30.4956C97.9731 30.4623 98.0058 30.429 98.0385 30.3902C98.0983 30.3237 98.1636 30.2627 98.229 30.2017C98.2616 30.1739 98.2888 30.1462 98.3215 30.124C98.3378 30.1129 98.3487 30.1018 98.365 30.0907C98.3922 30.0686 98.3324 30.1129 98.3596 30.0963C98.3705 30.0907 98.3814 30.0797 98.3868 30.0741C98.4521 30.0242 98.5174 29.9798 98.5827 29.9355C98.7134 29.8523 98.8495 29.7746 98.9855 29.7025C99.0454 29.6748 99.1053 29.6471 99.1706 29.6194C99.2196 29.5972 99.1325 29.636 99.1706 29.6194C99.1815 29.6138 99.1978 29.6083 99.2087 29.6027C99.2359 29.5916 99.2631 29.5805 99.2903 29.5694C99.4318 29.514 99.5788 29.4752 99.7258 29.4308C99.7312 29.4308 99.7421 29.4253 99.7475 29.4253C100.041 29.3421 99.9163 28.8762 99.6169 28.9428Z" fill="#F40B0B"/>
<path d="M99.6169 28.9428C99.225 29.0315 98.8386 29.2034 98.4957 29.4086C97.8099 29.8079 97.2383 30.429 97.0478 31.2276C96.9227 31.7545 96.9608 32.309 97.0968 32.8303C97.1621 33.0799 97.2383 33.3017 97.3744 33.518C97.7391 34.0947 98.2453 34.6327 98.8712 34.91C99.3012 35.1041 99.7639 35.154 100.227 35.0597C100.82 34.9377 101.348 34.5772 101.789 34.1668C101.936 34.0282 102.077 33.884 102.208 33.7343C102.077 33.701 101.946 33.6622 101.81 33.6289C101.93 33.9339 102.142 34.2112 102.382 34.4219C102.953 34.921 103.699 35.0819 104.434 34.9876C105.033 34.91 105.604 34.7048 106.143 34.4386C106.279 34.372 106.393 34.2722 106.497 34.1668C106.981 33.6954 107.275 33.0521 107.324 32.37C107.357 31.8432 107.232 31.3163 107.03 30.8394C106.9 30.5289 106.736 30.2349 106.551 29.9576C106.41 29.7414 106.252 29.5916 106.001 29.514C105.849 29.4696 105.68 29.4696 105.533 29.5251C105.62 29.6415 105.713 29.7635 105.8 29.88C106.05 29.5251 106.23 29.087 106.279 28.6544C106.323 28.3161 106.252 27.9667 106.04 27.6895C105.751 27.3124 105.278 27.1349 104.831 27.0572C104.663 27.024 104.467 26.9796 104.292 27.0073C104.222 27.0184 104.145 27.0351 104.075 27.0517C103.803 27.1293 103.492 27.268 103.367 27.5453C103.476 27.5175 103.585 27.4898 103.688 27.4565C103.356 27.2403 102.964 27.0794 102.583 26.9907C101.81 26.8021 101.01 26.9242 100.401 27.4676C99.9217 27.8946 99.6332 28.5102 99.4427 29.1202C99.3502 29.4142 99.8074 29.5417 99.8999 29.2478C100.058 28.7487 100.286 28.2551 100.646 27.8946C100.787 27.7505 100.896 27.6673 101.092 27.5675C101.108 27.5564 101.13 27.5453 101.146 27.5397C101.157 27.5342 101.206 27.512 101.184 27.5231C101.163 27.5342 101.223 27.5064 101.228 27.5064C101.25 27.5009 101.272 27.4898 101.293 27.4843C101.375 27.4565 101.457 27.4344 101.538 27.4177C101.56 27.4122 101.582 27.4122 101.604 27.4066C101.625 27.4011 101.658 27.4011 101.614 27.4066C101.658 27.4011 101.702 27.3955 101.745 27.3955C101.827 27.39 101.903 27.39 101.985 27.3955C102.023 27.3955 102.061 27.4011 102.104 27.4011C102.121 27.4011 102.142 27.4066 102.159 27.4066C102.17 27.4066 102.24 27.4177 102.208 27.4122C102.175 27.4066 102.23 27.4177 102.235 27.4177C102.251 27.4177 102.268 27.4233 102.289 27.4288C102.327 27.4344 102.371 27.4454 102.409 27.451C102.551 27.4843 102.687 27.5231 102.823 27.573C102.883 27.5952 102.943 27.6174 102.997 27.6395C103.041 27.6562 102.992 27.6395 102.997 27.6395C103.008 27.6451 103.019 27.6506 103.035 27.6562C103.062 27.6673 103.089 27.6784 103.117 27.695C103.236 27.7505 103.351 27.8115 103.46 27.8836C103.558 27.9501 103.732 27.9113 103.781 27.7948C103.808 27.7338 103.803 27.7449 103.835 27.7061C103.868 27.6728 103.89 27.6617 103.944 27.6229C104.031 27.573 104.091 27.5508 104.2 27.5231C104.265 27.5065 104.33 27.4954 104.401 27.4787C104.407 27.4787 104.412 27.4787 104.418 27.4787C104.401 27.4843 104.33 27.4732 104.374 27.4898C104.39 27.4954 104.412 27.4954 104.428 27.4954C104.499 27.5009 104.57 27.512 104.641 27.5231C104.771 27.5453 104.897 27.573 105.022 27.6063C105.131 27.6395 105.218 27.6728 105.294 27.7061C105.376 27.7449 105.457 27.7948 105.528 27.8503C105.495 27.8281 105.528 27.8503 105.539 27.8614C105.55 27.8725 105.566 27.8836 105.582 27.9002C105.61 27.9279 105.637 27.9557 105.664 27.9834C105.702 28.0277 105.653 27.9612 105.675 27.9945C105.686 28.0056 105.691 28.0222 105.702 28.0388C105.724 28.0666 105.74 28.0998 105.751 28.1331C105.762 28.1553 105.773 28.1886 105.757 28.1387C105.762 28.1553 105.767 28.1664 105.773 28.183C105.784 28.2163 105.795 28.2496 105.8 28.2828C105.806 28.3106 105.816 28.4049 105.811 28.3328C105.816 28.366 105.816 28.3993 105.816 28.4326C105.816 28.4991 105.811 28.5657 105.806 28.6378C105.8 28.6877 105.811 28.6211 105.806 28.6378C105.8 28.6544 105.8 28.6766 105.795 28.6932C105.789 28.7265 105.784 28.7598 105.773 28.7931C105.757 28.8596 105.74 28.9206 105.718 28.9872C105.708 29.0149 105.702 29.0426 105.691 29.0703C105.686 29.087 105.68 29.1036 105.675 29.1202C105.659 29.1646 105.675 29.1202 105.675 29.1202C105.653 29.1757 105.626 29.2256 105.604 29.2811C105.544 29.4086 105.474 29.5362 105.392 29.6526C105.272 29.819 105.474 30.0797 105.659 30.0076C105.762 29.9687 105.849 29.9743 105.936 30.0242C105.974 30.0408 106.007 30.063 106.04 30.0907C105.996 30.0575 106.061 30.1074 106.072 30.1185C106.034 30.0741 106.121 30.1906 106.116 30.185C106.138 30.2183 106.159 30.246 106.176 30.2793C106.219 30.3458 106.263 30.4124 106.301 30.4789C106.382 30.6176 106.459 30.7562 106.529 30.9004C106.731 31.3274 106.861 31.7877 106.856 32.2536C106.856 32.4643 106.84 32.5808 106.785 32.786C106.736 32.969 106.704 33.0632 106.633 33.1963C106.568 33.3239 106.497 33.4459 106.415 33.5624C106.404 33.5734 106.399 33.5845 106.393 33.5956C106.431 33.5402 106.399 33.5901 106.393 33.5956C106.377 33.6178 106.355 33.6455 106.333 33.6677C106.295 33.7121 106.263 33.7509 106.219 33.7897C106.165 33.8507 106.105 33.9062 106.04 33.9561C106.029 33.9672 106.012 33.9727 106.001 33.9838C105.991 33.9949 106.061 33.945 106.018 33.9727C106.007 33.9783 105.996 33.9894 105.985 34.0005C105.8 34.1169 105.577 34.1946 105.376 34.2722C105.125 34.3665 104.864 34.4441 104.603 34.494C104.407 34.5328 104.216 34.5495 104.009 34.5495C103.922 34.5495 103.835 34.5439 103.748 34.5328C103.743 34.5328 103.666 34.5218 103.721 34.5328C103.699 34.5273 103.677 34.5273 103.656 34.5218C103.607 34.5107 103.558 34.5051 103.509 34.494C103.438 34.4774 103.367 34.4552 103.296 34.433C103.264 34.4219 103.231 34.4108 103.198 34.3942C103.187 34.3887 103.144 34.372 103.193 34.3942C103.171 34.3831 103.149 34.372 103.128 34.3609C103.008 34.2999 102.899 34.2278 102.785 34.1502C102.774 34.1391 102.741 34.1169 102.79 34.1557C102.774 34.1446 102.757 34.128 102.741 34.1169C102.714 34.0947 102.687 34.0726 102.665 34.0504C102.621 34.0116 102.578 33.9672 102.54 33.9228C102.502 33.884 102.469 33.8396 102.436 33.7953C102.491 33.8618 102.436 33.7953 102.425 33.7786C102.409 33.7564 102.398 33.7398 102.382 33.7176C102.344 33.6622 102.311 33.6012 102.279 33.5402C102.262 33.5069 102.224 33.4126 102.268 33.5235C102.208 33.3683 102.006 33.2684 101.87 33.4182C101.468 33.8729 100.972 34.3277 100.417 34.5328C100.308 34.5717 100.194 34.6049 100.074 34.6271C100.052 34.6327 100.025 34.6327 100.003 34.6382C99.9653 34.6438 100.014 34.6382 99.9598 34.6438C99.9054 34.6493 99.851 34.6493 99.802 34.6549C99.753 34.6549 99.704 34.6549 99.6605 34.6493C99.6332 34.6493 99.6115 34.6438 99.5843 34.6438C99.5734 34.6438 99.5625 34.6438 99.5516 34.6382C99.508 34.6327 99.5679 34.6382 99.5407 34.6382C99.4482 34.6216 99.3556 34.5994 99.2631 34.5717C99.2196 34.5606 99.176 34.5439 99.1379 34.5273C99.127 34.5218 99.0672 34.4996 99.1107 34.5162C99.0835 34.5051 99.0617 34.494 99.0345 34.4829C98.9529 34.4441 98.8767 34.3997 98.8005 34.3498C98.7243 34.2999 98.6481 34.25 98.5773 34.189C98.5664 34.1835 98.5991 34.2057 98.5664 34.1779C98.5501 34.1613 98.5338 34.1502 98.512 34.1336C98.4793 34.1058 98.4467 34.0781 98.414 34.0448C98.2943 33.9339 98.18 33.8175 98.0766 33.6899C98.0548 33.6622 98.033 33.6344 98.0112 33.6067C98.0004 33.5901 97.9895 33.579 97.9786 33.5624C97.9459 33.518 98.0004 33.5956 97.9677 33.5513C97.9296 33.5013 97.8969 33.4514 97.8588 33.4015C97.8044 33.3239 97.7554 33.2462 97.7064 33.1631C97.6955 33.1409 97.6792 33.1187 97.6683 33.0965C97.6575 33.0799 97.652 33.0577 97.6683 33.0965C97.4778 32.614 97.3962 32.0983 97.4615 31.5825C97.4561 31.6214 97.467 31.5493 97.467 31.5382C97.4724 31.5104 97.4778 31.4827 97.4833 31.4605C97.4942 31.4106 97.505 31.3552 97.5214 31.3053C97.5323 31.2609 97.5486 31.211 97.5649 31.1666C97.5704 31.1444 97.5813 31.1167 97.5921 31.0945C97.5976 31.0834 97.6193 31.028 97.6139 31.0446C97.603 31.0668 97.6302 31.0058 97.6357 30.9947C97.6466 30.9725 97.6575 30.9503 97.6683 30.9281C97.6901 30.8838 97.7119 30.845 97.7391 30.8006C97.7826 30.723 97.8371 30.6453 97.8861 30.5732C97.9078 30.5399 97.8697 30.5954 97.9024 30.551C97.9187 30.5344 97.9296 30.5122 97.9459 30.4956C97.9731 30.4623 98.0058 30.429 98.0385 30.3902C98.0983 30.3237 98.1636 30.2627 98.229 30.2017C98.2616 30.1739 98.2888 30.1462 98.3215 30.124C98.3378 30.1129 98.3487 30.1018 98.365 30.0907C98.3922 30.0686 98.3324 30.1129 98.3596 30.0963C98.3705 30.0907 98.3814 30.0797 98.3868 30.0741C98.4521 30.0242 98.5174 29.9798 98.5827 29.9355C98.7134 29.8523 98.8495 29.7746 98.9855 29.7025C99.0454 29.6748 99.1053 29.6471 99.1706 29.6194C99.2196 29.5972 99.1325 29.636 99.1706 29.6194C99.1815 29.6138 99.1978 29.6083 99.2087 29.6027C99.2359 29.5916 99.2631 29.5805 99.2903 29.5694C99.4318 29.514 99.5788 29.4752 99.7258 29.4308C99.7312 29.4308 99.7421 29.4253 99.7475 29.4253C100.041 29.3421 99.9163 28.8762 99.6169 28.9428Z" stroke="#F40B0B" stroke-width="0.375" stroke-miterlimit="10"/>
<path d="M100.008 30.0909C99.9921 30.0687 99.9812 30.041 99.9649 30.0188C99.9595 30.0133 99.9377 29.9634 99.954 29.9966C99.9703 30.0299 99.9486 29.98 99.9431 29.9689C99.9268 29.9301 99.9159 29.8913 99.905 29.8469C99.8996 29.8247 99.8941 29.8025 99.8887 29.7748C99.8887 29.7637 99.8832 29.7526 99.8832 29.7415C99.8778 29.7249 99.8887 29.7859 99.8832 29.7415C99.8778 29.6861 99.8724 29.6306 99.8778 29.5752C99.8778 29.5419 99.8832 29.5142 99.8832 29.4809C99.8887 29.4254 99.8724 29.5197 99.8832 29.4642C99.8887 29.4476 99.8887 29.431 99.8941 29.4143C99.9105 29.3422 99.9322 29.2701 99.9594 29.2036C99.9975 29.1093 99.9159 28.9929 99.8179 28.9707C99.7036 28.9485 99.6111 29.0039 99.5676 29.1038C99.4587 29.37 99.4369 29.6583 99.5077 29.9301C99.5349 30.0465 99.5839 30.1685 99.6546 30.2684C99.7145 30.3516 99.8343 30.3959 99.9322 30.3349C100.019 30.2961 100.068 30.1796 100.008 30.0909Z" fill="#F40B0B"/>
<path d="M100.008 30.0909C99.9921 30.0687 99.9812 30.041 99.9649 30.0188C99.9595 30.0133 99.9377 29.9634 99.954 29.9966C99.9703 30.0299 99.9486 29.98 99.9431 29.9689C99.9268 29.9301 99.9159 29.8913 99.905 29.8469C99.8996 29.8247 99.8941 29.8025 99.8887 29.7748C99.8887 29.7637 99.8832 29.7526 99.8832 29.7415C99.8778 29.7249 99.8887 29.7859 99.8832 29.7415C99.8778 29.6861 99.8724 29.6306 99.8778 29.5752C99.8778 29.5419 99.8832 29.5142 99.8832 29.4809C99.8887 29.4254 99.8724 29.5197 99.8832 29.4642C99.8887 29.4476 99.8887 29.431 99.8941 29.4143C99.9105 29.3422 99.9322 29.2701 99.9594 29.2036C99.9975 29.1093 99.9159 28.9929 99.8179 28.9707C99.7036 28.9485 99.6111 29.0039 99.5676 29.1038C99.4587 29.37 99.4369 29.6583 99.5077 29.9301C99.5349 30.0465 99.5839 30.1685 99.6546 30.2684C99.7145 30.3516 99.8343 30.3959 99.9322 30.3349C100.019 30.2961 100.068 30.1796 100.008 30.0909Z" stroke="#F40B0B" stroke-width="0.375" stroke-miterlimit="10"/>
<path d="M102.333 33.7232C102.316 33.701 102.305 33.6733 102.289 33.6511C102.284 33.6456 102.262 33.5957 102.278 33.629C102.295 33.6622 102.273 33.6123 102.267 33.6012C102.251 33.5624 102.24 33.5236 102.229 33.4792C102.224 33.457 102.218 33.4349 102.213 33.4071C102.213 33.396 102.207 33.3849 102.207 33.3739C102.202 33.3572 102.213 33.4182 102.207 33.3739C102.202 33.3184 102.197 33.2629 102.202 33.2075C102.202 33.1742 102.207 33.1465 102.207 33.1132C102.213 33.0577 102.202 33.152 102.207 33.0966C102.213 33.0799 102.213 33.0633 102.218 33.0467C102.235 32.9746 102.256 32.9025 102.284 32.8359C102.322 32.7416 102.24 32.6252 102.142 32.603C102.028 32.5808 101.935 32.6363 101.892 32.7361C101.783 33.0023 101.761 33.2907 101.832 33.5624C101.859 33.6789 101.908 33.8009 101.979 33.9007C102.039 33.9839 102.158 34.0282 102.256 33.9672C102.349 33.9284 102.398 33.812 102.333 33.7232Z" fill="#F40B0B"/>
<path d="M102.333 33.7232C102.316 33.701 102.305 33.6733 102.289 33.6511C102.284 33.6456 102.262 33.5957 102.278 33.629C102.295 33.6622 102.273 33.6123 102.267 33.6012C102.251 33.5624 102.24 33.5236 102.229 33.4792C102.224 33.457 102.218 33.4349 102.213 33.4071C102.213 33.396 102.207 33.3849 102.207 33.3739C102.202 33.3572 102.213 33.4182 102.207 33.3739C102.202 33.3184 102.197 33.2629 102.202 33.2075C102.202 33.1742 102.207 33.1465 102.207 33.1132C102.213 33.0577 102.202 33.152 102.207 33.0966C102.213 33.0799 102.213 33.0633 102.218 33.0467C102.235 32.9746 102.256 32.9025 102.284 32.8359C102.322 32.7416 102.24 32.6252 102.142 32.603C102.028 32.5808 101.935 32.6363 101.892 32.7361C101.783 33.0023 101.761 33.2907 101.832 33.5624C101.859 33.6789 101.908 33.8009 101.979 33.9007C102.039 33.9839 102.158 34.0282 102.256 33.9672C102.349 33.9284 102.398 33.812 102.333 33.7232Z" stroke="#F40B0B" stroke-width="0.375" stroke-miterlimit="10"/>
<path d="M101.782 31.8544C101.984 31.8932 102.191 31.9043 102.392 31.9043C102.751 31.8988 103.143 31.8322 103.443 31.6104C103.639 31.4662 103.775 31.2666 103.851 31.0281C103.922 30.7897 103.573 30.6898 103.497 30.9228C103.481 30.9727 103.481 30.9727 103.459 31.017C103.437 31.0614 103.415 31.1002 103.388 31.139C103.404 31.1169 103.377 31.1501 103.372 31.1557C103.356 31.1723 103.345 31.1889 103.328 31.2C103.312 31.2167 103.301 31.2278 103.285 31.2444C103.279 31.2499 103.274 31.2555 103.263 31.261C103.241 31.2832 103.279 31.2444 103.258 31.2666C103.198 31.311 103.105 31.3664 103.056 31.383C103.007 31.4052 102.904 31.4385 102.833 31.4551C102.795 31.4662 102.757 31.4718 102.719 31.4773C102.702 31.4829 102.686 31.4829 102.664 31.4884C102.626 31.494 102.653 31.4884 102.659 31.4884C102.648 31.4884 102.637 31.494 102.626 31.494C102.55 31.5051 102.468 31.5106 102.392 31.5106C102.267 31.5161 102.136 31.5106 102.011 31.494C101.984 31.494 101.957 31.4884 101.929 31.4829C101.919 31.4829 101.908 31.4829 101.902 31.4773C101.875 31.4718 101.951 31.4829 101.919 31.4773C101.902 31.4773 101.886 31.4718 101.87 31.4718C101.772 31.4551 101.674 31.4995 101.646 31.6049C101.63 31.7102 101.685 31.8322 101.782 31.8544Z" fill="#F40B0B"/>
<path d="M101.782 31.8544C101.984 31.8932 102.191 31.9043 102.392 31.9043C102.751 31.8988 103.143 31.8322 103.443 31.6104C103.639 31.4662 103.775 31.2666 103.851 31.0281C103.922 30.7897 103.573 30.6898 103.497 30.9228C103.481 30.9727 103.481 30.9727 103.459 31.017C103.437 31.0614 103.415 31.1002 103.388 31.139C103.404 31.1169 103.377 31.1501 103.372 31.1557C103.356 31.1723 103.345 31.1889 103.328 31.2C103.312 31.2167 103.301 31.2278 103.285 31.2444C103.279 31.2499 103.274 31.2555 103.263 31.261C103.241 31.2832 103.279 31.2444 103.258 31.2666C103.198 31.311 103.105 31.3664 103.056 31.383C103.007 31.4052 102.904 31.4385 102.833 31.4551C102.795 31.4662 102.757 31.4718 102.719 31.4773C102.702 31.4829 102.686 31.4829 102.664 31.4884C102.626 31.494 102.653 31.4884 102.659 31.4884C102.648 31.4884 102.637 31.494 102.626 31.494C102.55 31.5051 102.468 31.5106 102.392 31.5106C102.267 31.5161 102.136 31.5106 102.011 31.494C101.984 31.494 101.957 31.4884 101.929 31.4829C101.919 31.4829 101.908 31.4829 101.902 31.4773C101.875 31.4718 101.951 31.4829 101.919 31.4773C101.902 31.4773 101.886 31.4718 101.87 31.4718C101.772 31.4551 101.674 31.4995 101.646 31.6049C101.63 31.7102 101.685 31.8322 101.782 31.8544Z" stroke="#F40B0B" stroke-width="0.375" stroke-miterlimit="10"/>
<path d="M106.681 40.8996H108.592V43.373H110.584V36.6516H108.592V39.1805H106.681V36.6516H104.689V43.373H106.681V40.8996ZM98.7779 42.5134C99.4365 43.1567 100.302 43.4839 101.369 43.4839C102.027 43.4839 102.61 43.3564 103.11 43.1068C103.301 43.0125 103.481 42.9016 103.655 42.7796C103.889 42.6021 104.036 42.4801 104.09 42.4025L103.187 40.8774L103.013 41.0771C102.887 41.2046 102.691 41.3322 102.414 41.4597C102.136 41.5928 101.842 41.6594 101.527 41.6594C100.988 41.6594 100.563 41.4986 100.264 41.1714C99.9699 40.8442 99.823 40.4504 99.823 39.9846C99.823 39.5187 99.9699 39.1361 100.264 38.8311C100.558 38.5205 100.982 38.3597 101.527 38.3597C101.815 38.3597 102.093 38.4207 102.365 38.5372C102.648 38.6647 102.833 38.759 102.92 38.82C103.002 38.8754 103.072 38.9364 103.132 38.9974L103.905 37.4391L103.802 37.3448C103.666 37.2062 103.399 37.0454 103.002 36.8568C102.561 36.6461 102.016 36.5352 101.38 36.5352C100.335 36.5352 99.4746 36.8624 98.7997 37.5223C98.1302 38.1822 97.7927 39.0085 97.7927 40.0123C97.7927 41.0327 98.1193 41.8646 98.7779 42.5134ZM95.6265 38.3819H97.5914V36.6516H91.6803V38.3819H93.6452V43.373H95.6265V38.3819ZM89.0568 38.3597H89.0949L89.3344 39.5631L89.6392 40.6556H88.5071L88.8119 39.5631C88.8881 39.2914 88.9697 38.8865 89.0568 38.3597ZM88.0989 42.1308H90.0474L90.3958 43.373H92.3226L90.1454 36.6516H88.0063L85.8292 43.373H87.756L88.0989 42.1308ZM81.3986 40.1288C81.4748 39.7683 81.5238 39.4522 81.5456 39.186H81.5728L81.5837 39.3302C81.6381 39.7184 81.6871 39.9846 81.7198 40.1177L82.4872 43.3675H84.5882L86.2592 36.6461H84.3324L83.5867 40.3284C83.5268 40.6168 83.4942 40.9052 83.4833 41.1935H83.4452L83.4288 41.0715C83.4179 40.8386 83.3744 40.5946 83.3091 40.3284L82.4491 36.6461H80.7074L79.8038 40.3284C79.7385 40.6057 79.695 40.8941 79.6732 41.1935H79.6351L79.5263 40.3284L78.8731 36.6461H76.9082L78.5139 43.3675H80.6366L81.3986 40.1288Z" fill="#FDFDFD"/>
</svg>
