<?xml version="1.0" encoding="utf-8"?>
<!-- Generator: Adobe Illustrator 26.5.0, SVG Export Plug-In . SVG Version: 6.00 Build 0)  -->
<svg version="1.1" id="Layer_1" xmlns="http://www.w3.org/2000/svg" xmlns:xlink="http://www.w3.org/1999/xlink" x="0px" y="0px"
	 viewBox="0 0 50.43 48.42" style="enable-background:new 0 0 50.43 48.42;" xml:space="preserve">
<style type="text/css">
	.st0{fill:#666666;}
	.st1{fill:#FFFFFF;}
	.st2{fill:#FF0000;}
	.st3{fill:none;stroke:#FF0000;stroke-width:0.375;stroke-miterlimit:10;}
</style>
<path class="st0" d="M25.22,48.42c13.37,0,24.21-10.84,24.21-24.21C49.43,10.84,38.59,0,25.22,0S1.02,10.84,1.02,24.21
	C1.02,37.58,11.85,48.42,25.22,48.42"/>
<path class="st1" d="M16.77,25.86c0-4.03,0-8.05,0-12.08c0-1.07,0.73-1.84,1.71-1.77c0.31,0.02,0.64,0.14,0.92,0.3
	c6.67,3.86,13.32,7.74,19.99,11.61c0.26,0.15,0.53,0.31,0.79,0.46c1.22,0.72,1.23,2.27,0,2.99c-3.36,1.96-6.73,3.91-10.1,5.87
	c-3.55,2.06-7.1,4.12-10.64,6.19c-0.6,0.35-1.2,0.46-1.83,0.11c-0.63-0.35-0.85-0.93-0.85-1.63C16.78,33.88,16.77,29.87,16.77,25.86
	"/>
</svg>
