<?xml version="1.0" encoding="utf-8"?>
<!-- Generator: Adobe Illustrator 26.5.0, SVG Export Plug-In . SVG Version: 6.00 Build 0)  -->
<svg version="1.1" id="Layer_1" xmlns="http://www.w3.org/2000/svg" xmlns:xlink="http://www.w3.org/1999/xlink" x="0px" y="0px"
	 viewBox="0 0 206.69 90.16" style="enable-background:new 0 0 206.69 90.16;" xml:space="preserve">
<style type="text/css">
	.st0{fill:#666666;}
	.st1{fill:#FFFFFF;}
	.st2{fill:#FF0000;}
	.st3{fill:none;stroke:#FF0000;stroke-width:0.375;stroke-miterlimit:10;}
</style>
<path class="st2" d="M160.67,49.88c1.18-3.07,2.87-6.37,5.1-9.92c2.22-3.55,4.41-6.54,6.55-8.97c2.15-2.43,3.7-3.64,4.67-3.64
	c0.56,0,0.84,0.49,0.84,1.46c0,1.58-1.1,4.11-3.3,7.59c-2.2,3.47-4.66,6.6-7.39,9.39C164.41,48.56,162.25,49.93,160.67,49.88
	 M160.82,63.9c3.42,0,7.34-2.18,11.76-6.55c4.42-4.37,8.57-9.67,12.45-15.9c-0.66-1.02-1.58-1.43-2.76-1.23
	c-3.01,5.01-6.37,9.53-10.08,13.56c-3.7,4.04-6.71,6.05-9,6.05c-2.6,0-3.91-1.28-3.91-3.83c0-0.97,0.15-2.02,0.46-3.14h0.77
	c2.45,0,5.38-1.37,8.77-4.1c3.4-2.73,6.33-5.93,8.81-9.58c2.48-3.65,3.72-6.71,3.72-9.16c0-1.99-0.46-3.36-1.38-4.1
	c-0.92-0.74-2.15-1.11-3.68-1.11c-3.32,0-6.93,1.87-10.84,5.59c-3.91,3.73-7.22,8.16-9.92,13.3c-2.71,5.14-4.06,9.52-4.06,13.14
	c0,2.3,0.88,4.05,2.64,5.25C156.34,63.3,158.42,63.9,160.82,63.9 M118.29,76.7c0.56-1.28,2.06-2.89,4.48-4.83
	c2.43-1.94,4.84-3.35,7.24-4.22c-0.82,1.53-2.02,3.17-3.6,4.9c-1.58,1.74-3.14,3.21-4.67,4.41c-1.53,1.2-2.63,1.8-3.29,1.8
	c-0.36,0-0.54-0.21-0.54-0.61C117.91,77.74,118.04,77.26,118.29,76.7 M125.19,57.77c-1.28-0.36-1.92-1.28-1.92-2.76
	c0-2.3,1.3-5.49,3.91-9.58c2.6-4.09,5.58-7.71,8.93-10.88c3.35-3.17,6.02-4.75,8.01-4.75c1.28,0,2.15,0.77,2.6,2.3
	c-1.64,2.56-3.97,5.94-7.01,10.15c-3.04,4.21-5.97,7.92-8.77,11.11C128.13,56.56,126.21,58.02,125.19,57.77 M113.93,78.23
	c-0.66,1.48-1,2.78-1,3.91c0,1.28,0.38,2.26,1.15,2.95c0.77,0.69,1.81,1.04,3.14,1.04c1.99,0,4.29-0.77,6.9-2.3
	c2.6-1.53,5.25-3.92,7.93-7.17c2.68-3.24,5.1-7.24,7.24-11.99c4.7-2.71,8.85-5.67,12.45-8.89c3.6-3.22,6.78-6.97,9.54-11.26
	c-0.41-0.56-0.79-0.96-1.15-1.19c-0.36-0.23-0.84-0.29-1.46-0.19c-1.99,3.27-4.65,6.41-7.97,9.42c-3.32,3.01-6.59,5.47-9.81,7.36
	c1.07-4.75,2.99-9.73,5.75-14.94c1.58-2.81,3.37-5.62,5.36-8.43c1.99-2.81,3.96-5.34,5.9-7.59c0.41-0.41,0.61-0.87,0.61-1.38
	c0-0.61-0.26-1.02-0.77-1.23c-0.51-0.25-1.23-0.47-2.15-0.65c-0.92-0.18-1.76-0.27-2.53-0.27c-1.12,0-1.84,0.18-2.15,0.54
	c-0.46,0.46-1.25,1.53-2.38,3.22c-1.64-2.35-3.78-3.52-6.44-3.52c-3.02,0-6.3,1.43-9.85,4.29c-3.55,2.86-6.78,6.36-9.69,10.5
	s-4.9,7.94-5.98,11.42c-0.77,2.35-1.15,4.42-1.15,6.21c0,1.89,0.5,3.33,1.49,4.33c1,1,2.62,1.49,4.87,1.49c1.94,0,4.19-1,6.74-2.99
	c2.55-1.99,4.52-4.06,5.9-6.21c-0.21,0.51-0.33,0.89-0.38,1.15c-0.1,0.36-0.36,1.34-0.77,2.95c-0.41,1.61-1,3.15-1.76,4.64
	c-3.68,1.28-7.13,3.18-10.35,5.71C117.99,71.68,115.56,74.7,113.93,78.23 M80.29,63.9c0.72,0.1,1.23,0.15,1.53,0.15
	c1.63,0,2.86-0.61,3.68-1.84c1.53-2.4,3.84-5.43,6.93-9.08c3.09-3.65,6.13-7,9.12-10.04c2.99-3.04,5.12-4.94,6.4-5.71
	c-2.81,3.63-5.3,7.59-7.47,11.88c-2.17,4.29-3.26,7.77-3.26,10.42c0,2.81,1.38,4.21,4.14,4.21c4.19,0,8.38-2.18,12.57-6.55
	c4.19-4.37,8.33-9.69,12.41-15.98c-0.36-0.51-0.75-0.87-1.19-1.07c-0.43-0.2-0.96-0.25-1.57-0.15c-1.38,2.45-3.23,5.22-5.55,8.31
	c-2.33,3.09-4.57,5.71-6.74,7.85c-2.17,2.15-3.79,3.22-4.87,3.22c-0.77,0-1.15-0.46-1.15-1.38c0-2.2,1.76-6.32,5.29-12.38
	c3.52-6.05,7.02-11.48,10.5-16.28c0.46-0.56,0.69-1.15,0.69-1.76c0-0.51-0.23-0.94-0.69-1.3c-0.46-0.36-1.1-0.54-1.92-0.54
	c-2.3,0-5.35,1.49-9.16,4.48c-3.81,2.99-7.32,6.12-10.54,9.39c-3.22,3.27-6.77,7.03-10.65,11.26c1.23-2.35,2.85-5.04,4.87-8.08
	c2.02-3.04,5.15-7.52,9.39-13.45c0.25-0.36,0.38-0.69,0.38-1c0-0.82-0.5-1.57-1.49-2.26s-2.06-1.04-3.18-1.04
	c-1.18,0-2.07,0.38-2.68,1.15c-2.66,3.07-5.91,8.07-9.77,15.02c-3.86,6.95-6.58,12.67-8.16,17.16c-0.46,1.23-0.69,2.2-0.69,2.91
	c0,0.67,0.22,1.19,0.65,1.57C78.54,63.4,79.26,63.7,80.29,63.9 M66.03,63.9c4.24,0,8.54-2.22,12.91-6.67
	c4.37-4.44,8.39-9.73,12.07-15.86c-0.36-0.51-0.75-0.87-1.19-1.07c-0.43-0.2-0.96-0.25-1.57-0.15c-1.38,2.45-3.23,5.22-5.56,8.31
	c-2.33,3.09-4.57,5.71-6.74,7.85c-2.17,2.15-3.79,3.22-4.87,3.22c-0.77,0-1.15-0.46-1.15-1.38c0-1.53,0.96-4.12,2.87-7.78
	c1.92-3.65,4.25-7.44,7.01-11.38c2.76-3.93,5.24-7.08,7.43-9.43c0.56-0.61,0.84-1.23,0.84-1.84c0-0.77-0.42-1.4-1.27-1.92
	c-0.84-0.51-1.8-0.77-2.87-0.77c-1.64,0-2.86,0.51-3.68,1.53c-2.66,3.22-5.36,7-8.12,11.34c-2.76,4.34-5.03,8.53-6.82,12.57
	c-1.79,4.04-2.68,7.23-2.68,9.58C62.66,62.62,63.79,63.9,66.03,63.9 M88.41,21.14c1.28,0,2.55-0.38,3.83-1.15
	c1.28-0.77,2.32-1.71,3.14-2.84c0.82-1.12,1.23-2.12,1.23-2.99c0-1.48-1.07-2.22-3.22-2.22c-1.33,0-2.6,0.38-3.83,1.15
	c-1.23,0.77-2.22,1.69-2.99,2.76c-0.77,1.07-1.15,2.07-1.15,2.99C85.42,20.37,86.42,21.14,88.41,21.14 M26.8,64.44
	c1.38-0.51,2.38-1.33,2.99-2.45c4.45-7.97,7.87-14.38,10.27-19.23c0.92-0.77,2.02-1.37,3.29-1.8c1.28-0.43,2.58-0.65,3.91-0.65
	c2.15,0,3.95,0.53,5.4,1.57c1.46,1.05,2.18,2.57,2.18,4.56c0,3.47-0.93,6.74-2.8,9.81c-1.87,3.07-4.34,5.51-7.43,7.32
	c-3.09,1.81-6.37,2.72-9.85,2.72C31.91,66.27,29.25,65.66,26.8,64.44 M22.36,61.45c-4.24-3.57-7.66-8.97-10.27-16.17
	c-0.36-1.02-1.12-1.53-2.3-1.53c-0.77,0-1.51,0.28-2.22,0.84c-2.2,1.79-3.29,3.32-3.29,4.6c0,0.31,0.05,0.61,0.15,0.92
	c2.76,8.02,6.64,13.93,11.65,17.74c5.01,3.81,10.45,5.71,16.32,5.71c4.7,0,9.2-1.1,13.49-3.3c4.29-2.2,7.78-5.15,10.46-8.85
	c2.68-3.7,4.05-7.7,4.1-11.99c0.05-4.19-0.92-7.14-2.91-8.85c-1.99-1.71-4.19-2.59-6.59-2.64c3.11-1.53,5.87-3.55,8.28-6.05
	c2.4-2.5,4.26-5.13,5.59-7.89c1.33-2.76,1.99-5.34,1.99-7.74c0-4.09-1.27-7.23-3.79-9.43c-2.53-2.19-5.68-3.29-9.46-3.29
	c-3.27,0-6.53,0.82-9.77,2.45c-3.24,1.64-5.98,4.04-8.2,7.2c-2.22,3.17-3.49,6.9-3.79,11.19c0,0.61,0.28,1.12,0.84,1.53
	c0.56,0.41,1.15,0.61,1.76,0.61s0.92-0.23,0.92-0.69c0.26-3.88,1.29-7.2,3.1-9.96c1.81-2.76,4.02-4.81,6.63-6.17
	c2.61-1.35,5.21-2.03,7.82-2.03c2.5,0,4.61,0.61,6.32,1.84c1.71,1.23,2.64,2.94,2.8,5.14c0.2,2.35-0.52,4.92-2.18,7.7
	c-1.66,2.79-3.93,5.31-6.82,7.59c-2.89,2.27-5.96,3.9-9.23,4.87L54.08,14.7c0.87-1.63,1.39-2.71,1.57-3.22
	c0.18-0.51,0.22-0.87,0.11-1.07c-0.2-0.51-0.64-0.93-1.3-1.26c-0.67-0.33-1.38-0.5-2.15-0.5c-1.12,0-1.89,0.38-2.3,1.15l-2.38,4.6
	C36,36.98,27.67,52.43,22.66,60.76C22.56,60.91,22.46,61.14,22.36,61.45"/>
<path class="st1" d="M85.82,13.27c0,0-6.26,1.36-4.1,7.22c0,0,3.33,6.38,8.43,0.69c0,0,1.6,4.03,7.48,1.14c0,0,3.92-2.58,0.26-7.7
	c0,0-0.57-0.57-1.19-0.31c0,0,2.99-4.13-2.27-4.55c0,0-1.19,0.15-1.44,0.78C92.98,10.53,87.78,7.12,85.82,13.27"/>
<path class="st3" d="M85.82,13.27c0,0-6.26,1.36-4.1,7.22c0,0,3.33,6.38,8.43,0.69c0,0,1.6,4.03,7.48,1.14c0,0,3.92-2.58,0.26-7.7
	c0,0-0.57-0.57-1.19-0.31c0,0,2.99-4.13-2.27-4.55c0,0-1.19,0.15-1.44,0.78C92.98,10.53,87.78,7.12,85.82,13.27z"/>
<path class="st2" d="M85.7,12.85c-0.72,0.16-1.43,0.47-2.06,0.84c-1.26,0.72-2.31,1.84-2.66,3.28c-0.23,0.95-0.16,1.95,0.09,2.89
	c0.12,0.45,0.26,0.85,0.51,1.24c0.67,1.04,1.6,2.01,2.75,2.51c0.79,0.35,1.64,0.44,2.49,0.27c1.09-0.22,2.06-0.87,2.87-1.61
	c0.27-0.25,0.53-0.51,0.77-0.78c-0.24-0.06-0.48-0.13-0.73-0.19c0.22,0.55,0.61,1.05,1.05,1.43c1.05,0.9,2.42,1.19,3.77,1.02
	c1.1-0.14,2.15-0.51,3.14-0.99c0.25-0.12,0.46-0.3,0.65-0.49c0.89-0.85,1.43-2.01,1.52-3.24c0.06-0.95-0.17-1.9-0.54-2.76
	c-0.24-0.56-0.54-1.09-0.88-1.59c-0.26-0.39-0.55-0.66-1.01-0.8c-0.28-0.08-0.58-0.08-0.86,0.02c0.16,0.21,0.33,0.43,0.49,0.64
	c0.46-0.64,0.79-1.43,0.88-2.21c0.08-0.61-0.05-1.24-0.44-1.74c-0.53-0.68-1.4-1-2.22-1.14c-0.31-0.06-0.67-0.14-0.99-0.09
	c-0.13,0.02-0.27,0.05-0.4,0.08c-0.5,0.14-1.07,0.39-1.3,0.89c0.2-0.05,0.4-0.1,0.59-0.16c-0.61-0.39-1.33-0.68-2.03-0.84
	c-1.42-0.34-2.89-0.12-4.01,0.86c-0.88,0.77-1.41,1.88-1.76,2.98c-0.17,0.53,0.67,0.76,0.84,0.23c0.29-0.9,0.71-1.79,1.37-2.44
	c0.26-0.26,0.46-0.41,0.82-0.59c0.03-0.02,0.07-0.04,0.1-0.05c0.02-0.01,0.11-0.05,0.07-0.03c-0.04,0.02,0.07-0.03,0.09-0.03
	c0.04-0.01,0.08-0.03,0.12-0.04c0.15-0.05,0.3-0.09,0.45-0.12c0.04-0.01,0.08-0.01,0.12-0.02c0.04-0.01,0.1-0.01,0.02,0
	c0.08-0.01,0.16-0.02,0.24-0.02c0.15-0.01,0.29-0.01,0.44,0c0.07,0,0.14,0.01,0.22,0.01c0.03,0,0.07,0.01,0.1,0.01
	c0.02,0,0.15,0.02,0.09,0.01c-0.06-0.01,0.04,0.01,0.05,0.01c0.03,0,0.06,0.01,0.1,0.02c0.07,0.01,0.15,0.03,0.22,0.04
	c0.26,0.06,0.51,0.13,0.76,0.22c0.11,0.04,0.22,0.08,0.32,0.12c0.08,0.03-0.01,0,0,0c0.02,0.01,0.05,0.02,0.07,0.03
	c0.05,0.02,0.1,0.04,0.15,0.07c0.22,0.1,0.43,0.21,0.63,0.34c0.18,0.12,0.5,0.05,0.59-0.16c0.05-0.11,0.03-0.09,0.1-0.16
	c0.06-0.06,0.1-0.08,0.2-0.15c0.16-0.09,0.27-0.13,0.47-0.18c0.12-0.03,0.24-0.05,0.37-0.08c0.01,0,0.02,0,0.03,0
	c-0.03,0.01-0.16-0.01-0.08,0.02c0.03,0.01,0.07,0.01,0.1,0.01c0.13,0.01,0.26,0.03,0.39,0.05c0.24,0.04,0.47,0.09,0.7,0.15
	c0.2,0.06,0.36,0.12,0.5,0.18c0.15,0.07,0.3,0.16,0.43,0.26c-0.06-0.04,0,0,0.02,0.02s0.05,0.04,0.08,0.07
	c0.05,0.05,0.1,0.1,0.15,0.15c0.07,0.08-0.02-0.04,0.02,0.02c0.02,0.02,0.03,0.05,0.05,0.08c0.04,0.05,0.07,0.11,0.09,0.17
	c0.02,0.04,0.04,0.1,0.01,0.01c0.01,0.03,0.02,0.05,0.03,0.08c0.02,0.06,0.04,0.12,0.05,0.18c0.01,0.05,0.03,0.22,0.02,0.09
	c0.01,0.06,0.01,0.12,0.01,0.18c0,0.12-0.01,0.24-0.02,0.37c-0.01,0.09,0.01-0.03,0,0c-0.01,0.03-0.01,0.07-0.02,0.1
	c-0.01,0.06-0.02,0.12-0.04,0.18c-0.03,0.12-0.06,0.23-0.1,0.35c-0.02,0.05-0.03,0.1-0.05,0.15c-0.01,0.03-0.02,0.06-0.03,0.09
	c-0.03,0.08,0,0,0,0c-0.04,0.1-0.09,0.19-0.13,0.29c-0.11,0.23-0.24,0.46-0.39,0.67c-0.22,0.3,0.15,0.77,0.49,0.64
	c0.19-0.07,0.35-0.06,0.51,0.03c0.07,0.03,0.13,0.07,0.19,0.12c-0.08-0.06,0.04,0.03,0.06,0.05c-0.07-0.08,0.09,0.13,0.08,0.12
	c0.04,0.06,0.08,0.11,0.11,0.17c0.08,0.12,0.16,0.24,0.23,0.36c0.15,0.25,0.29,0.5,0.41,0.76c0.37,0.77,0.61,1.6,0.6,2.44
	c0,0.38-0.03,0.59-0.13,0.96c-0.09,0.33-0.15,0.5-0.28,0.74c-0.12,0.23-0.25,0.45-0.4,0.66c-0.01,0.02-0.03,0.04-0.04,0.06
	c0.07-0.1,0.01-0.01,0,0c-0.03,0.04-0.07,0.09-0.11,0.13c-0.07,0.08-0.13,0.15-0.21,0.22c-0.1,0.11-0.21,0.21-0.33,0.3
	c-0.02,0.02-0.04,0.03-0.06,0.05c-0.02,0.02,0.11-0.07,0.03-0.02c-0.02,0.01-0.04,0.03-0.06,0.05c-0.34,0.21-0.75,0.35-1.12,0.49
	c-0.46,0.17-0.94,0.31-1.42,0.4c-0.36,0.07-0.71,0.1-1.09,0.1c-0.16,0-0.32-0.01-0.48-0.03c-0.01,0-0.15-0.02-0.05,0
	c-0.04-0.01-0.08-0.01-0.12-0.02c-0.09-0.02-0.18-0.03-0.27-0.05c-0.13-0.03-0.26-0.07-0.39-0.11c-0.06-0.02-0.12-0.04-0.18-0.07
	c-0.02-0.01-0.1-0.04-0.01,0c-0.04-0.02-0.08-0.04-0.12-0.06c-0.22-0.11-0.42-0.24-0.63-0.38c-0.02-0.02-0.08-0.06,0.01,0.01
	c-0.03-0.02-0.06-0.05-0.09-0.07c-0.05-0.04-0.1-0.08-0.14-0.12c-0.08-0.07-0.16-0.15-0.23-0.23c-0.07-0.07-0.13-0.15-0.19-0.23
	c0.1,0.12,0,0-0.02-0.03c-0.03-0.04-0.05-0.07-0.08-0.11c-0.07-0.1-0.14-0.21-0.19-0.32c-0.03-0.06-0.1-0.23-0.02-0.03
	c-0.11-0.28-0.48-0.46-0.73-0.19c-0.74,0.82-1.65,1.64-2.67,2.01c-0.2,0.07-0.41,0.13-0.63,0.17c-0.04,0.01-0.09,0.01-0.13,0.02
	c-0.07,0.01,0.02,0-0.08,0.01c-0.1,0.01-0.2,0.01-0.29,0.02c-0.09,0-0.18,0-0.26-0.01c-0.05,0-0.09-0.01-0.14-0.01
	c-0.02,0-0.04,0-0.06-0.01c-0.08-0.01,0.03,0-0.02,0c-0.17-0.03-0.34-0.07-0.51-0.12c-0.08-0.02-0.16-0.05-0.23-0.08
	c-0.03-0.01-0.13-0.05-0.05-0.02c-0.05-0.02-0.09-0.04-0.14-0.06c-0.15-0.07-0.29-0.15-0.43-0.24c-0.14-0.09-0.28-0.18-0.41-0.29
	c-0.02-0.01,0.04,0.03-0.02-0.02c-0.03-0.03-0.06-0.05-0.1-0.08c-0.06-0.05-0.12-0.1-0.18-0.16c-0.22-0.2-0.43-0.41-0.62-0.64
	c-0.04-0.05-0.08-0.1-0.12-0.15c-0.02-0.03-0.04-0.05-0.06-0.08c-0.06-0.08,0.04,0.06-0.02-0.02c-0.07-0.09-0.13-0.18-0.2-0.27
	c-0.1-0.14-0.19-0.28-0.28-0.43c-0.02-0.04-0.05-0.08-0.07-0.12c-0.02-0.03-0.03-0.07,0,0c-0.35-0.87-0.5-1.8-0.38-2.73
	c-0.01,0.07,0.01-0.06,0.01-0.08c0.01-0.05,0.02-0.1,0.03-0.14c0.02-0.09,0.04-0.19,0.07-0.28c0.02-0.08,0.05-0.17,0.08-0.25
	c0.02-0.04,0.03-0.09,0.05-0.13c0.01-0.02,0.05-0.12,0.04-0.09c-0.02,0.04,0.03-0.07,0.04-0.09c0.02-0.04,0.04-0.08,0.06-0.12
	c0.04-0.08,0.08-0.15,0.13-0.23c0.08-0.14,0.18-0.28,0.27-0.41c0.04-0.06-0.03,0.04,0.03-0.04c0.03-0.03,0.05-0.07,0.08-0.1
	c0.05-0.06,0.11-0.12,0.17-0.19c0.11-0.12,0.23-0.23,0.35-0.34c0.06-0.05,0.11-0.1,0.17-0.14c0.03-0.02,0.05-0.04,0.08-0.06
	c0.05-0.04-0.06,0.04-0.01,0.01c0.02-0.01,0.04-0.03,0.05-0.04c0.12-0.09,0.24-0.17,0.36-0.25c0.24-0.15,0.49-0.29,0.74-0.42
	c0.11-0.05,0.22-0.1,0.34-0.15c0.09-0.04-0.06,0.03,0,0c0.02-0.01,0.05-0.02,0.07-0.03c0.05-0.02,0.1-0.04,0.15-0.06
	c0.26-0.1,0.53-0.17,0.8-0.25c0.01,0,0.03-0.01,0.04-0.01C86.48,13.57,86.25,12.73,85.7,12.85"/>
<path class="st3" d="M85.7,12.85c-0.72,0.16-1.43,0.47-2.06,0.84c-1.26,0.72-2.31,1.84-2.66,3.28c-0.23,0.95-0.16,1.95,0.09,2.89
	c0.12,0.45,0.26,0.85,0.51,1.24c0.67,1.04,1.6,2.01,2.75,2.51c0.79,0.35,1.64,0.44,2.49,0.27c1.09-0.22,2.06-0.87,2.87-1.61
	c0.27-0.25,0.53-0.51,0.77-0.78c-0.24-0.06-0.48-0.13-0.73-0.19c0.22,0.55,0.61,1.05,1.05,1.43c1.05,0.9,2.42,1.19,3.77,1.02
	c1.1-0.14,2.15-0.51,3.14-0.99c0.25-0.12,0.46-0.3,0.65-0.49c0.89-0.85,1.43-2.01,1.52-3.24c0.06-0.95-0.17-1.9-0.54-2.76
	c-0.24-0.56-0.54-1.09-0.88-1.59c-0.26-0.39-0.55-0.66-1.01-0.8c-0.28-0.08-0.58-0.08-0.86,0.02c0.16,0.21,0.33,0.43,0.49,0.64
	c0.46-0.64,0.79-1.43,0.88-2.21c0.08-0.61-0.05-1.24-0.44-1.74c-0.53-0.68-1.4-1-2.22-1.14c-0.31-0.06-0.67-0.14-0.99-0.09
	c-0.13,0.02-0.27,0.05-0.4,0.08c-0.5,0.14-1.07,0.39-1.3,0.89c0.2-0.05,0.4-0.1,0.59-0.16c-0.61-0.39-1.33-0.68-2.03-0.84
	c-1.42-0.34-2.89-0.12-4.01,0.86c-0.88,0.77-1.41,1.88-1.76,2.98c-0.17,0.53,0.67,0.76,0.84,0.23c0.29-0.9,0.71-1.79,1.37-2.44
	c0.26-0.26,0.46-0.41,0.82-0.59c0.03-0.02,0.07-0.04,0.1-0.05c0.02-0.01,0.11-0.05,0.07-0.03c-0.04,0.02,0.07-0.03,0.09-0.03
	c0.04-0.01,0.08-0.03,0.12-0.04c0.15-0.05,0.3-0.09,0.45-0.12c0.04-0.01,0.08-0.01,0.12-0.02c0.04-0.01,0.1-0.01,0.02,0
	c0.08-0.01,0.16-0.02,0.24-0.02c0.15-0.01,0.29-0.01,0.44,0c0.07,0,0.14,0.01,0.22,0.01c0.03,0,0.07,0.01,0.1,0.01
	c0.02,0,0.15,0.02,0.09,0.01c-0.06-0.01,0.04,0.01,0.05,0.01c0.03,0,0.06,0.01,0.1,0.02c0.07,0.01,0.15,0.03,0.22,0.04
	c0.26,0.06,0.51,0.13,0.76,0.22c0.11,0.04,0.22,0.08,0.32,0.12c0.08,0.03-0.01,0,0,0c0.02,0.01,0.05,0.02,0.07,0.03
	c0.05,0.02,0.1,0.04,0.15,0.07c0.22,0.1,0.43,0.21,0.63,0.34c0.18,0.12,0.5,0.05,0.59-0.16c0.05-0.11,0.03-0.09,0.1-0.16
	c0.06-0.06,0.1-0.08,0.2-0.15c0.16-0.09,0.27-0.13,0.47-0.18c0.12-0.03,0.24-0.05,0.37-0.08c0.01,0,0.02,0,0.03,0
	c-0.03,0.01-0.16-0.01-0.08,0.02c0.03,0.01,0.07,0.01,0.1,0.01c0.13,0.01,0.26,0.03,0.39,0.05c0.24,0.04,0.47,0.09,0.7,0.15
	c0.2,0.06,0.36,0.12,0.5,0.18c0.15,0.07,0.3,0.16,0.43,0.26c-0.06-0.04,0,0,0.02,0.02s0.05,0.04,0.08,0.07
	c0.05,0.05,0.1,0.1,0.15,0.15c0.07,0.08-0.02-0.04,0.02,0.02c0.02,0.02,0.03,0.05,0.05,0.08c0.04,0.05,0.07,0.11,0.09,0.17
	c0.02,0.04,0.04,0.1,0.01,0.01c0.01,0.03,0.02,0.05,0.03,0.08c0.02,0.06,0.04,0.12,0.05,0.18c0.01,0.05,0.03,0.22,0.02,0.09
	c0.01,0.06,0.01,0.12,0.01,0.18c0,0.12-0.01,0.24-0.02,0.37c-0.01,0.09,0.01-0.03,0,0c-0.01,0.03-0.01,0.07-0.02,0.1
	c-0.01,0.06-0.02,0.12-0.04,0.18c-0.03,0.12-0.06,0.23-0.1,0.35c-0.02,0.05-0.03,0.1-0.05,0.15c-0.01,0.03-0.02,0.06-0.03,0.09
	c-0.03,0.08,0,0,0,0c-0.04,0.1-0.09,0.19-0.13,0.29c-0.11,0.23-0.24,0.46-0.39,0.67c-0.22,0.3,0.15,0.77,0.49,0.64
	c0.19-0.07,0.35-0.06,0.51,0.03c0.07,0.03,0.13,0.07,0.19,0.12c-0.08-0.06,0.04,0.03,0.06,0.05c-0.07-0.08,0.09,0.13,0.08,0.12
	c0.04,0.06,0.08,0.11,0.11,0.17c0.08,0.12,0.16,0.24,0.23,0.36c0.15,0.25,0.29,0.5,0.41,0.76c0.37,0.77,0.61,1.6,0.6,2.44
	c0,0.38-0.03,0.59-0.13,0.96c-0.09,0.33-0.15,0.5-0.28,0.74c-0.12,0.23-0.25,0.45-0.4,0.66c-0.01,0.02-0.03,0.04-0.04,0.06
	c0.07-0.1,0.01-0.01,0,0c-0.03,0.04-0.07,0.09-0.11,0.13c-0.07,0.08-0.13,0.15-0.21,0.22c-0.1,0.11-0.21,0.21-0.33,0.3
	c-0.02,0.02-0.04,0.03-0.06,0.05c-0.02,0.02,0.11-0.07,0.03-0.02c-0.02,0.01-0.04,0.03-0.06,0.05c-0.34,0.21-0.75,0.35-1.12,0.49
	c-0.46,0.17-0.94,0.31-1.42,0.4c-0.36,0.07-0.71,0.1-1.09,0.1c-0.16,0-0.32-0.01-0.48-0.03c-0.01,0-0.15-0.02-0.05,0
	c-0.04-0.01-0.08-0.01-0.12-0.02c-0.09-0.02-0.18-0.03-0.27-0.05c-0.13-0.03-0.26-0.07-0.39-0.11c-0.06-0.02-0.12-0.04-0.18-0.07
	c-0.02-0.01-0.1-0.04-0.01,0c-0.04-0.02-0.08-0.04-0.12-0.06c-0.22-0.11-0.42-0.24-0.63-0.38c-0.02-0.02-0.08-0.06,0.01,0.01
	c-0.03-0.02-0.06-0.05-0.09-0.07c-0.05-0.04-0.1-0.08-0.14-0.12c-0.08-0.07-0.16-0.15-0.23-0.23c-0.07-0.07-0.13-0.15-0.19-0.23
	c0.1,0.12,0,0-0.02-0.03c-0.03-0.04-0.05-0.07-0.08-0.11c-0.07-0.1-0.14-0.21-0.19-0.32c-0.03-0.06-0.1-0.23-0.02-0.03
	c-0.11-0.28-0.48-0.46-0.73-0.19c-0.74,0.82-1.65,1.64-2.67,2.01c-0.2,0.07-0.41,0.13-0.63,0.17c-0.04,0.01-0.09,0.01-0.13,0.02
	c-0.07,0.01,0.02,0-0.08,0.01c-0.1,0.01-0.2,0.01-0.29,0.02c-0.09,0-0.18,0-0.26-0.01c-0.05,0-0.09-0.01-0.14-0.01
	c-0.02,0-0.04,0-0.06-0.01c-0.08-0.01,0.03,0-0.02,0c-0.17-0.03-0.34-0.07-0.51-0.12c-0.08-0.02-0.16-0.05-0.23-0.08
	c-0.03-0.01-0.13-0.05-0.05-0.02c-0.05-0.02-0.09-0.04-0.14-0.06c-0.15-0.07-0.29-0.15-0.43-0.24c-0.14-0.09-0.28-0.18-0.41-0.29
	c-0.02-0.01,0.04,0.03-0.02-0.02c-0.03-0.03-0.06-0.05-0.1-0.08c-0.06-0.05-0.12-0.1-0.18-0.16c-0.22-0.2-0.43-0.41-0.62-0.64
	c-0.04-0.05-0.08-0.1-0.12-0.15c-0.02-0.03-0.04-0.05-0.06-0.08c-0.06-0.08,0.04,0.06-0.02-0.02c-0.07-0.09-0.13-0.18-0.2-0.27
	c-0.1-0.14-0.19-0.28-0.28-0.43c-0.02-0.04-0.05-0.08-0.07-0.12c-0.02-0.03-0.03-0.07,0,0c-0.35-0.87-0.5-1.8-0.38-2.73
	c-0.01,0.07,0.01-0.06,0.01-0.08c0.01-0.05,0.02-0.1,0.03-0.14c0.02-0.09,0.04-0.19,0.07-0.28c0.02-0.08,0.05-0.17,0.08-0.25
	c0.02-0.04,0.03-0.09,0.05-0.13c0.01-0.02,0.05-0.12,0.04-0.09c-0.02,0.04,0.03-0.07,0.04-0.09c0.02-0.04,0.04-0.08,0.06-0.12
	c0.04-0.08,0.08-0.15,0.13-0.23c0.08-0.14,0.18-0.28,0.27-0.41c0.04-0.06-0.03,0.04,0.03-0.04c0.03-0.03,0.05-0.07,0.08-0.1
	c0.05-0.06,0.11-0.12,0.17-0.19c0.11-0.12,0.23-0.23,0.35-0.34c0.06-0.05,0.11-0.1,0.17-0.14c0.03-0.02,0.05-0.04,0.08-0.06
	c0.05-0.04-0.06,0.04-0.01,0.01c0.02-0.01,0.04-0.03,0.05-0.04c0.12-0.09,0.24-0.17,0.36-0.25c0.24-0.15,0.49-0.29,0.74-0.42
	c0.11-0.05,0.22-0.1,0.34-0.15c0.09-0.04-0.06,0.03,0,0c0.02-0.01,0.05-0.02,0.07-0.03c0.05-0.02,0.1-0.04,0.15-0.06
	c0.26-0.1,0.53-0.17,0.8-0.25c0.01,0,0.03-0.01,0.04-0.01C86.48,13.57,86.25,12.73,85.7,12.85z"/>
<path class="st2" d="M86.42,14.92c-0.03-0.04-0.05-0.09-0.08-0.13c-0.01-0.01-0.05-0.1-0.02-0.04c0.03,0.06-0.01-0.03-0.02-0.05
	c-0.03-0.07-0.05-0.14-0.07-0.22c-0.01-0.04-0.02-0.08-0.03-0.13c0-0.02-0.01-0.04-0.01-0.06c-0.01-0.03,0.01,0.08,0,0
	c-0.01-0.1-0.02-0.2-0.01-0.3c0-0.06,0.01-0.11,0.01-0.17c0.01-0.1-0.01,0.07,0-0.03c0.01-0.03,0.01-0.06,0.02-0.09
	c0.03-0.13,0.07-0.26,0.12-0.38c0.07-0.17-0.08-0.38-0.26-0.42c-0.21-0.04-0.38,0.06-0.46,0.24c-0.2,0.48-0.24,1-0.11,1.49
	c0.05,0.21,0.14,0.43,0.27,0.61c0.11,0.15,0.33,0.23,0.51,0.12C86.45,15.29,86.53,15.08,86.42,14.92"/>
<path class="st3" d="M86.42,14.92c-0.03-0.04-0.05-0.09-0.08-0.13c-0.01-0.01-0.05-0.1-0.02-0.04c0.03,0.06-0.01-0.03-0.02-0.05
	c-0.03-0.07-0.05-0.14-0.07-0.22c-0.01-0.04-0.02-0.08-0.03-0.13c0-0.02-0.01-0.04-0.01-0.06c-0.01-0.03,0.01,0.08,0,0
	c-0.01-0.1-0.02-0.2-0.01-0.3c0-0.06,0.01-0.11,0.01-0.17c0.01-0.1-0.01,0.07,0-0.03c0.01-0.03,0.01-0.06,0.02-0.09
	c0.03-0.13,0.07-0.26,0.12-0.38c0.07-0.17-0.08-0.38-0.26-0.42c-0.21-0.04-0.38,0.06-0.46,0.24c-0.2,0.48-0.24,1-0.11,1.49
	c0.05,0.21,0.14,0.43,0.27,0.61c0.11,0.15,0.33,0.23,0.51,0.12C86.45,15.29,86.53,15.08,86.42,14.92z"/>
<path class="st2" d="M90.69,21.47c-0.03-0.04-0.05-0.09-0.08-0.13c-0.01-0.01-0.05-0.1-0.02-0.04c0.03,0.06-0.01-0.03-0.02-0.05
	c-0.03-0.07-0.05-0.14-0.07-0.22c-0.01-0.04-0.02-0.08-0.03-0.13c0-0.02-0.01-0.04-0.01-0.06c-0.01-0.03,0.01,0.08,0,0
	c-0.01-0.1-0.02-0.2-0.01-0.3c0-0.06,0.01-0.11,0.01-0.17c0.01-0.1-0.01,0.07,0-0.03c0.01-0.03,0.01-0.06,0.02-0.09
	c0.03-0.13,0.07-0.26,0.12-0.38c0.07-0.17-0.08-0.38-0.26-0.42c-0.21-0.04-0.38,0.06-0.46,0.24c-0.2,0.48-0.24,1-0.11,1.49
	c0.05,0.21,0.14,0.43,0.27,0.61c0.11,0.15,0.33,0.23,0.51,0.12C90.72,21.85,90.81,21.63,90.69,21.47"/>
<path class="st3" d="M90.69,21.47c-0.03-0.04-0.05-0.09-0.08-0.13c-0.01-0.01-0.05-0.1-0.02-0.04c0.03,0.06-0.01-0.03-0.02-0.05
	c-0.03-0.07-0.05-0.14-0.07-0.22c-0.01-0.04-0.02-0.08-0.03-0.13c0-0.02-0.01-0.04-0.01-0.06c-0.01-0.03,0.01,0.08,0,0
	c-0.01-0.1-0.02-0.2-0.01-0.3c0-0.06,0.01-0.11,0.01-0.17c0.01-0.1-0.01,0.07,0-0.03c0.01-0.03,0.01-0.06,0.02-0.09
	c0.03-0.13,0.07-0.26,0.12-0.38c0.07-0.17-0.08-0.38-0.26-0.42c-0.21-0.04-0.38,0.06-0.46,0.24c-0.2,0.48-0.24,1-0.11,1.49
	c0.05,0.21,0.14,0.43,0.27,0.61c0.11,0.15,0.33,0.23,0.51,0.12C90.72,21.85,90.81,21.63,90.69,21.47z"/>
<path class="st2" d="M89.68,18.1c0.37,0.07,0.75,0.09,1.12,0.09c0.66-0.01,1.38-0.13,1.93-0.53c0.36-0.26,0.61-0.62,0.75-1.05
	c0.13-0.43-0.51-0.61-0.65-0.19c-0.03,0.09-0.03,0.09-0.07,0.17c-0.04,0.08-0.08,0.15-0.13,0.22c0.03-0.04-0.02,0.02-0.03,0.03
	c-0.03,0.03-0.05,0.06-0.08,0.08c-0.03,0.03-0.05,0.05-0.08,0.08c-0.01,0.01-0.02,0.02-0.04,0.03c-0.04,0.04,0.03-0.03-0.01,0.01
	c-0.11,0.08-0.28,0.18-0.37,0.21c-0.09,0.04-0.28,0.1-0.41,0.13c-0.07,0.02-0.14,0.03-0.21,0.04c-0.03,0.01-0.06,0.01-0.1,0.02
	c-0.07,0.01-0.02,0-0.01,0c-0.02,0-0.04,0.01-0.06,0.01c-0.14,0.02-0.29,0.03-0.43,0.03c-0.23,0.01-0.47,0-0.7-0.03
	c-0.05,0-0.1-0.01-0.15-0.02c-0.02,0-0.04,0-0.05-0.01c-0.05-0.01,0.09,0.01,0.03,0c-0.03,0-0.06-0.01-0.09-0.01
	c-0.18-0.03-0.36,0.05-0.41,0.24C89.4,17.84,89.5,18.07,89.68,18.1"/>
<path class="st3" d="M89.68,18.1c0.37,0.07,0.75,0.09,1.12,0.09c0.66-0.01,1.38-0.13,1.93-0.53c0.36-0.26,0.61-0.62,0.75-1.05
	c0.13-0.43-0.51-0.61-0.65-0.19c-0.03,0.09-0.03,0.09-0.07,0.17c-0.04,0.08-0.08,0.15-0.13,0.22c0.03-0.04-0.02,0.02-0.03,0.03
	c-0.03,0.03-0.05,0.06-0.08,0.08c-0.03,0.03-0.05,0.05-0.08,0.08c-0.01,0.01-0.02,0.02-0.04,0.03c-0.04,0.04,0.03-0.03-0.01,0.01
	c-0.11,0.08-0.28,0.18-0.37,0.21c-0.09,0.04-0.28,0.1-0.41,0.13c-0.07,0.02-0.14,0.03-0.21,0.04c-0.03,0.01-0.06,0.01-0.1,0.02
	c-0.07,0.01-0.02,0-0.01,0c-0.02,0-0.04,0.01-0.06,0.01c-0.14,0.02-0.29,0.03-0.43,0.03c-0.23,0.01-0.47,0-0.7-0.03
	c-0.05,0-0.1-0.01-0.15-0.02c-0.02,0-0.04,0-0.05-0.01c-0.05-0.01,0.09,0.01,0.03,0c-0.03,0-0.06-0.01-0.09-0.01
	c-0.18-0.03-0.36,0.05-0.41,0.24C89.4,17.84,89.5,18.07,89.68,18.1z"/>
<path class="st1" d="M183.13,52.61c0,0-6.26,1.36-4.1,7.22c0,0,3.33,6.38,8.43,0.69c0,0,1.6,4.03,7.48,1.14c0,0,3.92-2.58,0.26-7.7
	c0,0-0.57-0.57-1.19-0.31c0,0,2.99-4.13-2.27-4.55c0,0-1.19,0.15-1.44,0.78C190.3,49.87,185.09,46.46,183.13,52.61"/>
<path class="st3" d="M183.13,52.61c0,0-6.26,1.36-4.1,7.22c0,0,3.33,6.38,8.43,0.69c0,0,1.6,4.03,7.48,1.14c0,0,3.92-2.58,0.26-7.7
	c0,0-0.57-0.57-1.19-0.31c0,0,2.99-4.13-2.27-4.55c0,0-1.19,0.15-1.44,0.78C190.3,49.87,185.09,46.46,183.13,52.61z"/>
<path class="st2" d="M183.02,52.19c-0.72,0.16-1.43,0.47-2.06,0.84c-1.26,0.72-2.31,1.84-2.66,3.28c-0.23,0.95-0.16,1.95,0.09,2.89
	c0.12,0.45,0.26,0.85,0.51,1.24c0.67,1.04,1.6,2.01,2.75,2.51c0.79,0.35,1.64,0.44,2.49,0.27c1.09-0.22,2.06-0.87,2.87-1.61
	c0.27-0.25,0.53-0.51,0.77-0.78c-0.24-0.06-0.48-0.13-0.73-0.19c0.22,0.55,0.61,1.05,1.05,1.43c1.05,0.9,2.42,1.19,3.77,1.02
	c1.1-0.14,2.15-0.51,3.14-0.99c0.25-0.12,0.46-0.3,0.65-0.49c0.89-0.85,1.43-2.01,1.52-3.24c0.06-0.95-0.17-1.9-0.54-2.76
	c-0.24-0.56-0.54-1.09-0.88-1.59c-0.26-0.39-0.55-0.66-1.01-0.8c-0.28-0.08-0.59-0.08-0.86,0.02c0.16,0.21,0.33,0.43,0.49,0.64
	c0.46-0.64,0.79-1.43,0.88-2.21c0.08-0.61-0.05-1.24-0.44-1.74c-0.53-0.68-1.4-1-2.22-1.14c-0.31-0.06-0.67-0.14-0.99-0.09
	c-0.13,0.02-0.27,0.05-0.4,0.08c-0.5,0.14-1.07,0.39-1.3,0.89c0.2-0.05,0.4-0.1,0.59-0.16c-0.61-0.39-1.33-0.68-2.03-0.84
	c-1.42-0.34-2.89-0.12-4.01,0.86c-0.88,0.77-1.41,1.88-1.76,2.98c-0.17,0.53,0.67,0.76,0.84,0.23c0.29-0.9,0.71-1.79,1.37-2.44
	c0.26-0.26,0.46-0.41,0.82-0.59c0.03-0.02,0.07-0.04,0.1-0.05c0.02-0.01,0.11-0.05,0.07-0.03c-0.04,0.02,0.07-0.03,0.08-0.03
	c0.04-0.01,0.08-0.03,0.12-0.04c0.15-0.05,0.3-0.09,0.45-0.12c0.04-0.01,0.08-0.01,0.12-0.02c0.04-0.01,0.1-0.01,0.02,0
	c0.08-0.01,0.16-0.02,0.24-0.02c0.15-0.01,0.29-0.01,0.44,0c0.07,0,0.14,0.01,0.22,0.01c0.03,0,0.07,0.01,0.1,0.01
	c0.02,0,0.15,0.02,0.09,0.01c-0.06-0.01,0.04,0.01,0.05,0.01c0.03,0,0.06,0.01,0.1,0.02c0.07,0.01,0.15,0.03,0.22,0.04
	c0.26,0.06,0.51,0.13,0.76,0.22c0.11,0.04,0.22,0.08,0.32,0.12c0.08,0.03-0.01,0,0,0c0.02,0.01,0.04,0.02,0.07,0.03
	c0.05,0.02,0.1,0.04,0.15,0.07c0.22,0.1,0.43,0.21,0.63,0.34c0.18,0.12,0.5,0.05,0.59-0.16c0.05-0.11,0.04-0.09,0.1-0.16
	c0.06-0.06,0.1-0.08,0.2-0.15c0.16-0.09,0.27-0.13,0.47-0.18c0.12-0.03,0.24-0.05,0.37-0.08c0.01,0,0.02,0,0.03,0
	c-0.03,0.01-0.16-0.01-0.08,0.02c0.03,0.01,0.07,0.01,0.1,0.01c0.13,0.01,0.26,0.03,0.39,0.05c0.24,0.04,0.47,0.09,0.7,0.15
	c0.2,0.06,0.36,0.12,0.5,0.18c0.15,0.07,0.3,0.16,0.43,0.26c-0.06-0.04,0,0,0.02,0.02s0.05,0.04,0.08,0.07
	c0.05,0.05,0.1,0.1,0.15,0.15c0.07,0.08-0.02-0.04,0.02,0.02c0.02,0.02,0.03,0.05,0.05,0.08c0.04,0.05,0.07,0.11,0.09,0.17
	c0.02,0.04,0.04,0.1,0.01,0.01c0.01,0.03,0.02,0.05,0.03,0.08c0.02,0.06,0.04,0.12,0.05,0.18c0.01,0.05,0.03,0.22,0.02,0.09
	c0.01,0.06,0.01,0.12,0.01,0.18c0,0.12-0.01,0.24-0.02,0.37c-0.01,0.09,0.01-0.03,0,0c-0.01,0.03-0.01,0.07-0.02,0.1
	c-0.01,0.06-0.02,0.12-0.04,0.18c-0.03,0.12-0.06,0.23-0.1,0.35c-0.02,0.05-0.03,0.1-0.05,0.15c-0.01,0.03-0.02,0.06-0.03,0.09
	c-0.03,0.08,0,0,0,0c-0.04,0.1-0.09,0.19-0.13,0.29c-0.11,0.23-0.24,0.46-0.39,0.67c-0.22,0.3,0.15,0.77,0.49,0.64
	c0.19-0.07,0.35-0.06,0.51,0.03c0.07,0.03,0.13,0.07,0.19,0.12c-0.08-0.06,0.04,0.03,0.06,0.05c-0.07-0.08,0.09,0.13,0.08,0.12
	c0.04,0.06,0.08,0.11,0.11,0.17c0.08,0.12,0.16,0.24,0.23,0.36c0.15,0.25,0.29,0.5,0.42,0.76c0.37,0.77,0.61,1.6,0.6,2.44
	c0,0.38-0.03,0.59-0.13,0.96c-0.09,0.33-0.15,0.5-0.28,0.74c-0.12,0.23-0.25,0.45-0.4,0.66c-0.02,0.02-0.03,0.04-0.04,0.06
	c0.07-0.1,0.01-0.01,0,0c-0.03,0.04-0.07,0.09-0.11,0.13c-0.07,0.08-0.13,0.15-0.21,0.22c-0.1,0.11-0.21,0.21-0.33,0.3
	c-0.02,0.02-0.05,0.03-0.07,0.05c-0.02,0.02,0.11-0.07,0.03-0.02c-0.02,0.01-0.04,0.03-0.06,0.05c-0.34,0.21-0.75,0.35-1.12,0.49
	c-0.46,0.17-0.94,0.31-1.42,0.4c-0.36,0.07-0.71,0.1-1.09,0.1c-0.16,0-0.32-0.01-0.48-0.03c-0.01,0-0.15-0.02-0.05,0
	c-0.04-0.01-0.08-0.01-0.12-0.02c-0.09-0.02-0.18-0.03-0.27-0.05c-0.13-0.03-0.26-0.07-0.39-0.11c-0.06-0.02-0.12-0.04-0.18-0.07
	c-0.02-0.01-0.1-0.04-0.01,0c-0.04-0.02-0.08-0.04-0.12-0.06c-0.22-0.11-0.42-0.24-0.63-0.38c-0.02-0.02-0.08-0.06,0.01,0.01
	c-0.03-0.02-0.06-0.05-0.09-0.07c-0.05-0.04-0.1-0.08-0.14-0.12c-0.08-0.07-0.16-0.15-0.23-0.23c-0.07-0.07-0.13-0.15-0.19-0.23
	c0.1,0.12,0,0-0.02-0.03c-0.03-0.04-0.05-0.07-0.08-0.11c-0.07-0.1-0.13-0.21-0.19-0.32c-0.03-0.06-0.1-0.23-0.02-0.03
	c-0.11-0.28-0.48-0.46-0.73-0.19c-0.74,0.82-1.65,1.64-2.67,2.01c-0.2,0.07-0.41,0.13-0.63,0.17c-0.04,0.01-0.09,0.01-0.13,0.02
	c-0.07,0.01,0.02,0-0.08,0.01c-0.1,0.01-0.2,0.01-0.29,0.02c-0.09,0-0.18,0-0.26-0.01c-0.05,0-0.09-0.01-0.14-0.01
	c-0.02,0-0.04,0-0.06-0.01c-0.08-0.01,0.03,0-0.02,0c-0.17-0.03-0.34-0.07-0.51-0.12c-0.08-0.02-0.16-0.05-0.23-0.08
	c-0.02-0.01-0.13-0.05-0.05-0.02c-0.05-0.02-0.09-0.04-0.14-0.06c-0.15-0.07-0.29-0.15-0.43-0.24c-0.14-0.09-0.28-0.18-0.41-0.29
	c-0.02-0.01,0.04,0.03-0.02-0.02c-0.03-0.03-0.06-0.05-0.1-0.08c-0.06-0.05-0.12-0.1-0.18-0.16c-0.22-0.2-0.43-0.41-0.62-0.64
	c-0.04-0.05-0.08-0.1-0.12-0.15c-0.02-0.03-0.04-0.05-0.06-0.08c-0.06-0.08,0.04,0.06-0.02-0.02c-0.07-0.09-0.13-0.18-0.2-0.27
	c-0.1-0.14-0.19-0.28-0.28-0.43c-0.02-0.04-0.05-0.08-0.07-0.12c-0.02-0.03-0.03-0.07,0,0c-0.35-0.87-0.5-1.8-0.38-2.73
	c-0.01,0.07,0.01-0.06,0.01-0.08c0.01-0.05,0.02-0.1,0.03-0.14c0.02-0.09,0.04-0.19,0.07-0.28c0.02-0.08,0.05-0.17,0.08-0.25
	c0.01-0.04,0.03-0.09,0.05-0.13c0.01-0.02,0.05-0.12,0.04-0.09c-0.02,0.04,0.03-0.07,0.04-0.09c0.02-0.04,0.04-0.08,0.06-0.12
	c0.04-0.08,0.08-0.15,0.13-0.23c0.08-0.14,0.18-0.28,0.27-0.41c0.04-0.06-0.03,0.04,0.03-0.04c0.03-0.03,0.05-0.07,0.08-0.1
	c0.05-0.06,0.11-0.12,0.17-0.19c0.11-0.12,0.23-0.23,0.35-0.34c0.06-0.05,0.11-0.1,0.17-0.14c0.03-0.02,0.05-0.04,0.08-0.06
	c0.05-0.04-0.06,0.04-0.01,0.01c0.02-0.01,0.04-0.03,0.05-0.04c0.12-0.09,0.24-0.17,0.36-0.25c0.24-0.15,0.49-0.29,0.74-0.42
	c0.11-0.05,0.22-0.1,0.34-0.15c0.09-0.04-0.07,0.03,0,0c0.02-0.01,0.05-0.02,0.07-0.03c0.05-0.02,0.1-0.04,0.15-0.06
	c0.26-0.1,0.53-0.17,0.8-0.25c0.01,0,0.03-0.01,0.04-0.01C183.8,52.91,183.57,52.07,183.02,52.19"/>
<path class="st3" d="M183.02,52.19c-0.72,0.16-1.43,0.47-2.06,0.84c-1.26,0.72-2.31,1.84-2.66,3.28c-0.23,0.95-0.16,1.95,0.09,2.89
	c0.12,0.45,0.26,0.85,0.51,1.24c0.67,1.04,1.6,2.01,2.75,2.51c0.79,0.35,1.64,0.44,2.49,0.27c1.09-0.22,2.06-0.87,2.87-1.61
	c0.27-0.25,0.53-0.51,0.77-0.78c-0.24-0.06-0.48-0.13-0.73-0.19c0.22,0.55,0.61,1.05,1.05,1.43c1.05,0.9,2.42,1.19,3.77,1.02
	c1.1-0.14,2.15-0.51,3.14-0.99c0.25-0.12,0.46-0.3,0.65-0.49c0.89-0.85,1.43-2.01,1.52-3.24c0.06-0.95-0.17-1.9-0.54-2.76
	c-0.24-0.56-0.54-1.09-0.88-1.59c-0.26-0.39-0.55-0.66-1.01-0.8c-0.28-0.08-0.59-0.08-0.86,0.02c0.16,0.21,0.33,0.43,0.49,0.64
	c0.46-0.64,0.79-1.43,0.88-2.21c0.08-0.61-0.05-1.24-0.44-1.74c-0.53-0.68-1.4-1-2.22-1.14c-0.31-0.06-0.67-0.14-0.99-0.09
	c-0.13,0.02-0.27,0.05-0.4,0.08c-0.5,0.14-1.07,0.39-1.3,0.89c0.2-0.05,0.4-0.1,0.59-0.16c-0.61-0.39-1.33-0.68-2.03-0.84
	c-1.42-0.34-2.89-0.12-4.01,0.86c-0.88,0.77-1.41,1.88-1.76,2.98c-0.17,0.53,0.67,0.76,0.84,0.23c0.29-0.9,0.71-1.79,1.37-2.44
	c0.26-0.26,0.46-0.41,0.82-0.59c0.03-0.02,0.07-0.04,0.1-0.05c0.02-0.01,0.11-0.05,0.07-0.03c-0.04,0.02,0.07-0.03,0.08-0.03
	c0.04-0.01,0.08-0.03,0.12-0.04c0.15-0.05,0.3-0.09,0.45-0.12c0.04-0.01,0.08-0.01,0.12-0.02c0.04-0.01,0.1-0.01,0.02,0
	c0.08-0.01,0.16-0.02,0.24-0.02c0.15-0.01,0.29-0.01,0.44,0c0.07,0,0.14,0.01,0.22,0.01c0.03,0,0.07,0.01,0.1,0.01
	c0.02,0,0.15,0.02,0.09,0.01c-0.06-0.01,0.04,0.01,0.05,0.01c0.03,0,0.06,0.01,0.1,0.02c0.07,0.01,0.15,0.03,0.22,0.04
	c0.26,0.06,0.51,0.13,0.76,0.22c0.11,0.04,0.22,0.08,0.32,0.12c0.08,0.03-0.01,0,0,0c0.02,0.01,0.04,0.02,0.07,0.03
	c0.05,0.02,0.1,0.04,0.15,0.07c0.22,0.1,0.43,0.21,0.63,0.34c0.18,0.12,0.5,0.05,0.59-0.16c0.05-0.11,0.04-0.09,0.1-0.16
	c0.06-0.06,0.1-0.08,0.2-0.15c0.16-0.09,0.27-0.13,0.47-0.18c0.12-0.03,0.24-0.05,0.37-0.08c0.01,0,0.02,0,0.03,0
	c-0.03,0.01-0.16-0.01-0.08,0.02c0.03,0.01,0.07,0.01,0.1,0.01c0.13,0.01,0.26,0.03,0.39,0.05c0.24,0.04,0.47,0.09,0.7,0.15
	c0.2,0.06,0.36,0.12,0.5,0.18c0.15,0.07,0.3,0.16,0.43,0.26c-0.06-0.04,0,0,0.02,0.02s0.05,0.04,0.08,0.07
	c0.05,0.05,0.1,0.1,0.15,0.15c0.07,0.08-0.02-0.04,0.02,0.02c0.02,0.02,0.03,0.05,0.05,0.08c0.04,0.05,0.07,0.11,0.09,0.17
	c0.02,0.04,0.04,0.1,0.01,0.01c0.01,0.03,0.02,0.05,0.03,0.08c0.02,0.06,0.04,0.12,0.05,0.18c0.01,0.05,0.03,0.22,0.02,0.09
	c0.01,0.06,0.01,0.12,0.01,0.18c0,0.12-0.01,0.24-0.02,0.37c-0.01,0.09,0.01-0.03,0,0c-0.01,0.03-0.01,0.07-0.02,0.1
	c-0.01,0.06-0.02,0.12-0.04,0.18c-0.03,0.12-0.06,0.23-0.1,0.35c-0.02,0.05-0.03,0.1-0.05,0.15c-0.01,0.03-0.02,0.06-0.03,0.09
	c-0.03,0.08,0,0,0,0c-0.04,0.1-0.09,0.19-0.13,0.29c-0.11,0.23-0.24,0.46-0.39,0.67c-0.22,0.3,0.15,0.77,0.49,0.64
	c0.19-0.07,0.35-0.06,0.51,0.03c0.07,0.03,0.13,0.07,0.19,0.12c-0.08-0.06,0.04,0.03,0.06,0.05c-0.07-0.08,0.09,0.13,0.08,0.12
	c0.04,0.06,0.08,0.11,0.11,0.17c0.08,0.12,0.16,0.24,0.23,0.36c0.15,0.25,0.29,0.5,0.42,0.76c0.37,0.77,0.61,1.6,0.6,2.44
	c0,0.38-0.03,0.59-0.13,0.96c-0.09,0.33-0.15,0.5-0.28,0.74c-0.12,0.23-0.25,0.45-0.4,0.66c-0.02,0.02-0.03,0.04-0.04,0.06
	c0.07-0.1,0.01-0.01,0,0c-0.03,0.04-0.07,0.09-0.11,0.13c-0.07,0.08-0.13,0.15-0.21,0.22c-0.1,0.11-0.21,0.21-0.33,0.3
	c-0.02,0.02-0.05,0.03-0.07,0.05c-0.02,0.02,0.11-0.07,0.03-0.02c-0.02,0.01-0.04,0.03-0.06,0.05c-0.34,0.21-0.75,0.35-1.12,0.49
	c-0.46,0.17-0.94,0.31-1.42,0.4c-0.36,0.07-0.71,0.1-1.09,0.1c-0.16,0-0.32-0.01-0.48-0.03c-0.01,0-0.15-0.02-0.05,0
	c-0.04-0.01-0.08-0.01-0.12-0.02c-0.09-0.02-0.18-0.03-0.27-0.05c-0.13-0.03-0.26-0.07-0.39-0.11c-0.06-0.02-0.12-0.04-0.18-0.07
	c-0.02-0.01-0.1-0.04-0.01,0c-0.04-0.02-0.08-0.04-0.12-0.06c-0.22-0.11-0.42-0.24-0.63-0.38c-0.02-0.02-0.08-0.06,0.01,0.01
	c-0.03-0.02-0.06-0.05-0.09-0.07c-0.05-0.04-0.1-0.08-0.14-0.12c-0.08-0.07-0.16-0.15-0.23-0.23c-0.07-0.07-0.13-0.15-0.19-0.23
	c0.1,0.12,0,0-0.02-0.03c-0.03-0.04-0.05-0.07-0.08-0.11c-0.07-0.1-0.13-0.21-0.19-0.32c-0.03-0.06-0.1-0.23-0.02-0.03
	c-0.11-0.28-0.48-0.46-0.73-0.19c-0.74,0.82-1.65,1.64-2.67,2.01c-0.2,0.07-0.41,0.13-0.63,0.17c-0.04,0.01-0.09,0.01-0.13,0.02
	c-0.07,0.01,0.02,0-0.08,0.01c-0.1,0.01-0.2,0.01-0.29,0.02c-0.09,0-0.18,0-0.26-0.01c-0.05,0-0.09-0.01-0.14-0.01
	c-0.02,0-0.04,0-0.06-0.01c-0.08-0.01,0.03,0-0.02,0c-0.17-0.03-0.34-0.07-0.51-0.12c-0.08-0.02-0.16-0.05-0.23-0.08
	c-0.02-0.01-0.13-0.05-0.05-0.02c-0.05-0.02-0.09-0.04-0.14-0.06c-0.15-0.07-0.29-0.15-0.43-0.24c-0.14-0.09-0.28-0.18-0.41-0.29
	c-0.02-0.01,0.04,0.03-0.02-0.02c-0.03-0.03-0.06-0.05-0.1-0.08c-0.06-0.05-0.12-0.1-0.18-0.16c-0.22-0.2-0.43-0.41-0.62-0.64
	c-0.04-0.05-0.08-0.1-0.12-0.15c-0.02-0.03-0.04-0.05-0.06-0.08c-0.06-0.08,0.04,0.06-0.02-0.02c-0.07-0.09-0.13-0.18-0.2-0.27
	c-0.1-0.14-0.19-0.28-0.28-0.43c-0.02-0.04-0.05-0.08-0.07-0.12c-0.02-0.03-0.03-0.07,0,0c-0.35-0.87-0.5-1.8-0.38-2.73
	c-0.01,0.07,0.01-0.06,0.01-0.08c0.01-0.05,0.02-0.1,0.03-0.14c0.02-0.09,0.04-0.19,0.07-0.28c0.02-0.08,0.05-0.17,0.08-0.25
	c0.01-0.04,0.03-0.09,0.05-0.13c0.01-0.02,0.05-0.12,0.04-0.09c-0.02,0.04,0.03-0.07,0.04-0.09c0.02-0.04,0.04-0.08,0.06-0.12
	c0.04-0.08,0.08-0.15,0.13-0.23c0.08-0.14,0.18-0.28,0.27-0.41c0.04-0.06-0.03,0.04,0.03-0.04c0.03-0.03,0.05-0.07,0.08-0.1
	c0.05-0.06,0.11-0.12,0.17-0.19c0.11-0.12,0.23-0.23,0.35-0.34c0.06-0.05,0.11-0.1,0.17-0.14c0.03-0.02,0.05-0.04,0.08-0.06
	c0.05-0.04-0.06,0.04-0.01,0.01c0.02-0.01,0.04-0.03,0.05-0.04c0.12-0.09,0.24-0.17,0.36-0.25c0.24-0.15,0.49-0.29,0.74-0.42
	c0.11-0.05,0.22-0.1,0.34-0.15c0.09-0.04-0.07,0.03,0,0c0.02-0.01,0.05-0.02,0.07-0.03c0.05-0.02,0.1-0.04,0.15-0.06
	c0.26-0.1,0.53-0.17,0.8-0.25c0.01,0,0.03-0.01,0.04-0.01C183.8,52.91,183.57,52.07,183.02,52.19z"/>
<path class="st2" d="M183.74,54.26c-0.03-0.04-0.05-0.09-0.08-0.13c-0.01-0.01-0.05-0.1-0.02-0.04c0.03,0.06-0.01-0.03-0.02-0.05
	c-0.03-0.07-0.05-0.14-0.07-0.22c-0.01-0.04-0.02-0.08-0.03-0.13c0-0.02-0.01-0.04-0.01-0.06c-0.01-0.03,0.01,0.08,0,0
	c-0.01-0.1-0.02-0.2-0.01-0.3c0-0.06,0.01-0.11,0.01-0.17c0.01-0.1-0.02,0.07,0-0.03c0.01-0.03,0.01-0.06,0.02-0.09
	c0.03-0.13,0.07-0.26,0.12-0.38c0.07-0.17-0.08-0.38-0.26-0.42c-0.21-0.04-0.38,0.06-0.46,0.24c-0.2,0.48-0.24,1-0.11,1.49
	c0.05,0.21,0.14,0.43,0.27,0.61c0.11,0.15,0.33,0.23,0.51,0.12C183.76,54.63,183.85,54.42,183.74,54.26"/>
<path class="st3" d="M183.74,54.26c-0.03-0.04-0.05-0.09-0.08-0.13c-0.01-0.01-0.05-0.1-0.02-0.04c0.03,0.06-0.01-0.03-0.02-0.05
	c-0.03-0.07-0.05-0.14-0.07-0.22c-0.01-0.04-0.02-0.08-0.03-0.13c0-0.02-0.01-0.04-0.01-0.06c-0.01-0.03,0.01,0.08,0,0
	c-0.01-0.1-0.02-0.2-0.01-0.3c0-0.06,0.01-0.11,0.01-0.17c0.01-0.1-0.02,0.07,0-0.03c0.01-0.03,0.01-0.06,0.02-0.09
	c0.03-0.13,0.07-0.26,0.12-0.38c0.07-0.17-0.08-0.38-0.26-0.42c-0.21-0.04-0.38,0.06-0.46,0.24c-0.2,0.48-0.24,1-0.11,1.49
	c0.05,0.21,0.14,0.43,0.27,0.61c0.11,0.15,0.33,0.23,0.51,0.12C183.76,54.63,183.85,54.42,183.74,54.26z"/>
<path class="st2" d="M188.01,60.81c-0.03-0.04-0.05-0.09-0.08-0.13c-0.01-0.01-0.05-0.1-0.02-0.04c0.03,0.06-0.01-0.03-0.02-0.05
	c-0.03-0.07-0.05-0.14-0.07-0.22c-0.01-0.04-0.02-0.08-0.03-0.13c0-0.02-0.01-0.04-0.01-0.06c-0.01-0.03,0.01,0.08,0,0
	c-0.01-0.1-0.02-0.2-0.01-0.3c0-0.06,0.01-0.11,0.01-0.17c0.01-0.1-0.01,0.07,0-0.03c0.01-0.03,0.01-0.06,0.02-0.09
	c0.03-0.13,0.07-0.26,0.12-0.38c0.07-0.17-0.08-0.38-0.26-0.42c-0.21-0.04-0.38,0.06-0.46,0.24c-0.2,0.48-0.24,1-0.11,1.49
	c0.05,0.21,0.14,0.43,0.27,0.61c0.11,0.15,0.33,0.23,0.51,0.12C188.04,61.18,188.13,60.97,188.01,60.81"/>
<path class="st3" d="M188.01,60.81c-0.03-0.04-0.05-0.09-0.08-0.13c-0.01-0.01-0.05-0.1-0.02-0.04c0.03,0.06-0.01-0.03-0.02-0.05
	c-0.03-0.07-0.05-0.14-0.07-0.22c-0.01-0.04-0.02-0.08-0.03-0.13c0-0.02-0.01-0.04-0.01-0.06c-0.01-0.03,0.01,0.08,0,0
	c-0.01-0.1-0.02-0.2-0.01-0.3c0-0.06,0.01-0.11,0.01-0.17c0.01-0.1-0.01,0.07,0-0.03c0.01-0.03,0.01-0.06,0.02-0.09
	c0.03-0.13,0.07-0.26,0.12-0.38c0.07-0.17-0.08-0.38-0.26-0.42c-0.21-0.04-0.38,0.06-0.46,0.24c-0.2,0.48-0.24,1-0.11,1.49
	c0.05,0.21,0.14,0.43,0.27,0.61c0.11,0.15,0.33,0.23,0.51,0.12C188.04,61.18,188.13,60.97,188.01,60.81z"/>
<path class="st2" d="M187,57.44c0.37,0.07,0.75,0.09,1.12,0.09c0.66-0.01,1.38-0.13,1.93-0.53c0.36-0.26,0.61-0.62,0.75-1.05
	c0.13-0.43-0.51-0.61-0.65-0.19c-0.03,0.09-0.03,0.09-0.07,0.17c-0.04,0.08-0.08,0.15-0.13,0.22c0.03-0.04-0.02,0.02-0.03,0.03
	c-0.03,0.03-0.05,0.06-0.08,0.08c-0.03,0.03-0.05,0.05-0.08,0.08c-0.01,0.01-0.02,0.02-0.04,0.03c-0.04,0.04,0.03-0.03-0.01,0.01
	c-0.11,0.08-0.28,0.18-0.37,0.21c-0.09,0.04-0.28,0.1-0.41,0.13c-0.07,0.02-0.14,0.03-0.21,0.04c-0.03,0.01-0.06,0.01-0.1,0.02
	c-0.07,0.01-0.02,0-0.01,0c-0.02,0-0.04,0.01-0.06,0.01c-0.14,0.02-0.29,0.03-0.43,0.03c-0.23,0.01-0.47,0-0.7-0.03
	c-0.05,0-0.1-0.01-0.15-0.02c-0.02,0-0.04,0-0.05-0.01c-0.05-0.01,0.09,0.01,0.03,0c-0.03,0-0.06-0.01-0.09-0.01
	c-0.18-0.03-0.36,0.05-0.41,0.24C186.72,57.18,186.82,57.4,187,57.44"/>
<path class="st3" d="M187,57.44c0.37,0.07,0.75,0.09,1.12,0.09c0.66-0.01,1.38-0.13,1.93-0.53c0.36-0.26,0.61-0.62,0.75-1.05
	c0.13-0.43-0.51-0.61-0.65-0.19c-0.03,0.09-0.03,0.09-0.07,0.17c-0.04,0.08-0.08,0.15-0.13,0.22c0.03-0.04-0.02,0.02-0.03,0.03
	c-0.03,0.03-0.05,0.06-0.08,0.08c-0.03,0.03-0.05,0.05-0.08,0.08c-0.01,0.01-0.02,0.02-0.04,0.03c-0.04,0.04,0.03-0.03-0.01,0.01
	c-0.11,0.08-0.28,0.18-0.37,0.21c-0.09,0.04-0.28,0.1-0.41,0.13c-0.07,0.02-0.14,0.03-0.21,0.04c-0.03,0.01-0.06,0.01-0.1,0.02
	c-0.07,0.01-0.02,0-0.01,0c-0.02,0-0.04,0.01-0.06,0.01c-0.14,0.02-0.29,0.03-0.43,0.03c-0.23,0.01-0.47,0-0.7-0.03
	c-0.05,0-0.1-0.01-0.15-0.02c-0.02,0-0.04,0-0.05-0.01c-0.05-0.01,0.09,0.01,0.03,0c-0.03,0-0.06-0.01-0.09-0.01
	c-0.18-0.03-0.36,0.05-0.41,0.24C186.72,57.18,186.82,57.4,187,57.44z"/>
<path d="M196,73.75h3.51v4.46h3.66V66.09h-3.66v4.56H196v-4.56h-3.66v12.12H196V73.75z M181.48,76.66c1.21,1.16,2.8,1.75,4.76,1.75
	c1.21,0,2.28-0.23,3.2-0.68c0.35-0.17,0.68-0.37,1-0.59c0.43-0.32,0.7-0.54,0.8-0.68l-1.66-2.75l-0.32,0.36
	c-0.23,0.23-0.59,0.46-1.1,0.69c-0.51,0.24-1.05,0.36-1.63,0.36c-0.99,0-1.77-0.29-2.32-0.88c-0.54-0.59-0.81-1.3-0.81-2.14
	c0-0.84,0.27-1.53,0.81-2.08c0.54-0.56,1.32-0.85,2.32-0.85c0.53,0,1.04,0.11,1.54,0.32c0.52,0.23,0.86,0.4,1.02,0.51
	c0.15,0.1,0.28,0.21,0.39,0.32l1.42-2.81l-0.19-0.17c-0.25-0.25-0.74-0.54-1.47-0.88c-0.81-0.38-1.81-0.58-2.98-0.58
	c-1.92,0-3.5,0.59-4.74,1.78c-1.23,1.19-1.85,2.68-1.85,4.49C179.67,73.99,180.27,75.49,181.48,76.66 M175.69,69.21h3.61v-3.12
	h-10.86v3.12h3.61v9h3.64V69.21z M163.62,69.17h0.07l0.44,2.17l0.56,1.97h-2.08l0.56-1.97C163.31,70.85,163.46,70.12,163.62,69.17
	 M161.86,75.97h3.58l0.64,2.24h3.54l-4-12.12h-3.93l-4,12.12h3.54L161.86,75.97z M149.55,72.36c0.14-0.65,0.23-1.22,0.27-1.7h0.05
	l0.02,0.26c0.1,0.7,0.19,1.18,0.25,1.42l1.41,5.86h3.86l3.07-12.12h-3.54l-1.37,6.64c-0.11,0.52-0.17,1.04-0.19,1.56h-0.07
	l-0.03-0.22c-0.02-0.42-0.1-0.86-0.22-1.34l-1.58-6.64h-3.2l-1.66,6.64c-0.12,0.5-0.2,1.02-0.24,1.56h-0.07l-0.2-1.56l-1.2-6.64
	h-3.61l2.95,12.12h3.9L149.55,72.36z"/>
</svg>
