<?xml version="1.0" encoding="utf-8"?>
<!-- Generator: Adobe Illustrator 26.5.0, SVG Export Plug-In . SVG Version: 6.00 Build 0)  -->
<svg version="1.1" id="Layer_1" xmlns="http://www.w3.org/2000/svg" xmlns:xlink="http://www.w3.org/1999/xlink" x="0px" y="0px"
	 viewBox="0 0 50.43 48.42" style="enable-background:new 0 0 50.43 48.42;" xml:space="preserve">
<style type="text/css">
	.st0{fill:#666666;}
	.st1{fill:#FFFFFF;}
	.st2{fill:#FF0000;}
	.st3{fill:none;stroke:#FF0000;stroke-width:0.375;stroke-miterlimit:10;}
</style>
<path class="st0" d="M25.22,48.47c13.37,0,24.21-10.84,24.21-24.21c0-13.37-10.84-24.21-24.21-24.21S1.01,10.89,1.01,24.26
	C1.01,37.63,11.85,48.47,25.22,48.47"/>
<path d="M25.23,15.39c0.08-0.11,0.16-0.22,0.24-0.33c3.05-4.64,9.18-5.43,13.22-1.65c2.22,2.07,3.02,4.7,2.58,7.69
	c-0.33,2.24-1.3,4.23-2.56,6.08c-2.65,3.91-6.1,7.03-9.84,9.86c-1.08,0.82-2.21,1.56-3.31,2.35c-0.23,0.17-0.41,0.2-0.67,0.02
	c-4.35-2.92-8.4-6.18-11.72-10.27c-1.59-1.95-2.96-4.04-3.67-6.49C8.46,19,9.14,15.78,12,13.16c3.45-3.15,9.14-2.76,12.16,0.81
	C24.53,14.42,24.86,14.9,25.23,15.39"/>
</svg>
