<?xml version="1.0" encoding="utf-8"?>
<!-- Generator: Adobe Illustrator 26.5.0, SVG Export Plug-In . SVG Version: 6.00 Build 0)  -->
<svg version="1.1" id="Layer_1" xmlns="http://www.w3.org/2000/svg" xmlns:xlink="http://www.w3.org/1999/xlink" x="0px" y="0px"
	 viewBox="0 0 50.43 48.42" style="enable-background:new 0 0 50.43 48.42;" xml:space="preserve">
<style type="text/css">
	.st0{fill:#666666;}
	.st1{fill:#FFFFFF;}
	.st2{fill:#FF0000;}
	.st3{fill:none;stroke:#FF0000;stroke-width:0.375;stroke-miterlimit:10;}
</style>
<path class="st0" d="M50.13,24.21c0,13.3-10.78,24.08-24.08,24.08c-13.3,0-24.08-10.78-24.08-24.08S12.74,0.13,26.04,0.13
	C39.34,0.13,50.13,10.91,50.13,24.21"/>
<path d="M33.52,15.1c-0.91,0-1.66,0.74-1.66,1.65c0,0.92,0.74,1.66,1.66,1.66s1.66-0.74,1.66-1.66
	C35.18,15.84,34.43,15.1,33.52,15.1"/>
<path d="M26.16,28.63c-2.46,0-4.45-2-4.45-4.45c0-2.46,2-4.46,4.45-4.46s4.45,2,4.45,4.46C30.61,26.63,28.62,28.63,26.16,28.63
	 M26.16,17.22c-3.83,0-6.95,3.12-6.95,6.95c0,3.83,3.12,6.95,6.95,6.95s6.95-3.12,6.95-6.95C33.11,20.34,29.99,17.22,26.16,17.22"/>
<path d="M20.41,12.71c-3.21,0-5.83,2.61-5.83,5.82v11.27c0,3.21,2.61,5.82,5.83,5.82h11.27c3.21,0,5.83-2.61,5.83-5.82V18.54
	c0-3.21-2.61-5.82-5.83-5.82H20.41z M31.68,38.29H20.41c-4.68,0-8.48-3.8-8.48-8.48V18.54c0-4.68,3.8-8.48,8.48-8.48h11.27
	c4.68,0,8.48,3.8,8.48,8.48v11.27C40.16,34.49,36.36,38.29,31.68,38.29"/>
</svg>
