<?xml version="1.0" encoding="utf-8"?>
<!-- Generator: Adobe Illustrator 26.5.0, SVG Export Plug-In . SVG Version: 6.00 Build 0)  -->
<svg version="1.1" id="Layer_1" xmlns="http://www.w3.org/2000/svg" xmlns:xlink="http://www.w3.org/1999/xlink" x="0px" y="0px"
	 viewBox="0 0 50.43 48.42" style="enable-background:new 0 0 50.43 48.42;" xml:space="preserve">
<style type="text/css">
	.st0{fill:#666666;}
	.st1{fill:#FFFFFF;}
	.st2{fill:#FF0000;}
	.st3{fill:none;stroke:#FF0000;stroke-width:0.375;stroke-miterlimit:10;}
</style>
<path class="st0" d="M25.3,48.54c13.37,0,24.21-10.84,24.21-24.21c0-13.37-10.84-24.21-24.21-24.21S1.09,10.97,1.09,24.34
	C1.09,37.7,11.93,48.54,25.3,48.54"/>
<path d="M34.78,39.34c0.25-0.06,0.51-0.12,0.75-0.19c1.86-0.56,3.21-2.46,3.07-4.35c-0.15-2.16-1.63-3.83-3.66-4.14
	c-1.34-0.2-2.54,0.12-3.57,1.03c-0.04,0.03-0.08,0.06-0.13,0.1c-3.54-2.11-7.09-4.21-10.62-6.31c0.16-0.83,0.16-1.5-0.01-2.13
	c3.54-2.05,7.09-4.11,10.64-6.17c0.56,0.53,1.2,0.9,1.95,1.08c2.95,0.71,5.64-1.49,5.55-4.53c-0.06-1.98-1.27-3.61-3.12-4.18
	c-1.89-0.58-3.93,0.08-5.05,1.67c-0.75,1.06-0.98,2.26-0.72,3.53c0.05,0.23-0.09,0.25-0.2,0.32c-3.04,1.76-6.07,3.52-9.11,5.28
	c-0.35,0.21-0.72,0.4-1.06,0.62c-0.19,0.12-0.29,0.08-0.45-0.05c-1.84-1.63-5-1.29-6.37,0.76c-1.07,1.61-1.09,3.35-0.1,5
	c0.97,1.6,2.48,2.23,4.32,2.07c0.9-0.08,1.69-0.43,2.36-1.05c0.16-0.15,0.25-0.06,0.38,0.02c2.37,1.41,4.73,2.81,7.1,4.22
	c1.1,0.65,2.21,1.31,3.31,1.97c-0.27,1.18-0.13,2.29,0.49,3.31c0.71,1.17,1.74,1.86,3.09,2.08c0.06,0.01,0.11,0.03,0.16,0.05H34.78z
	"/>
</svg>
