<?xml version="1.0" encoding="utf-8"?>
<!-- Generator: Adobe Illustrator 26.5.0, SVG Export Plug-In . SVG Version: 6.00 Build 0)  -->
<svg version="1.1" id="Layer_1" xmlns="http://www.w3.org/2000/svg" xmlns:xlink="http://www.w3.org/1999/xlink" x="0px" y="0px"
	 viewBox="0 0 50.43 48.42" style="enable-background:new 0 0 50.43 48.42;" xml:space="preserve">
<style type="text/css">
	.st0{fill:#666666;}
	.st1{fill:#FFFFFF;}
	.st2{fill:#FF0000;}
	.st3{fill:none;stroke:#FF0000;stroke-width:0.375;stroke-miterlimit:10;}
</style>
<path class="st0" d="M49.3,24.06c0-13.3-10.78-24.08-24.08-24.08S1.13,10.76,1.13,24.06c0,12.02,8.81,21.98,20.32,23.79V31.02h-6.11
	v-6.96h6.11v-5.31c0-6.04,3.6-9.37,9.1-9.37c2.63,0,5.39,0.47,5.39,0.47v5.93H32.9c-2.99,0-3.92,1.86-3.92,3.76v4.52h6.68
	l-1.07,6.96h-5.61v16.83C40.49,46.05,49.3,36.08,49.3,24.06"/>
<path d="M34.58,31.02l1.07-6.96h-6.68v-4.52c0-1.9,0.93-3.76,3.92-3.76h3.04V9.86c0,0-2.76-0.47-5.39-0.47c-5.5,0-9.1,3.33-9.1,9.37
	v5.31h-6.12v6.96h6.12v16.83c1.23,0.19,2.48,0.29,3.76,0.29s2.54-0.1,3.76-0.29V31.02H34.58z"/>
</svg>
