<svg width="18" height="18" viewBox="0 0 18 18" fill="none" xmlns="http://www.w3.org/2000/svg">
<path d="M9 18C4.02891 18 0 13.9711 0 9C0 4.02891 4.02891 0 9 0C13.9711 0 18 4.02891 18 9C18 13.9711 13.9711 18 9 18ZM8.15625 9C8.15625 9.28125 8.29688 9.54492 8.53242 9.67148L11.9074 11.9215C12.2941 12.2098 12.818 12.1043 13.0465 11.7176C13.3348 11.3309 13.2293 10.807 12.8426 10.5469L9.84375 8.55V4.21875C9.84375 3.75117 9.46758 3.375 8.96836 3.375C8.53242 3.375 8.12461 3.75117 8.12461 4.21875L8.15625 9Z" fill="#F4890B"/>
</svg>
