<svg width="20" height="20" viewBox="0 0 20 20" fill="none" xmlns="http://www.w3.org/2000/svg">
<g clip-path="url(#clip0_101_1515)">
<path d="M19.6875 10C19.6875 4.64844 15.3516 0.3125 10 0.3125C4.64844 0.3125 0.3125 4.64844 0.3125 10C0.3125 14.8352 3.85508 18.843 8.48633 19.5703V12.8004H6.02539V10H8.48633V7.86562C8.48633 5.43789 9.93164 4.09687 12.1453 4.09687C13.2055 4.09687 14.3141 4.28594 14.3141 4.28594V6.66875H13.0922C11.8891 6.66875 11.5137 7.41562 11.5137 8.18164V10H14.2004L13.7707 12.8004H11.5137V19.5703C16.1449 18.843 19.6875 14.8352 19.6875 10Z" fill="#EFEFEF"/>
</g>
<defs>
<clipPath id="clip0_101_1515">
<rect width="20" height="20" fill="white"/>
</clipPath>
</defs>
</svg>
