<svg width="217" height="325" viewBox="0 0 217 325" fill="none" xmlns="http://www.w3.org/2000/svg">
<rect width="217" height="325" fill="#D9D9D9"/>
<path d="M22.0994 155V131.727H29.9631C31.7888 131.727 33.2813 132.057 34.4403 132.716C35.607 133.367 36.4706 134.25 37.0312 135.364C37.5919 136.477 37.8722 137.72 37.8722 139.091C37.8722 140.462 37.5919 141.708 37.0312 142.83C36.4782 143.951 35.6222 144.845 34.4631 145.511C33.304 146.17 31.8191 146.5 30.0085 146.5H24.3722V144H29.9176C31.1676 144 32.1714 143.784 32.929 143.352C33.6866 142.92 34.2358 142.337 34.5767 141.602C34.9252 140.86 35.0994 140.023 35.0994 139.091C35.0994 138.159 34.9252 137.326 34.5767 136.591C34.2358 135.856 33.6828 135.28 32.9176 134.864C32.1525 134.439 31.1373 134.227 29.8722 134.227H24.9176V155H22.0994ZM44.7301 131.727V155H42.0483V131.727H44.7301ZM54.7784 155.409C53.6723 155.409 52.6686 155.201 51.767 154.784C50.8655 154.36 50.1496 153.75 49.6193 152.955C49.089 152.152 48.8239 151.182 48.8239 150.045C48.8239 149.045 49.0208 148.235 49.4148 147.614C49.8087 146.985 50.3352 146.492 50.9943 146.136C51.6534 145.78 52.3807 145.515 53.1761 145.341C53.9792 145.159 54.786 145.015 55.5966 144.909C56.6572 144.773 57.517 144.67 58.1761 144.602C58.8428 144.527 59.3277 144.402 59.6307 144.227C59.9413 144.053 60.0966 143.75 60.0966 143.318V143.227C60.0966 142.106 59.7898 141.235 59.1761 140.614C58.5701 139.992 57.6496 139.682 56.4148 139.682C55.1345 139.682 54.1307 139.962 53.4034 140.523C52.6761 141.083 52.1648 141.682 51.8693 142.318L49.3239 141.409C49.7784 140.348 50.3845 139.523 51.142 138.932C51.9072 138.333 52.7405 137.917 53.642 137.682C54.5511 137.439 55.4451 137.318 56.3239 137.318C56.8845 137.318 57.5284 137.386 58.2557 137.523C58.9905 137.652 59.6989 137.92 60.3807 138.33C61.0701 138.739 61.642 139.356 62.0966 140.182C62.5511 141.008 62.7784 142.114 62.7784 143.5V155H60.0966V152.636H59.9602C59.7784 153.015 59.4754 153.42 59.0511 153.852C58.6269 154.284 58.0625 154.652 57.358 154.955C56.6534 155.258 55.7936 155.409 54.7784 155.409ZM55.1875 153C56.2481 153 57.142 152.792 57.8693 152.375C58.6042 151.958 59.1572 151.42 59.5284 150.761C59.9072 150.102 60.0966 149.409 60.0966 148.682V146.227C59.983 146.364 59.733 146.489 59.3466 146.602C58.9678 146.708 58.5284 146.803 58.0284 146.886C57.536 146.962 57.0549 147.03 56.5852 147.091C56.1231 147.144 55.7481 147.189 55.4602 147.227C54.7633 147.318 54.1117 147.466 53.5057 147.67C52.9072 147.867 52.4223 148.167 52.0511 148.568C51.6875 148.962 51.5057 149.5 51.5057 150.182C51.5057 151.114 51.8504 151.818 52.5398 152.295C53.2367 152.765 54.1193 153 55.1875 153ZM74.7642 155.364C73.1278 155.364 71.7188 154.977 70.5369 154.205C69.3551 153.432 68.446 152.367 67.8097 151.011C67.1733 149.655 66.8551 148.106 66.8551 146.364C66.8551 144.591 67.1809 143.027 67.8324 141.67C68.4915 140.307 69.4081 139.242 70.5824 138.477C71.7642 137.705 73.143 137.318 74.7188 137.318C75.946 137.318 77.0521 137.545 78.0369 138C79.0218 138.455 79.8286 139.091 80.4574 139.909C81.0862 140.727 81.4763 141.682 81.6278 142.773H78.946C78.7415 141.977 78.2869 141.273 77.5824 140.659C76.8854 140.038 75.946 139.727 74.7642 139.727C73.7188 139.727 72.8021 140 72.0142 140.545C71.2339 141.083 70.6241 141.845 70.1847 142.83C69.7528 143.807 69.5369 144.955 69.5369 146.273C69.5369 147.621 69.7491 148.795 70.1733 149.795C70.6051 150.795 71.2112 151.572 71.9915 152.125C72.7794 152.678 73.7036 152.955 74.7642 152.955C75.4612 152.955 76.0938 152.833 76.6619 152.591C77.2301 152.348 77.7112 152 78.1051 151.545C78.4991 151.091 78.7794 150.545 78.946 149.909H81.6278C81.4763 150.939 81.1013 151.867 80.5028 152.693C79.9119 153.511 79.1278 154.163 78.1506 154.648C77.1809 155.125 76.0521 155.364 74.7642 155.364ZM92.8665 155.364C91.1847 155.364 89.7339 154.992 88.5142 154.25C87.3021 153.5 86.3665 152.455 85.7074 151.114C85.0559 149.765 84.7301 148.197 84.7301 146.409C84.7301 144.621 85.0559 143.045 85.7074 141.682C86.3665 140.311 87.2831 139.242 88.4574 138.477C89.6392 137.705 91.018 137.318 92.5938 137.318C93.5028 137.318 94.4006 137.47 95.2869 137.773C96.1733 138.076 96.9801 138.568 97.7074 139.25C98.4347 139.924 99.0142 140.818 99.446 141.932C99.8778 143.045 100.094 144.417 100.094 146.045V147.182H86.6392V144.864H97.3665C97.3665 143.879 97.1695 143 96.7756 142.227C96.3892 141.455 95.8362 140.845 95.1165 140.398C94.4044 139.951 93.5634 139.727 92.5938 139.727C91.5256 139.727 90.6013 139.992 89.821 140.523C89.0483 141.045 88.4536 141.727 88.0369 142.568C87.6203 143.409 87.4119 144.311 87.4119 145.273V146.818C87.4119 148.136 87.6392 149.254 88.0938 150.17C88.5559 151.08 89.196 151.773 90.0142 152.25C90.8324 152.72 91.7831 152.955 92.8665 152.955C93.571 152.955 94.2074 152.856 94.7756 152.659C95.3513 152.455 95.8475 152.152 96.2642 151.75C96.6809 151.341 97.0028 150.833 97.2301 150.227L99.821 150.955C99.5483 151.833 99.09 152.606 98.446 153.273C97.8021 153.932 97.0066 154.447 96.0597 154.818C95.1127 155.182 94.0483 155.364 92.8665 155.364ZM106.855 144.5V155H104.173V131.727H106.855V140.273H107.082C107.491 139.371 108.105 138.655 108.923 138.125C109.749 137.587 110.848 137.318 112.219 137.318C113.408 137.318 114.45 137.557 115.344 138.034C116.238 138.504 116.931 139.227 117.423 140.205C117.923 141.174 118.173 142.409 118.173 143.909V155H115.491V144.091C115.491 142.705 115.132 141.633 114.412 140.875C113.7 140.11 112.711 139.727 111.446 139.727C110.567 139.727 109.779 139.913 109.082 140.284C108.393 140.655 107.848 141.197 107.446 141.909C107.052 142.621 106.855 143.485 106.855 144.5ZM130.17 155.364C128.595 155.364 127.212 154.989 126.023 154.239C124.841 153.489 123.917 152.439 123.25 151.091C122.591 149.742 122.261 148.167 122.261 146.364C122.261 144.545 122.591 142.958 123.25 141.602C123.917 140.246 124.841 139.193 126.023 138.443C127.212 137.693 128.595 137.318 130.17 137.318C131.746 137.318 133.125 137.693 134.307 138.443C135.496 139.193 136.42 140.246 137.08 141.602C137.746 142.958 138.08 144.545 138.08 146.364C138.08 148.167 137.746 149.742 137.08 151.091C136.42 152.439 135.496 153.489 134.307 154.239C133.125 154.989 131.746 155.364 130.17 155.364ZM130.17 152.955C131.367 152.955 132.352 152.648 133.125 152.034C133.898 151.42 134.47 150.614 134.841 149.614C135.212 148.614 135.398 147.53 135.398 146.364C135.398 145.197 135.212 144.11 134.841 143.102C134.47 142.095 133.898 141.28 133.125 140.659C132.352 140.038 131.367 139.727 130.17 139.727C128.973 139.727 127.989 140.038 127.216 140.659C126.443 141.28 125.871 142.095 125.5 143.102C125.129 144.11 124.943 145.197 124.943 146.364C124.943 147.53 125.129 148.614 125.5 149.614C125.871 150.614 126.443 151.42 127.216 152.034C127.989 152.648 128.973 152.955 130.17 152.955ZM144.855 131.727V155H142.173V131.727H144.855ZM156.358 155.364C154.903 155.364 153.619 154.996 152.506 154.261C151.392 153.519 150.521 152.473 149.892 151.125C149.263 149.769 148.949 148.167 148.949 146.318C148.949 144.485 149.263 142.894 149.892 141.545C150.521 140.197 151.396 139.155 152.517 138.42C153.638 137.686 154.934 137.318 156.403 137.318C157.54 137.318 158.438 137.508 159.097 137.886C159.763 138.258 160.271 138.682 160.619 139.159C160.975 139.629 161.252 140.015 161.449 140.318H161.676V131.727H164.358V155H161.767V152.318H161.449C161.252 152.636 160.972 153.038 160.608 153.523C160.244 154 159.725 154.428 159.051 154.807C158.377 155.178 157.479 155.364 156.358 155.364ZM156.722 152.955C157.797 152.955 158.706 152.674 159.449 152.114C160.191 151.545 160.756 150.761 161.142 149.761C161.528 148.754 161.722 147.591 161.722 146.273C161.722 144.97 161.532 143.83 161.153 142.852C160.775 141.867 160.214 141.102 159.472 140.557C158.729 140.004 157.813 139.727 156.722 139.727C155.585 139.727 154.638 140.019 153.881 140.602C153.131 141.178 152.566 141.962 152.188 142.955C151.816 143.939 151.631 145.045 151.631 146.273C151.631 147.515 151.82 148.644 152.199 149.659C152.585 150.667 153.153 151.47 153.903 152.068C154.661 152.659 155.6 152.955 156.722 152.955ZM176.96 155.364C175.278 155.364 173.828 154.992 172.608 154.25C171.396 153.5 170.46 152.455 169.801 151.114C169.15 149.765 168.824 148.197 168.824 146.409C168.824 144.621 169.15 143.045 169.801 141.682C170.46 140.311 171.377 139.242 172.551 138.477C173.733 137.705 175.112 137.318 176.688 137.318C177.597 137.318 178.494 137.47 179.381 137.773C180.267 138.076 181.074 138.568 181.801 139.25C182.528 139.924 183.108 140.818 183.54 141.932C183.972 143.045 184.188 144.417 184.188 146.045V147.182H170.733V144.864H181.46C181.46 143.879 181.263 143 180.869 142.227C180.483 141.455 179.93 140.845 179.21 140.398C178.498 139.951 177.657 139.727 176.688 139.727C175.619 139.727 174.695 139.992 173.915 140.523C173.142 141.045 172.547 141.727 172.131 142.568C171.714 143.409 171.506 144.311 171.506 145.273V146.818C171.506 148.136 171.733 149.254 172.188 150.17C172.65 151.08 173.29 151.773 174.108 152.25C174.926 152.72 175.877 152.955 176.96 152.955C177.665 152.955 178.301 152.856 178.869 152.659C179.445 152.455 179.941 152.152 180.358 151.75C180.775 151.341 181.097 150.833 181.324 150.227L183.915 150.955C183.642 151.833 183.184 152.606 182.54 153.273C181.896 153.932 181.1 154.447 180.153 154.818C179.206 155.182 178.142 155.364 176.96 155.364ZM188.267 155V137.545H190.858V140.182H191.04C191.358 139.318 191.934 138.617 192.767 138.08C193.6 137.542 194.54 137.273 195.585 137.273C195.782 137.273 196.028 137.277 196.324 137.284C196.619 137.292 196.843 137.303 196.994 137.318V140.045C196.903 140.023 196.695 139.989 196.369 139.943C196.051 139.89 195.714 139.864 195.358 139.864C194.509 139.864 193.752 140.042 193.085 140.398C192.426 140.746 191.903 141.231 191.517 141.852C191.138 142.466 190.949 143.167 190.949 143.955V155H188.267ZM65.1733 194V176.545H67.8551V194H65.1733ZM66.5369 173.636C66.0142 173.636 65.5634 173.458 65.1847 173.102C64.8134 172.746 64.6278 172.318 64.6278 171.818C64.6278 171.318 64.8134 170.89 65.1847 170.534C65.5634 170.178 66.0142 170 66.5369 170C67.0597 170 67.5066 170.178 67.8778 170.534C68.2566 170.89 68.446 171.318 68.446 171.818C68.446 172.318 68.2566 172.746 67.8778 173.102C67.5066 173.458 67.0597 173.636 66.5369 173.636ZM72.767 194V176.545H75.358V179.273H75.5852C75.9489 178.341 76.536 177.617 77.3466 177.102C78.1572 176.58 79.1307 176.318 80.267 176.318C81.4186 176.318 82.3769 176.58 83.142 177.102C83.9148 177.617 84.517 178.341 84.9489 179.273H85.1307C85.5777 178.371 86.2481 177.655 87.142 177.125C88.036 176.587 89.108 176.318 90.358 176.318C91.9186 176.318 93.1951 176.807 94.1875 177.784C95.1799 178.754 95.6761 180.265 95.6761 182.318V194H92.9943V182.318C92.9943 181.03 92.642 180.11 91.9375 179.557C91.233 179.004 90.4034 178.727 89.4489 178.727C88.2216 178.727 87.2708 179.098 86.5966 179.841C85.9223 180.576 85.5852 181.508 85.5852 182.636V194H82.858V182.045C82.858 181.053 82.536 180.254 81.892 179.648C81.2481 179.034 80.4186 178.727 79.4034 178.727C78.7064 178.727 78.0549 178.913 77.4489 179.284C76.8504 179.655 76.3655 180.17 75.9943 180.83C75.6307 181.481 75.4489 182.235 75.4489 183.091V194H72.767ZM105.716 194.409C104.61 194.409 103.606 194.201 102.705 193.784C101.803 193.36 101.087 192.75 100.557 191.955C100.027 191.152 99.7614 190.182 99.7614 189.045C99.7614 188.045 99.9583 187.235 100.352 186.614C100.746 185.985 101.273 185.492 101.932 185.136C102.591 184.78 103.318 184.515 104.114 184.341C104.917 184.159 105.723 184.015 106.534 183.909C107.595 183.773 108.455 183.67 109.114 183.602C109.78 183.527 110.265 183.402 110.568 183.227C110.879 183.053 111.034 182.75 111.034 182.318V182.227C111.034 181.106 110.727 180.235 110.114 179.614C109.508 178.992 108.587 178.682 107.352 178.682C106.072 178.682 105.068 178.962 104.341 179.523C103.614 180.083 103.102 180.682 102.807 181.318L100.261 180.409C100.716 179.348 101.322 178.523 102.08 177.932C102.845 177.333 103.678 176.917 104.58 176.682C105.489 176.439 106.383 176.318 107.261 176.318C107.822 176.318 108.466 176.386 109.193 176.523C109.928 176.652 110.636 176.92 111.318 177.33C112.008 177.739 112.58 178.356 113.034 179.182C113.489 180.008 113.716 181.114 113.716 182.5V194H111.034V191.636H110.898C110.716 192.015 110.413 192.42 109.989 192.852C109.564 193.284 109 193.652 108.295 193.955C107.591 194.258 106.731 194.409 105.716 194.409ZM106.125 192C107.186 192 108.08 191.792 108.807 191.375C109.542 190.958 110.095 190.42 110.466 189.761C110.845 189.102 111.034 188.409 111.034 187.682V185.227C110.92 185.364 110.67 185.489 110.284 185.602C109.905 185.708 109.466 185.803 108.966 185.886C108.473 185.962 107.992 186.03 107.523 186.091C107.061 186.144 106.686 186.189 106.398 186.227C105.701 186.318 105.049 186.466 104.443 186.67C103.845 186.867 103.36 187.167 102.989 187.568C102.625 187.962 102.443 188.5 102.443 189.182C102.443 190.114 102.788 190.818 103.477 191.295C104.174 191.765 105.057 192 106.125 192ZM125.656 200.909C124.361 200.909 123.247 200.742 122.315 200.409C121.384 200.083 120.607 199.652 119.986 199.114C119.372 198.583 118.884 198.015 118.52 197.409L120.656 195.909C120.899 196.227 121.205 196.591 121.577 197C121.948 197.417 122.455 197.777 123.099 198.08C123.751 198.39 124.603 198.545 125.656 198.545C127.065 198.545 128.228 198.205 129.145 197.523C130.062 196.841 130.52 195.773 130.52 194.318V190.773H130.293C130.096 191.091 129.815 191.485 129.452 191.955C129.096 192.417 128.58 192.83 127.906 193.193C127.24 193.549 126.338 193.727 125.202 193.727C123.793 193.727 122.527 193.394 121.406 192.727C120.293 192.061 119.41 191.091 118.759 189.818C118.115 188.545 117.793 187 117.793 185.182C117.793 183.394 118.107 181.837 118.736 180.511C119.365 179.178 120.24 178.148 121.361 177.42C122.482 176.686 123.777 176.318 125.247 176.318C126.384 176.318 127.285 176.508 127.952 176.886C128.626 177.258 129.141 177.682 129.497 178.159C129.861 178.629 130.141 179.015 130.338 179.318H130.611V176.545H133.202V194.5C133.202 196 132.861 197.22 132.179 198.159C131.505 199.106 130.596 199.799 129.452 200.239C128.315 200.686 127.05 200.909 125.656 200.909ZM125.565 191.318C126.641 191.318 127.55 191.072 128.293 190.58C129.035 190.087 129.599 189.379 129.986 188.455C130.372 187.53 130.565 186.424 130.565 185.136C130.565 183.879 130.376 182.769 129.997 181.807C129.618 180.845 129.058 180.091 128.315 179.545C127.573 179 126.656 178.727 125.565 178.727C124.429 178.727 123.482 179.015 122.724 179.591C121.974 180.167 121.41 180.939 121.031 181.909C120.66 182.879 120.474 183.955 120.474 185.136C120.474 186.348 120.664 187.42 121.043 188.352C121.429 189.277 121.997 190.004 122.747 190.534C123.505 191.057 124.444 191.318 125.565 191.318ZM145.429 194.364C143.747 194.364 142.296 193.992 141.077 193.25C139.865 192.5 138.929 191.455 138.27 190.114C137.618 188.765 137.293 187.197 137.293 185.409C137.293 183.621 137.618 182.045 138.27 180.682C138.929 179.311 139.846 178.242 141.02 177.477C142.202 176.705 143.58 176.318 145.156 176.318C146.065 176.318 146.963 176.47 147.849 176.773C148.736 177.076 149.543 177.568 150.27 178.25C150.997 178.924 151.577 179.818 152.009 180.932C152.44 182.045 152.656 183.417 152.656 185.045V186.182H139.202V183.864H149.929C149.929 182.879 149.732 182 149.338 181.227C148.952 180.455 148.399 179.845 147.679 179.398C146.967 178.951 146.126 178.727 145.156 178.727C144.088 178.727 143.164 178.992 142.384 179.523C141.611 180.045 141.016 180.727 140.599 181.568C140.183 182.409 139.974 183.311 139.974 184.273V185.818C139.974 187.136 140.202 188.254 140.656 189.17C141.118 190.08 141.759 190.773 142.577 191.25C143.395 191.72 144.346 191.955 145.429 191.955C146.134 191.955 146.77 191.856 147.338 191.659C147.914 191.455 148.41 191.152 148.827 190.75C149.243 190.341 149.565 189.833 149.793 189.227L152.384 189.955C152.111 190.833 151.652 191.606 151.009 192.273C150.365 192.932 149.569 193.447 148.622 193.818C147.675 194.182 146.611 194.364 145.429 194.364Z" fill="black"/>
</svg>
