<svg width="18" height="18" viewBox="0 0 18 18" fill="none" xmlns="http://www.w3.org/2000/svg">
<path d="M12.1716 5.2847L17.0695 6.02992C17.4751 6.08968 17.8159 6.38495 17.9455 6.7892C18.075 7.19696 17.9693 7.63987 17.6762 7.94218L14.1246 11.5347L14.9631 16.688C15.0313 17.1098 14.8643 17.5386 14.5234 17.7882C14.186 18.0378 13.7395 18.0694 13.3748 17.8691L8.99838 15.4612L4.62539 17.8691C4.25728 18.0694 3.81078 18.0378 3.47334 17.7882C3.13591 17.5386 2.96549 17.1098 3.03707 16.688L3.87554 11.5347L0.32329 7.94218C0.0298253 7.63987 -0.0744722 7.19696 0.0543658 6.7892C0.182863 6.38495 0.522682 6.08968 0.93135 6.02992L5.82515 5.2847L8.02017 0.633053C8.20081 0.24582 8.58255 0 8.99838 0C9.41762 0 9.79936 0.24582 9.98 0.633053L12.1716 5.2847Z" fill="#F4890B"/>
</svg>
