<svg width="18" height="20" viewBox="0 0 18 20" fill="none" xmlns="http://www.w3.org/2000/svg">
<path d="M17.4074 8.20169C15.6963 8.2058 14.0271 7.66934 12.6357 6.6681V13.6511C12.6352 14.9444 12.242 16.2068 11.5086 17.2694C10.7752 18.332 9.73653 19.1442 8.53156 19.5974C7.32658 20.0505 6.0127 20.1231 4.7656 19.8053C3.5185 19.4876 2.39763 18.7946 1.55285 17.8192C0.708071 16.8437 0.179661 15.6323 0.0382733 14.3468C-0.103114 13.0613 0.149261 11.763 0.761652 10.6256C1.37404 9.48819 2.31726 8.56583 3.46518 7.98185C4.6131 7.39788 5.91101 7.18013 7.18536 7.35772V10.8699C6.60222 10.6855 5.97603 10.6911 5.39621 10.8858C4.81639 11.0805 4.3126 11.4544 3.95679 11.9541C3.60097 12.4539 3.41132 13.0538 3.41492 13.6684C3.41852 14.2829 3.61519 14.8806 3.97684 15.376C4.33848 15.8715 4.84662 16.2394 5.42868 16.4272C6.01074 16.6151 6.63695 16.6132 7.21789 16.4219C7.79884 16.2306 8.3048 15.8597 8.66353 15.3621C9.02226 14.8645 9.21541 14.2657 9.21539 13.6511V0H12.6357C12.6333 0.290363 12.6575 0.580329 12.708 0.866235C12.8268 1.50447 13.074 2.11163 13.4342 2.65057C13.7945 3.1895 14.2604 3.64889 14.8033 4.00062C15.5758 4.51407 16.4814 4.78774 17.4074 4.78754V8.20169Z" fill="#EFEFEF"/>
</svg>
